<svg width="52" height="57" viewBox="0 0 52 57" fill="none" xmlns="http://www.w3.org/2000/svg">
<g clip-path="url(#clip0)">
<path d="M44.5963 0.362549C40.8204 0.362549 37.7485 3.71145 37.7485 7.82778V13.2817L36.1161 15.0613C35.9007 13.3179 35.1811 11.6351 33.9546 10.298L27.8709 3.66567L24.9494 6.85063C21.9739 10.0944 21.9739 15.3725 24.9494 18.6163L28.9022 22.9256L25.4581 26.6802C25.2428 24.9368 24.5231 23.254 23.2966 21.9169L17.2129 15.2846L14.2914 18.4695C11.3158 21.7133 11.3158 26.9914 14.2914 30.2352L18.2442 34.5445L14.8002 38.299C14.5848 36.5556 13.8652 34.8728 12.6387 33.5357L6.55488 26.9034L3.63343 30.0884C0.657846 33.3322 0.657846 38.6102 3.63343 41.854L7.58622 46.1633L0.296219 54.1107L2.42711 56.4337L9.71711 48.4864L13.67 52.7956C15.1578 54.4175 17.1121 55.2285 19.0663 55.2285C21.0205 55.2285 22.9749 54.4175 24.4626 52.7956L27.3841 49.6108L21.3003 42.9784C20.0739 41.6413 18.5303 40.8568 16.9311 40.622L20.3751 36.8675L24.3279 41.1767C25.8157 42.7986 27.7699 43.6095 29.7242 43.6095C31.6785 43.6095 33.6328 42.7986 35.1205 41.1767L38.0421 37.9917L31.9583 31.3595C30.7318 30.0224 29.1882 29.2379 27.589 29.0031L31.0331 25.2485L34.986 29.5577C36.474 31.1798 38.4278 31.9905 40.3823 31.9905C42.3363 31.9905 44.291 31.1794 45.7786 29.5577L48.7001 26.3727L42.6163 19.7405C41.3899 18.4034 39.8462 17.6189 38.247 17.3841L39.8794 15.6045H44.8822C48.6581 15.6045 51.73 12.2556 51.73 8.13923V0.362549L44.5963 0.362549ZM31.033 20.6025L27.0801 16.2933C25.2796 14.3304 25.2796 11.1365 27.0801 9.17365L27.8707 8.3117L31.8236 12.6209C33.6241 14.5838 33.6241 17.7777 31.8236 19.7406L31.033 20.6025ZM20.3751 32.2215L16.4222 27.9122C14.6217 25.9493 14.6217 22.7554 16.4222 20.7926L17.2128 19.9306L21.1657 24.2399C22.9662 26.2028 22.9662 29.3967 21.1657 31.3595L20.3751 32.2215ZM9.71711 43.8404L5.76422 39.5312C3.96372 37.5683 3.96372 34.3744 5.76422 32.4115L6.55488 31.5496L10.5078 35.8588C12.3083 37.8217 12.3083 41.0156 10.5078 42.9784L9.71711 43.8404ZM19.1694 45.3015L23.1222 49.6108L22.3317 50.4727C20.5311 52.4355 17.6014 52.4355 15.8008 50.4727L11.848 46.1634L12.6387 45.3015C14.4393 43.3386 17.3688 43.3387 19.1694 45.3015ZM29.8274 33.6825L33.7803 37.9918L32.9896 38.8538C31.189 40.8166 28.2593 40.8166 26.4588 38.8538L22.5059 34.5445L23.2966 33.6825C25.0972 31.7197 28.0268 31.7198 29.8274 33.6825ZM40.4853 22.0636L44.4381 26.3729L43.6475 27.2349C41.8469 29.1977 38.9172 29.1976 37.1167 27.2349L33.1639 22.9256L33.9545 22.0636C35.7552 20.1008 38.6848 20.1008 40.4853 22.0636ZM48.7164 8.13934C48.7164 10.4442 46.9963 12.3193 44.8821 12.3193H40.762V7.82778C40.762 5.52295 42.482 3.64782 44.5962 3.64782H48.7163V8.13934H48.7164Z" fill="#898989"/>
</g>
<defs>
<clipPath id="clip0">
<rect width="51.4337" height="56.0712" fill="white" transform="translate(0.296219 0.362549)"/>
</clipPath>
</defs>
</svg>
