<svg width="57" height="43" viewBox="0 0 57 43" fill="none" xmlns="http://www.w3.org/2000/svg">
<path d="M56.4393 22.3494C51.7693 13.9898 44.0922 8.87799 35.0939 7.93071C30.5825 2.23278 16.4268 0.789298 15.8159 0.729833C15.4178 0.688766 15.0173 0.862124 14.7732 1.18617C14.5279 1.50792 14.4674 1.93447 14.6135 2.31207C16.0014 5.91459 17.4232 10.0122 17.7995 11.6886C15.2289 12.8649 12.982 14.1157 11.5335 15.1581C8.39181 10.1319 1.97854 10.0692 1.68538 10.0692C1.0397 10.0692 0.517212 10.5916 0.517212 11.2373C0.517212 18.0054 2.87633 21.4026 4.45396 22.9187C2.87633 24.4347 0.517212 27.8318 0.517212 34.5999C0.517212 35.2456 1.0397 35.7681 1.68538 35.7681C1.97854 35.7681 8.39192 35.7053 11.5335 30.6792C13.458 32.0641 16.7854 33.8153 20.4214 35.2711C19.6179 36.5707 19.2074 38.6377 19.2074 41.6087C19.2074 42.2544 19.7298 42.7769 20.3755 42.7769C20.7229 42.7769 28.6665 42.708 32.6225 38.0675C42.6834 37.8731 51.3467 32.6038 56.4393 23.4878C56.6366 23.1342 56.6366 22.703 56.4393 22.3494ZM17.4813 3.28859C21.4064 3.85674 27.8502 5.25456 31.4917 7.75658C28.134 7.88778 23.8499 9.15725 19.9663 10.7502C19.4492 8.69686 18.3018 5.48891 17.4813 3.28859ZM21.571 40.3733C21.7266 37.124 22.4763 36.2935 22.6865 36.1236C24.9628 36.9226 27.2691 37.5575 29.3633 37.8762C26.8293 39.6592 23.375 40.2141 21.571 40.3733ZM22.5509 36.0806L22.5513 36.0775C22.5545 36.0786 22.5578 36.0794 22.5608 36.0806C22.5543 36.0798 22.5579 36.0816 22.5509 36.0806ZM32.0568 35.7681C25.2305 35.7681 14.0694 30.1636 12.0023 28.0486C11.781 27.8215 11.4787 27.6972 11.1673 27.6972C11.0965 27.6972 11.0247 27.7041 10.954 27.7166C10.5718 27.7874 10.2489 28.0452 10.0949 28.4022C8.5184 32.0582 4.81097 33.0565 2.88421 33.3291C3.24922 26.0089 6.71375 24.0526 6.89171 23.9578C7.2761 23.7605 7.51341 23.3623 7.5191 22.9301C7.5248 22.4931 7.27949 22.0859 6.8928 21.8806C6.73653 21.7974 3.25152 19.8546 2.88421 12.515C4.80977 12.7968 8.53089 13.8098 10.0949 17.4351C10.2489 17.7921 10.5718 18.05 10.954 18.1206C11.3396 18.1925 11.7308 18.0669 12.0023 17.7887C14.0694 15.6737 25.2305 10.0692 32.0568 10.0692C41.2798 10.0692 49.2685 14.7428 54.0734 22.9186C49.2685 31.0944 41.2798 35.7681 32.0568 35.7681Z" fill="#FFE713"/>
<path d="M35.5612 22.9187C35.5612 17.5435 37.6819 14.2512 37.7036 14.2182C38.0572 13.6797 37.9089 12.9565 37.3727 12.6006C36.8366 12.2469 36.1133 12.3918 35.7574 12.9257C35.6536 13.0809 33.2249 16.7951 33.2249 22.9187C33.2249 29.0423 35.6536 32.7565 35.7574 32.9117C35.9821 33.2493 36.3529 33.4319 36.7304 33.4319C36.9529 33.4319 37.1776 33.368 37.3772 33.2356C37.9145 32.8774 38.0594 32.1531 37.7012 31.6157C37.6796 31.584 35.5612 28.3431 35.5612 22.9187Z" fill="#FFE713"/>
<path d="M32.7002 12.6006C32.1629 12.2469 31.4419 12.3918 31.0848 12.9257C30.981 13.0808 28.5524 16.7951 28.5524 22.9186C28.5524 26.1892 29.2573 28.7592 29.8494 30.3391C30.0251 30.808 30.47 31.0977 30.9435 31.0977C31.0793 31.0977 31.2183 31.0737 31.353 31.0236C31.9577 30.7977 32.2634 30.1247 32.0375 29.5201C31.5139 28.1204 30.8887 25.8388 30.8887 22.9186C30.8887 17.5434 33.0094 14.2511 33.0311 14.2181C33.3846 13.6797 33.2363 12.9565 32.7002 12.6006Z" fill="#FFE713"/>
<path d="M42.5698 21.7503C43.8601 21.7503 44.9061 20.7044 44.9061 19.4141C44.9061 18.1238 43.8601 17.0779 42.5698 17.0779C41.2796 17.0779 40.2336 18.1238 40.2336 19.4141C40.2336 20.7044 41.2796 21.7503 42.5698 21.7503Z" fill="#FFE713"/>
</svg>
