<svg width="55" height="55" viewBox="0 0 55 55" fill="none" xmlns="http://www.w3.org/2000/svg">
<path d="M12.1023 16.0174C10.5458 18.1988 9.71055 20.8124 9.71362 23.4922C9.71362 24.7913 10.2297 26.0373 11.1483 26.9559C12.067 27.8745 13.3129 28.3906 14.6121 28.3906C15.9112 28.3906 17.1571 27.8745 18.0758 26.9559C18.9944 26.0373 19.5105 24.7913 19.5105 23.4922C19.5114 22.6657 19.8402 21.8734 20.4245 21.289C21.0089 20.7047 21.8012 20.3759 22.6277 20.375C23.8492 20.3734 25.0262 19.9161 25.9282 19.0924C26.8303 18.2688 27.3926 17.1382 27.505 15.9219H29.0944C28.6465 17.3639 28.418 18.865 28.4167 20.375C28.4167 22.5009 29.2612 24.5397 30.7645 26.0429C32.2677 27.5461 34.3065 28.3906 36.4324 28.3906C38.5582 28.3906 40.597 27.5461 42.1003 26.0429C43.6035 24.5397 44.448 22.5009 44.448 20.375C44.4424 18.0255 43.8927 15.7092 42.8419 13.6077C41.7912 11.5062 40.268 9.6767 38.3917 8.2625L36.9667 7.19375C36.8126 7.07813 36.6251 7.01562 36.4324 7.01562C36.2397 7.01562 36.0522 7.07813 35.898 7.19375L34.473 8.2625C32.4364 9.79553 30.8191 11.8172 29.7706 14.1406H27.3394C27.0475 13.1156 26.4298 12.2136 25.5798 11.5708C24.7297 10.9281 23.6934 10.5796 22.6277 10.5781C19.3138 10.5757 16.1268 11.8518 13.7303 14.1406H13.2761C11.2388 14.1423 9.26331 14.8408 7.67776 16.1202L8.79817 17.5048C9.75071 16.7289 10.8899 16.2161 12.1023 16.0174ZM35.5417 9.6875L36.4324 9.01953L37.323 9.6875C38.9785 10.9353 40.3225 12.5496 41.2496 14.4039C42.1768 16.2581 42.6618 18.3019 42.6667 20.375C42.6667 22.0285 42.0099 23.6142 40.8407 24.7834C39.6716 25.9525 38.0858 26.6094 36.4324 26.6094C34.7789 26.6094 33.1932 25.9525 32.024 24.7834C30.8548 23.6142 30.198 22.0285 30.198 20.375C30.2029 18.3019 30.688 16.2581 31.6151 14.4039C32.5422 12.5496 33.8862 10.9353 35.5417 9.6875ZM22.6277 12.3594C23.4544 12.3594 24.2473 12.6878 24.8319 13.2724C25.4165 13.857 25.7449 14.6498 25.7449 15.4766C25.7449 16.3033 25.4165 17.0962 24.8319 17.6807C24.2473 18.2653 23.4544 18.5938 22.6277 18.5938C21.329 18.5952 20.0839 19.1117 19.1656 20.0301C18.2472 20.9484 17.7307 22.1935 17.7292 23.4922C17.7292 24.3189 17.4008 25.1118 16.8162 25.6964C16.2317 26.281 15.4388 26.6094 14.6121 26.6094C13.7853 26.6094 12.9925 26.281 12.4079 25.6964C11.8233 25.1118 11.4949 24.3189 11.4949 23.4922C11.4982 20.5406 12.6722 17.7109 14.7593 15.6238C16.8464 13.5367 19.6761 12.3627 22.6277 12.3594Z" fill="#898989"/>
<path d="M37.323 11.4688H35.5417V24.8281H37.323V11.4688Z" fill="#898989"/>
<path d="M33.7605 15.9219H31.9792V22.1562H33.7605V15.9219Z" fill="#898989"/>
<path d="M40.8855 15.9219H39.1042V22.1562H40.8855V15.9219Z" fill="#898989"/>
<path d="M52.8012 43.2274C52.345 42.7598 51.7999 42.3882 51.198 42.1345C50.5961 41.8808 49.9495 41.7501 49.2962 41.7501C48.643 41.7501 47.9964 41.8808 47.3944 42.1345C46.7925 42.3882 46.2474 42.7598 45.7913 43.2274C45.5011 43.5263 45.1538 43.7638 44.7701 43.926C44.3863 44.0881 43.974 44.1715 43.5574 44.1712C43.4297 44.1709 43.3022 44.1629 43.1755 44.1471C48.0206 38.4791 50.6827 31.2673 50.6824 23.8107V23.047C50.6815 21.4122 50.2313 19.8092 49.3809 18.4131C48.5305 17.017 47.3127 15.8815 45.8605 15.1309L45.0426 16.7131C46.4622 17.4455 47.5945 18.6338 48.2578 20.087C48.9211 21.5402 49.0768 23.1742 48.7001 24.7266C48.3233 26.2789 47.4359 27.6597 46.1802 28.6472C44.9246 29.6347 43.3736 30.1717 41.7761 30.172H28.304C28.379 29.881 28.4169 29.5818 28.4167 29.2813V25.7188C28.4168 25.6019 28.3937 25.4861 28.349 25.378C28.3042 25.2699 28.2386 25.1718 28.1559 25.0891L25.484 22.4172C25.4013 22.3345 25.3031 22.2689 25.1951 22.2241C25.087 22.1794 24.9712 22.1563 24.8542 22.1563C23.9097 22.1574 23.0042 22.5331 22.3364 23.2009C21.6685 23.8688 21.2928 24.7743 21.2917 25.7188V29.2813C21.2916 29.5818 21.3295 29.881 21.4045 30.172H13.2761C11.3871 30.1698 9.57607 29.4185 8.24033 28.0828C6.90459 26.747 6.15324 24.936 6.15112 23.047C6.14449 21.4161 6.70397 19.8334 7.7341 18.569L6.3494 17.4486C5.07005 19.0342 4.37155 21.0096 4.36987 23.047V23.8107C4.36982 32.1117 7.66732 40.0729 13.537 45.9427C13.7041 46.1096 13.9306 46.2033 14.1667 46.2032H31.0886V44.422H14.5388C10.3956 40.1721 7.62797 34.7731 6.59644 28.9281C7.43046 29.8786 8.45776 30.6401 9.60967 31.1618C10.7616 31.6835 12.0116 31.9533 13.2761 31.9532H22.5017C23.151 32.5271 23.9877 32.8438 24.8542 32.8438C25.7208 32.8438 26.5575 32.5271 27.2068 31.9532H41.7761C43.0407 31.9534 44.2906 31.6836 45.4426 31.162C46.5945 30.6403 47.6218 29.8788 48.4558 28.9283C47.5094 34.296 45.0959 39.2971 41.4827 43.3778C41.4283 43.3295 41.3749 43.2798 41.3234 43.2274C40.8672 42.7598 40.3221 42.3882 39.7202 42.1345C39.1183 41.8808 38.4716 41.7501 37.8184 41.7501C37.1652 41.7501 36.5186 41.8808 35.9166 42.1345C35.3147 42.3882 34.7696 42.7598 34.3135 43.2274C33.39 44.177 32.8734 45.4493 32.8734 46.7739C32.8734 48.0984 33.39 49.3708 34.3135 50.3203C36.3472 52.4156 39.0328 53.7571 41.9295 54.1247C44.8262 54.4923 47.7618 53.8641 50.2544 52.3432L49.3288 50.8213C44.8948 53.5177 39.2425 52.7986 35.5845 49.0725C34.986 48.457 34.6512 47.6324 34.6512 46.7739C34.6512 45.9154 34.986 45.0908 35.5845 44.4753C35.8748 44.1766 36.2221 43.9391 36.6058 43.777C36.9895 43.6149 37.4019 43.5313 37.8184 43.5313C38.235 43.5313 38.6473 43.6149 39.031 43.777C39.4147 43.9391 39.762 44.1766 40.0523 44.4753C40.5085 44.9428 41.0536 45.3144 41.6555 45.5681C42.2574 45.8218 42.904 45.9525 43.5573 45.9525C44.2105 45.9525 44.8571 45.8218 45.459 45.5681C46.061 45.3144 46.6061 44.9428 47.0622 44.4753C47.3525 44.1766 47.6998 43.9391 48.0835 43.777C48.4672 43.6149 48.8796 43.5313 49.2961 43.5313C49.7127 43.5313 50.125 43.6149 50.5087 43.777C50.8924 43.9391 51.2397 44.1766 51.53 44.4753C52.1285 45.0908 52.4633 45.9154 52.4633 46.7739C52.4633 47.6324 52.1285 48.457 51.53 49.0725C51.2203 49.3879 50.8927 49.6853 50.5489 49.9631L51.6677 51.3491C52.065 51.0282 52.4434 50.6846 52.8011 50.3201C53.7244 49.3706 54.241 48.0983 54.2411 46.7738C54.2411 45.4493 53.7245 44.177 52.8012 43.2274ZM26.6355 29.2813C26.6355 29.7537 26.4478 30.2068 26.1138 30.5409C25.7797 30.8749 25.3267 31.0626 24.8542 31.0626C24.3818 31.0626 23.9288 30.8749 23.5947 30.5409C23.2607 30.2068 23.073 29.7537 23.073 29.2813V25.7188C23.0735 25.305 23.2179 24.9042 23.4814 24.5851C23.7449 24.266 24.1111 24.0484 24.5174 23.9695L26.6355 26.0877V29.2813Z" fill="#898989"/>
<path d="M7.93237 45.3125H4.36987C4.25291 45.3125 4.1371 45.3355 4.02904 45.3803C3.92098 45.425 3.8228 45.4906 3.74009 45.5733L1.06821 48.2452C0.985514 48.3279 0.919912 48.4261 0.875157 48.5342C0.830402 48.6422 0.807369 48.758 0.807373 48.875C0.808434 49.8195 1.18411 50.725 1.85198 51.3929C2.51985 52.0608 3.42536 52.4364 4.36987 52.4375H7.93237C8.87721 52.4375 9.78334 52.0622 10.4514 51.3941C11.1195 50.726 11.4949 49.8198 11.4949 48.875C11.4949 47.9302 11.1195 47.024 10.4514 46.3559C9.78334 45.6878 8.87721 45.3125 7.93237 45.3125ZM7.93237 50.6562H4.36987C3.95603 50.6557 3.55525 50.5114 3.23613 50.2479C2.91701 49.9844 2.69941 49.6181 2.62057 49.2119L4.7387 47.0938H7.93237C8.40479 47.0938 8.85786 47.2814 9.19191 47.6155C9.52596 47.9495 9.71362 48.4026 9.71362 48.875C9.71362 49.3474 9.52596 49.8005 9.19191 50.1345C8.85786 50.4686 8.40479 50.6562 7.93237 50.6562Z" fill="#898989"/>
<path d="M19.0652 47.9844H16.3933C15.5666 47.9844 14.7737 48.3128 14.1891 48.8974C13.6045 49.482 13.2761 50.2748 13.2761 51.1016C13.2761 51.9283 13.6045 52.7212 14.1891 53.3057C14.7737 53.8903 15.5666 54.2188 16.3933 54.2188H19.0652C19.8919 54.2188 20.6848 53.8903 21.2694 53.3057C21.854 52.7212 22.1824 51.9283 22.1824 51.1016C22.1824 50.2748 21.854 49.482 21.2694 48.8974C20.6848 48.3128 19.8919 47.9844 19.0652 47.9844ZM19.0652 52.4375H16.3933C16.039 52.4375 15.6992 52.2968 15.4487 52.0462C15.1981 51.7957 15.0574 51.4559 15.0574 51.1016C15.0574 50.7472 15.1981 50.4074 15.4487 50.1569C15.6992 49.9064 16.039 49.7656 16.3933 49.7656H19.0652C19.4195 49.7656 19.7593 49.9064 20.0098 50.1569C20.2604 50.4074 20.4011 50.7472 20.4011 51.1016C20.4011 51.4559 20.2604 51.7957 20.0098 52.0462C19.7593 52.2968 19.4195 52.4375 19.0652 52.4375Z" fill="#898989"/>
<path d="M25.8976 8.59929C26.5657 9.26739 27.4719 9.64272 28.4167 9.64272C29.3615 9.64272 30.2677 9.26739 30.9358 8.59929C31.6039 7.93118 31.9792 7.02504 31.9792 6.08021C31.9792 5.13537 31.6039 4.22923 30.9358 3.56113L29.4602 2.0857C29.0477 1.67084 28.557 1.34194 28.0164 1.11804C27.4759 0.894129 26.8964 0.779663 26.3113 0.781267H24.0082C23.7719 0.781267 23.5454 0.8751 23.3784 1.04212C23.2114 1.20915 23.1175 1.43568 23.1175 1.67189V3.97494C23.1159 4.55996 23.2304 5.1395 23.4543 5.68C23.6782 6.22049 24.007 6.71121 24.4218 7.12374L25.8976 8.59929ZM24.8988 2.56252H26.3111C26.6621 2.56154 27.0099 2.63021 27.3342 2.76455C27.6585 2.8989 27.9529 3.09624 28.2004 3.34515L29.676 4.82059C29.8414 4.98599 29.9726 5.18236 30.0621 5.39848C30.1517 5.61459 30.1977 5.84623 30.1977 6.08015C30.1977 6.31408 30.1517 6.54571 30.0621 6.76183C29.9726 6.97794 29.8414 7.17431 29.676 7.33972C29.3419 7.67375 28.8889 7.86141 28.4165 7.86141C27.9441 7.86141 27.491 7.67375 27.157 7.33972L25.6815 5.86406C25.4326 5.61659 25.2353 5.32219 25.1009 4.99792C24.9665 4.67365 24.8978 4.32594 24.8988 3.97494V2.56252Z" fill="#898989"/>
<path d="M16.3933 10.6846C16.8027 10.6853 17.2081 10.6052 17.5864 10.4488C17.9647 10.2923 18.3083 10.0627 18.5976 9.77314L20.4868 7.8839C20.7763 7.59443 21.0059 7.25077 21.1626 6.87256C21.3193 6.49434 21.3999 6.08898 21.3999 5.6796C21.3999 5.27023 21.3193 4.86486 21.1626 4.48665C21.0059 4.10843 20.7763 3.76478 20.4868 3.47531C20.1974 3.18583 19.8537 2.95621 19.4755 2.79955C19.0973 2.64289 18.6919 2.56226 18.2826 2.56226C17.8732 2.56226 17.4678 2.64289 17.0896 2.79955C16.7114 2.95621 16.3677 3.18583 16.0783 3.47531L14.189 5.36466C13.7529 5.80041 13.4558 6.35578 13.3354 6.96045C13.215 7.56513 13.2767 8.19193 13.5127 8.76151C13.7487 9.3311 14.1484 9.81786 14.6612 10.1602C15.174 10.5025 15.7768 10.685 16.3933 10.6846ZM15.4487 6.62422L17.3379 4.73498C17.4619 4.61037 17.6092 4.51144 17.7714 4.44385C17.9336 4.37626 18.1076 4.34134 18.2833 4.3411C18.4591 4.34085 18.6331 4.37529 18.7955 4.44243C18.958 4.50956 19.1055 4.60809 19.2298 4.73236C19.3541 4.85662 19.4526 5.00419 19.5198 5.1666C19.5869 5.329 19.6213 5.50307 19.6211 5.67881C19.6209 5.85455 19.586 6.02852 19.5184 6.19075C19.4508 6.35298 19.3519 6.50029 19.2273 6.62422L17.3379 8.51346C17.0867 8.76063 16.748 8.89851 16.3956 8.89707C16.0431 8.89564 15.7056 8.755 15.4564 8.5058C15.2072 8.25659 15.0665 7.91901 15.0651 7.56659C15.0636 7.21416 15.2015 6.87545 15.4487 6.62422Z" fill="#898989"/>
</svg>
