<svg width="53" height="57" viewBox="0 0 53 57" fill="none" xmlns="http://www.w3.org/2000/svg">
<path d="M36.2017 40.5276C36.1705 40.1704 35.9611 39.84 35.65 39.6605L31.6814 37.369V32.7826C31.6814 32.3848 31.469 32.017 31.1242 31.8182L26.5966 29.2056C26.2522 29.0068 25.8282 29.0066 25.4838 29.2052L20.9548 31.8185C20.6104 32.0174 20.3982 32.385 20.3982 32.7826V37.3688L16.4271 39.6602C16.0823 39.859 15.8699 40.2267 15.8699 40.6246V45.8537C15.8699 46.2516 16.0823 46.6193 16.4271 46.8181L20.9548 49.4307C21.1271 49.5302 21.3192 49.5798 21.5115 49.5798C21.7037 49.5798 21.8959 49.5302 22.0681 49.4307L26.0397 47.1391L30.0119 49.431C30.184 49.5303 30.3761 49.5798 30.568 49.5798C30.7603 49.5798 30.9524 49.5302 31.1247 49.4307L35.6499 46.8178C35.9898 46.6216 36.2065 46.2459 36.2065 45.8537V40.6246C36.2066 40.5928 36.2044 40.5593 36.2017 40.5276ZM22.6248 33.4255L26.0394 31.4551L29.4548 33.4259V37.3688L26.0399 39.3393L22.6249 37.369V33.4255H22.6248ZM21.5115 47.1811L18.0965 45.2105V41.2679L21.5115 39.2971L24.9266 41.2676V45.2108L21.5115 47.1811ZM30.5678 47.1812L27.1531 45.2109V41.2673L30.5678 39.297L33.98 41.2673V45.2109L30.5678 47.1812Z" fill="#898989"/>
<path d="M51.3531 24.6186C52.3339 23.123 52.2004 21.0949 51.0051 19.3256L46.153 12.1416V7.86102C47.8241 7.37718 49.0499 5.83418 49.0499 4.00928C49.0498 1.79797 47.2509 -0.000976562 45.0398 -0.000976562H7.0367C4.8255 -0.000976562 3.02655 1.79797 3.02655 4.00917C3.02655 5.83406 4.25238 7.37718 5.92342 7.8609V12.1414L1.07107 19.3259C-0.123036 21.0959 -0.254849 23.1245 0.726731 24.62C0.822362 24.7657 0.928124 24.9016 1.0399 25.0305C0.402655 27.6336 0.0791359 30.324 0.0791359 33.0383C0.0791359 37.7661 1.02476 42.2848 2.88973 46.4691C4.67398 50.4721 7.28195 54.0201 10.4318 56.7296C10.6337 56.9034 10.8913 56.9989 11.1577 56.9989H40.9215C41.188 56.9989 41.4455 56.9034 41.6475 56.7296C44.797 54.0204 47.4044 50.4723 49.188 46.4688C51.0518 42.2852 51.9969 37.7665 51.9969 33.0383C51.9969 30.3148 51.6738 27.6257 51.0376 25.0339C51.1508 24.904 51.2564 24.7657 51.3531 24.6186ZM5.25311 4.00917C5.25311 3.02581 6.05322 2.22559 7.0367 2.22559H45.0397C46.0231 2.22559 46.8232 3.02581 46.8232 4.00917C46.8232 4.99254 46.0231 5.79276 45.0397 5.79276H31.0319C30.4172 5.79276 29.9186 6.29129 29.9186 6.90604C29.9186 7.5208 30.4172 8.01932 31.0319 8.01932H43.9264V11.3689H8.14998V8.01944H21.035C21.6497 8.01944 22.1483 7.52091 22.1483 6.90615C22.1483 6.2914 21.6497 5.79287 21.035 5.79287H7.0367C6.05322 5.79287 5.25311 4.99265 5.25311 4.00917ZM40.5037 54.7725H11.576C5.67905 49.5329 2.30581 41.6373 2.30581 33.0384C2.30581 30.7412 2.55396 28.4633 3.0428 26.2484C3.63752 26.3961 4.28222 26.417 4.94217 26.2937C5.93856 26.1061 6.71051 25.5407 7.36712 24.841C8.43565 25.796 9.73162 26.3249 11.0661 26.3248H11.0681C12.4189 26.3242 13.7301 25.7816 14.8047 24.8038C15.8832 25.8013 17.1782 26.3385 18.5501 26.339H18.552C19.9254 26.3389 21.2223 25.8011 22.3026 24.8019C23.3744 25.7724 24.6857 26.3106 26.0399 26.3106C27.3938 26.3106 28.7048 25.7726 29.7767 24.8024C30.8552 25.8007 32.1511 26.3385 33.5234 26.339H33.5253C34.8979 26.3389 36.1945 25.8017 37.2744 24.8034C38.3496 25.7819 39.6617 26.3248 41.0133 26.3248C42.3475 26.3248 43.6435 25.7955 44.711 24.8403C45.3691 25.5403 46.1415 26.1061 47.1364 26.2942C47.4274 26.3484 47.7155 26.3749 47.9979 26.3749C48.3552 26.3749 48.7027 26.3316 49.0348 26.2491C49.5227 28.4553 49.7705 30.7329 49.7705 33.0384C49.7707 41.639 46.3986 49.5345 40.5037 54.7725ZM49.4911 23.3976C49.0995 23.9948 48.3723 24.26 47.5468 24.1058C46.9724 23.9972 46.4401 23.5415 45.6481 22.4797C45.4379 22.1981 45.1072 22.0321 44.7557 22.0321C44.7555 22.0321 44.7553 22.0321 44.7551 22.0321C44.4035 22.0322 44.0727 22.1985 43.8627 22.4805C43.0858 23.5237 42.0739 24.0982 41.013 24.0982C39.9522 24.0982 38.9401 23.5237 38.1633 22.4805C37.9533 22.1985 37.6225 22.0323 37.271 22.0321C37.2707 22.0321 37.2705 22.0321 37.2703 22.0321C36.9191 22.0321 36.5882 22.198 36.378 22.4796C35.5921 23.5327 34.579 24.1126 33.525 24.1126C33.5247 24.1126 33.5243 24.1126 33.524 24.1126C32.4707 24.1121 31.4587 23.5325 30.6747 22.4802C30.4645 22.1983 30.1336 22.0322 29.7819 22.0322C29.4302 22.0322 29.0993 22.1983 28.8892 22.4803C28.1186 23.5145 27.1065 24.0842 26.0393 24.0842C24.9721 24.0842 23.96 23.5145 23.1894 22.4803C22.9794 22.1984 22.6487 22.0323 22.297 22.0322C22.297 22.0322 22.2968 22.0322 22.2967 22.0322C21.9453 22.0322 21.6146 22.198 21.4044 22.4797C20.6184 23.5328 19.6053 24.1127 18.5513 24.1127C18.5509 24.1127 18.5506 24.1127 18.5503 24.1127C17.4969 24.1123 16.485 23.5326 15.7009 22.4803C15.4907 22.1983 15.1598 22.0322 14.808 22.0323C14.4562 22.0324 14.1252 22.1986 13.9151 22.4807C13.1387 23.5235 12.127 24.098 11.0663 24.0984C11.0659 24.0984 11.0655 24.0984 11.0652 24.0984C10.0037 24.0984 8.99062 23.5237 8.21232 22.4801C8.00213 22.1983 7.67138 22.0323 7.3198 22.0323C7.31947 22.0323 7.31925 22.0323 7.31891 22.0323C6.96712 22.0326 6.63614 22.1991 6.42629 22.4814C5.63808 23.5418 5.10627 23.9972 4.53115 24.1056C3.70609 24.2591 2.97912 23.9954 2.58725 23.3985C2.09985 22.656 2.22276 21.5991 2.91566 20.5718L7.62729 13.5956H15.0544L12.4761 17.2386C12.1208 17.7406 12.2397 18.4353 12.7416 18.7904C12.937 18.9287 13.1614 18.9952 13.3838 18.9952C13.7329 18.9952 14.0766 18.8314 14.2935 18.5249L17.7823 13.5956H24.9256V17.8818C24.9256 18.4965 25.4241 18.9951 26.0388 18.9951C26.6536 18.9951 27.1521 18.4965 27.1521 17.8818V13.5956H34.2954L37.7842 18.5249C38.001 18.8314 38.3448 18.9952 38.6938 18.9952C38.9162 18.9952 39.1407 18.9287 39.3361 18.7904C39.838 18.4353 39.9569 17.7405 39.6016 17.2386L37.0233 13.5956H44.4473L49.159 20.572C49.854 21.599 49.9777 22.6555 49.4911 23.3976Z" fill="#898989"/>
<path d="M26.0335 8.01953H26.0399C26.6546 8.01953 27.15 7.521 27.15 6.90625C27.15 6.2915 26.6484 5.79297 26.0336 5.79297C25.4189 5.79297 24.9203 6.2915 24.9203 6.90625C24.9203 7.521 25.4188 8.01953 26.0335 8.01953Z" fill="#898989"/>
</svg>
