<svg width="15" height="14" viewBox="0 0 15 14" fill="none" xmlns="http://www.w3.org/2000/svg">
<g clip-path="url(#clip0)">
<path d="M13.9268 12.0322H13.6533V7.09058C13.6533 6.31744 13.0243 5.68845 12.2512 5.68845H11.7939C11.643 5.68845 11.5205 5.81087 11.5205 5.96189C11.5205 6.11291 11.643 6.23532 11.7939 6.23532H12.2512C12.7228 6.23532 13.1064 6.61898 13.1064 7.09058V7.40066H12.7234C12.2352 7.40066 11.838 7.7978 11.838 8.28599V9.30105C11.838 9.5679 11.6211 9.78908 11.3545 9.79414C11.2249 9.79597 11.1029 9.74648 11.0077 9.6531C10.9085 9.55576 10.8516 9.42114 10.8516 9.28377V8.66711C10.8516 8.15939 10.4385 7.74631 9.93082 7.74631C9.42311 7.74631 9.01002 8.15936 9.01002 8.66711V9.51767C9.01002 9.61148 8.97284 9.69904 8.9053 9.76423C8.83778 9.82936 8.74873 9.86367 8.65469 9.86004C8.47283 9.85358 8.32484 9.69335 8.32484 9.50293V9.01796C8.32484 8.74912 8.21831 8.49818 8.0248 8.31148C7.8314 8.1248 7.57647 8.02765 7.30757 8.03681C6.777 8.05568 6.36134 8.49411 6.36134 9.03491V9.24765C6.36134 9.51449 6.14443 9.73568 5.8778 9.74071C5.7498 9.74339 5.62623 9.69308 5.53108 9.5997C5.43187 9.50235 5.37497 9.36777 5.37497 9.23036V8.51442C5.37497 7.99292 4.95071 7.56866 4.42921 7.56866C3.90771 7.56866 3.48344 7.99292 3.48344 8.51442V9.89829C3.48344 10.1308 3.29428 10.32 3.06177 10.32C2.82924 10.32 2.64008 10.1308 2.64008 9.89829V8.29012C2.64008 7.79966 2.24105 7.40066 1.75061 7.40066H1.29395V7.09058C1.29395 6.61898 1.67761 6.23532 2.1492 6.23532H9.33301C9.484 6.23532 9.60645 6.11291 9.60645 5.96189C9.60645 5.81087 9.484 5.68845 9.33301 5.68845H8.44171V2.41127C8.44171 2.07716 8.25432 1.78603 7.97914 1.63734C8.18758 1.28876 8.14197 0.829492 7.84203 0.529531L7.39354 0.081039C7.28674 -0.0257109 7.11365 -0.0257109 7.00682 0.081039L6.55833 0.529531C6.25839 0.829492 6.21278 1.28878 6.42123 1.63734C6.14604 1.78603 5.95865 2.07716 5.95865 2.41127C5.95865 2.84341 6.27207 3.20372 6.68356 3.27678V5.68845H2.1492C1.37606 5.68845 0.74707 6.31744 0.74707 7.09058V12.0322H0.473633C0.322613 12.0322 0.200195 12.1546 0.200195 12.3056C0.200195 13.2404 0.960707 14.0009 1.89551 14.0009H12.5049C13.4397 14.0009 14.2002 13.2404 14.2002 12.3056C14.2002 12.1546 14.0778 12.0322 13.9268 12.0322ZM6.94505 0.916254L7.2002 0.661109L7.45534 0.916254C7.59605 1.05694 7.59605 1.28586 7.45534 1.42652C7.3872 1.49466 7.29658 1.5322 7.2002 1.5322C7.10381 1.5322 7.01319 1.49466 6.94505 1.42652C6.80434 1.28583 6.80434 1.05691 6.94505 0.916254ZM6.957 2.74347H6.83775C6.65458 2.74347 6.50555 2.59445 6.50555 2.4113C6.50555 2.22812 6.65458 2.0791 6.83775 2.0791H7.56266C7.74581 2.0791 7.89484 2.22812 7.89484 2.4113V5.68845H7.23044V3.01691C7.23044 2.86589 7.10802 2.74347 6.957 2.74347ZM1.29395 7.94753H1.75067C1.93959 7.94753 2.09326 8.1012 2.09326 8.29012V9.89829C2.09326 10.4323 2.52778 10.8668 3.06183 10.8668C3.59588 10.8668 4.03037 10.4323 4.03037 9.89829V8.51442C4.03037 8.29447 4.20931 8.11553 4.42926 8.11553C4.64921 8.11553 4.82815 8.29447 4.82815 8.51442V9.23036C4.82815 9.51362 4.94477 9.7905 5.1481 9.99003C5.34891 10.1871 5.61095 10.2923 5.88819 10.2875C6.45062 10.2768 6.90825 9.81038 6.90825 9.24765V9.03491C6.90825 8.79412 7.0961 8.59156 7.32699 8.58336C7.44651 8.57868 7.55938 8.62227 7.64505 8.70496C7.73077 8.78767 7.77797 8.89885 7.77797 9.01793V9.5029C7.77797 9.99252 8.15452 10.3895 8.63531 10.4066C8.87891 10.4147 9.10985 10.3268 9.2851 10.1577C9.4604 9.98852 9.55695 9.76122 9.55695 9.51767V8.66711C9.55695 8.46094 9.72471 8.29319 9.93088 8.29319C10.1371 8.29319 10.3048 8.46094 10.3048 8.66711V9.28377C10.3048 9.56702 10.4214 9.8439 10.6247 10.0434C10.8256 10.2405 11.0875 10.3465 11.3648 10.3409C11.9273 10.3302 12.3849 9.86376 12.3849 9.30105V8.28599C12.3849 8.09937 12.5367 7.94753 12.7234 7.94753H13.1064V12.0322H1.29395V7.94753ZM12.5049 13.4541H1.89551C1.35645 13.4541 0.90293 13.0808 0.779965 12.5791H13.6204C13.4975 13.0808 13.0439 13.4541 12.5049 13.4541Z" fill="#D1D1D1"/>
<path d="M3.7002 2.95344C3.85121 2.95344 3.97363 2.831 3.97363 2.68V2.31543C3.97363 2.16444 3.85121 2.04199 3.7002 2.04199C3.5492 2.04199 3.42676 2.16444 3.42676 2.31543V2.68C3.42676 2.831 3.5492 2.95344 3.7002 2.95344Z" fill="#D1D1D1"/>
<path d="M3.7002 4.77573C3.85121 4.77573 3.97363 4.65329 3.97363 4.5023V4.1377C3.97363 3.9867 3.85121 3.86426 3.7002 3.86426C3.5492 3.86426 3.42676 3.9867 3.42676 4.1377V4.5023C3.42676 4.65329 3.5492 4.77573 3.7002 4.77573Z" fill="#D1D1D1"/>
<path d="M4.42937 3.68262H4.79394C4.94496 3.68262 5.06738 3.56017 5.06738 3.40918C5.06738 3.25819 4.94496 3.13574 4.79394 3.13574H4.42937C4.27835 3.13574 4.15593 3.25819 4.15593 3.40918C4.15593 3.56017 4.27837 3.68262 4.42937 3.68262Z" fill="#D1D1D1"/>
<path d="M2.60645 3.68262H2.97102C3.12201 3.68262 3.24446 3.56017 3.24446 3.40918C3.24446 3.25819 3.12201 3.13574 2.97102 3.13574H2.60645C2.45545 3.13574 2.33301 3.25819 2.33301 3.40918C2.33301 3.56017 2.45545 3.68262 2.60645 3.68262Z" fill="#D1D1D1"/>
<path d="M10.7002 0.911449C10.8512 0.911449 10.9736 0.789004 10.9736 0.638012V0.273438C10.9736 0.122418 10.8512 0 10.7002 0C10.5492 0 10.4268 0.122418 10.4268 0.273438V0.638012C10.4268 0.789004 10.5492 0.911449 10.7002 0.911449Z" fill="#D1D1D1"/>
<path d="M10.7002 2.73469C10.8512 2.73469 10.9736 2.61225 10.9736 2.46125V2.09668C10.9736 1.94569 10.8512 1.82324 10.7002 1.82324C10.5492 1.82324 10.4268 1.94569 10.4268 2.09668V2.46125C10.4268 2.61225 10.5492 2.73469 10.7002 2.73469Z" fill="#D1D1D1"/>
<path d="M11.4294 1.64062H11.7939C11.9449 1.64062 12.0674 1.51818 12.0674 1.36719C12.0674 1.2162 11.9449 1.09375 11.7939 1.09375H11.4294C11.2784 1.09375 11.1559 1.2162 11.1559 1.36719C11.1559 1.51818 11.2784 1.64062 11.4294 1.64062Z" fill="#D1D1D1"/>
<path d="M9.60645 1.64062H9.97102C10.122 1.64062 10.2445 1.51818 10.2445 1.36719C10.2445 1.2162 10.122 1.09375 9.97102 1.09375H9.60645C9.45545 1.09375 9.33301 1.2162 9.33301 1.36719C9.33301 1.51818 9.45545 1.64062 9.60645 1.64062Z" fill="#D1D1D1"/>
<path d="M10.5635 6.23438C10.6354 6.23438 10.7059 6.20512 10.7568 6.15423C10.8077 6.1034 10.8369 6.03285 10.8369 5.96094C10.8369 5.88902 10.8077 5.81848 10.7568 5.76762C10.7059 5.71676 10.6354 5.6875 10.5635 5.6875C10.4916 5.6875 10.421 5.71673 10.3702 5.76762C10.3193 5.81848 10.29 5.88902 10.29 5.96094C10.29 6.03285 10.3193 6.1034 10.3702 6.15423C10.421 6.20512 10.4916 6.23438 10.5635 6.23438Z" fill="#D1D1D1"/>
</g>
<defs>
<clipPath id="clip0">
<rect width="14" height="14" fill="white" transform="translate(0.200195)"/>
</clipPath>
</defs>
</svg>
