<svg width="153" height="128" viewBox="0 0 153 128" fill="none" xmlns="http://www.w3.org/2000/svg">
<g clip-path="url(#clip0)">
<path d="M126.17 2.99902L115.071 116.538C114.516 121.495 109.337 125.522 103.417 125.522H49.9579C44.0385 125.522 38.859 121.495 38.3041 116.538L27.2052 2.99902H126.17Z" fill="#ECE6E6" fill-opacity="0.9"/>
<path d="M51.6227 116.693L40.5239 3.1543H27.3902L38.4891 116.693C39.044 121.65 44.2235 125.677 50.1429 125.677H63.2765C57.1722 125.677 51.9927 121.65 51.6227 116.693Z" fill="white"/>
<path d="M110.414 109.319L116.055 38.8196C102.385 42.817 88.4976 42.4536 76.5632 39.0013C59.8549 33.7321 37.505 41 37.505 41L43.5807 109.319H110.414Z" fill="#50C1E9"/>
<path d="M70.6758 42.6531C57.5421 41.1041 43.2986 45.5961 43.2986 45.5961L48.478 103.837H60.5018L55.1374 45.751C55.1374 45.751 61.9817 43.5824 70.6758 42.6531Z" fill="#87D3E8"/>
<path d="M126.17 0.675781H27.3902C26.6503 0.675781 25.9104 0.985573 25.3554 1.45026C24.8005 1.91495 24.6155 2.53453 24.6155 3.30901L35.7144 116.848C36.2693 123.044 42.7436 128 50.1429 128H103.602C111.002 128 117.476 123.044 118.031 116.848L129.13 3.30901C129.13 2.68943 128.945 2.06985 128.39 1.45026C127.835 0.985573 127.095 0.675781 126.17 0.675781ZM103.602 123.199H49.9579C45.7033 123.199 41.6338 120.256 41.2638 116.538H112.297C111.742 120.256 107.857 123.199 103.602 123.199ZM112.851 111.891H40.7088L30.3499 5.47756H123.21L112.851 111.891Z" fill="#56596A"/>
</g>
<defs>
<clipPath id="clip0">
<rect width="152.054" height="127.325" fill="white" transform="translate(0.845398 0.675781)"/>
</clipPath>
</defs>
</svg>
