<svg width="36" height="36" viewBox="0 0 36 36" fill="none" xmlns="http://www.w3.org/2000/svg">
<g clip-path="url(#clip0)">
<path d="M18.0007 35.9999C27.9414 35.9999 35.9999 27.9414 35.9999 18.0007C35.9999 8.05999 27.9414 0.00146484 18.0007 0.00146484C8.06002 0.00146484 0.00149536 8.05999 0.00149536 18.0007C0.00149536 27.9414 8.06002 35.9999 18.0007 35.9999Z" fill="white"/>
<mask id="mask0" mask-type="alpha" maskUnits="userSpaceOnUse" x="0" y="0" width="36" height="36">
<path d="M18.0007 35.9999C27.9414 35.9999 35.9999 27.9414 35.9999 18.0007C35.9999 8.05999 27.9414 0.00146484 18.0007 0.00146484C8.06002 0.00146484 0.00149536 8.05999 0.00149536 18.0007C0.00149536 27.9414 8.06002 35.9999 18.0007 35.9999Z" fill="white"/>
</mask>
<g mask="url(#mask0)">
<path d="M1 24H35V27H1V24Z" fill="#FF0000"/>
<rect x="4" y="30" width="28" height="3" fill="#FF0000"/>
<rect x="-2" y="18" width="39" height="3" fill="#FF0000"/>
<rect x="-2" y="12" width="40" height="3" fill="#FF0000"/>
<rect x="-2" y="6" width="40" height="3" fill="#FF0000"/>
<rect x="-2" width="40" height="3" fill="#FF0000"/>
<rect x="-1" y="-1" width="21" height="22" fill="#1B0085"/>
<path d="M17.5 19L17.6123 19.3455H17.9755L17.6816 19.559L17.7939 19.9045L17.5 19.691L17.2061 19.9045L17.3184 19.559L17.0245 19.3455H17.3877L17.5 19Z" fill="white"/>
<path d="M14.5 16L14.6123 16.3455H14.9755L14.6816 16.559L14.7939 16.9045L14.5 16.691L14.2061 16.9045L14.3184 16.559L14.0245 16.3455H14.3877L14.5 16Z" fill="white"/>
<path d="M8.5 16L8.61226 16.3455H8.97553L8.68164 16.559L8.79389 16.9045L8.5 16.691L8.20611 16.9045L8.31836 16.559L8.02447 16.3455H8.38774L8.5 16Z" fill="white"/>
<path d="M11.5 13L11.6123 13.3455H11.9755L11.6816 13.559L11.7939 13.9045L11.5 13.691L11.2061 13.9045L11.3184 13.559L11.0245 13.3455H11.3877L11.5 13Z" fill="white"/>
<path d="M5.5 13L5.61226 13.3455H5.97553L5.68164 13.559L5.79389 13.9045L5.5 13.691L5.20611 13.9045L5.31836 13.559L5.02447 13.3455H5.38774L5.5 13Z" fill="white"/>
<path d="M17.5 13L17.6123 13.3455H17.9755L17.6816 13.559L17.7939 13.9045L17.5 13.691L17.2061 13.9045L17.3184 13.559L17.0245 13.3455H17.3877L17.5 13Z" fill="white"/>
<path d="M14.5 10L14.6123 10.3455H14.9755L14.6816 10.559L14.7939 10.9045L14.5 10.691L14.2061 10.9045L14.3184 10.559L14.0245 10.3455H14.3877L14.5 10Z" fill="white"/>
<path d="M8.5 10L8.61226 10.3455H8.97553L8.68164 10.559L8.79389 10.9045L8.5 10.691L8.20611 10.9045L8.31836 10.559L8.02447 10.3455H8.38774L8.5 10Z" fill="white"/>
<path d="M5.5 7L5.61226 7.34549H5.97553L5.68164 7.55902L5.79389 7.90451L5.5 7.69098L5.20611 7.90451L5.31836 7.55902L5.02447 7.34549H5.38774L5.5 7Z" fill="white"/>
<path d="M11.5 7L11.6123 7.34549H11.9755L11.6816 7.55902L11.7939 7.90451L11.5 7.69098L11.2061 7.90451L11.3184 7.55902L11.0245 7.34549H11.3877L11.5 7Z" fill="white"/>
<path d="M17.5 7L17.6123 7.34549H17.9755L17.6816 7.55902L17.7939 7.90451L17.5 7.69098L17.2061 7.90451L17.3184 7.55902L17.0245 7.34549H17.3877L17.5 7Z" fill="white"/>
<path d="M14.5 4L14.6123 4.34549H14.9755L14.6816 4.55902L14.7939 4.90451L14.5 4.69098L14.2061 4.90451L14.3184 4.55902L14.0245 4.34549H14.3877L14.5 4Z" fill="white"/>
<path d="M11.5 1L11.6123 1.34549H11.9755L11.6816 1.55902L11.7939 1.90451L11.5 1.69098L11.2061 1.90451L11.3184 1.55902L11.0245 1.34549H11.3877L11.5 1Z" fill="white"/>
<path d="M17.5 1L17.6123 1.34549H17.9755L17.6816 1.55902L17.7939 1.90451L17.5 1.69098L17.2061 1.90451L17.3184 1.55902L17.0245 1.34549H17.3877L17.5 1Z" fill="white"/>
<path d="M8.5 4L8.61226 4.34549H8.97553L8.68164 4.55902L8.79389 4.90451L8.5 4.69098L8.20611 4.90451L8.31836 4.55902L8.02447 4.34549H8.38774L8.5 4Z" fill="white"/>
<path d="M2.5 10L2.61226 10.3455H2.97553L2.68164 10.559L2.79389 10.9045L2.5 10.691L2.20611 10.9045L2.31836 10.559L2.02447 10.3455H2.38774L2.5 10Z" fill="white"/>
<path d="M2.5 16L2.61226 16.3455H2.97553L2.68164 16.559L2.79389 16.9045L2.5 16.691L2.20611 16.9045L2.31836 16.559L2.02447 16.3455H2.38774L2.5 16Z" fill="white"/>
<path d="M11.5 19L11.6123 19.3455H11.9755L11.6816 19.559L11.7939 19.9045L11.5 19.691L11.2061 19.9045L11.3184 19.559L11.0245 19.3455H11.3877L11.5 19Z" fill="white"/>
<path d="M5.5 19L5.61226 19.3455H5.97553L5.68164 19.559L5.79389 19.9045L5.5 19.691L5.20611 19.9045L5.31836 19.559L5.02447 19.3455H5.38774L5.5 19Z" fill="white"/>
</g>
<mask id="path-29-inside-1" fill="white">
<path d="M35.3544 11.9247H24.264C24.7455 15.7698 24.7486 20.0065 24.2731 23.8564H35.378C36.026 21.9991 36.3827 20.0045 36.3827 17.9264C36.383 15.8209 36.0183 13.8018 35.3544 11.9247Z"/>
</mask>
<path d="M35.3544 11.9247L129.631 -21.4208L106.055 -88.0753L35.3544 -88.0753V11.9247ZM24.264 11.9247V-88.0753H-89.0384L-74.9612 24.3491L24.264 11.9247ZM24.2731 23.8564L-74.9729 11.5996L-88.8366 123.856L24.2731 123.856V23.8564ZM35.378 23.8564V123.856H106.401L129.797 56.7975L35.378 23.8564ZM36.3827 17.9264L-63.6173 17.9119L-63.6173 17.9192V17.9264H36.3827ZM35.3544 -88.0753H24.264V111.925H35.3544V-88.0753ZM-74.9612 24.3491C-75.2668 21.9082 -75.3712 19.7933 -75.3726 17.9644C-75.3739 16.135 -75.2727 14.0273 -74.9729 11.5996L123.519 36.1133C125.005 24.0787 124.998 11.5517 123.489 -0.499784L-74.9612 24.3491ZM24.2731 123.856H35.378V-76.1436H24.2731V123.856ZM129.797 56.7975C134.037 44.6442 136.383 31.5271 136.383 17.9264H-63.6173C-63.6173 8.48195 -61.9847 -0.646024 -59.0406 -9.08463L129.797 56.7975ZM136.383 17.9408C136.385 4.19633 133.992 -9.09162 129.631 -21.4208L-58.9222 45.2702C-61.9551 36.6953 -63.6187 27.4454 -63.6173 17.9119L136.383 17.9408Z" fill="black" fill-opacity="0.07" mask="url(#path-29-inside-1)"/>
<mask id="path-31-inside-2" fill="white">
<path d="M24.264 11.9247H35.3542C35.3522 11.919 35.3505 11.9142 35.3485 11.909C33.0449 5.41338 27.1194 0.634378 20 0C22.7548 1.51029 23.5594 6.29529 24.264 11.9247Z"/>
</mask>
<path d="M24.264 11.9247L-74.9618 24.3443L-63.9997 111.925L24.264 111.925V11.9247ZM35.3542 11.9247V111.925H175.859L129.838 -20.8297L35.3542 11.9247ZM35.3485 11.909L-58.9003 45.333L-58.4925 46.483L-58.0567 47.6227L35.3485 11.909ZM20 0L28.8753 -99.6054L-28.0732 87.6867L20 0ZM24.264 111.925H35.3542V-88.0753H24.264V111.925ZM129.838 -20.8297C129.5 -21.8035 129.14 -22.7954 128.754 -23.8047L-58.0567 47.6227C-58.2295 47.1707 -58.4157 46.674 -58.6112 46.1372C-58.8056 45.6034 -58.9785 45.1144 -59.1294 44.679L129.838 -20.8297ZM129.597 -21.515C114.529 -64.0045 75.8468 -95.42 28.8753 -99.6054L11.1247 99.6054C-21.608 96.6887 -48.4392 74.8313 -58.9003 45.333L129.597 -21.515ZM-28.0732 87.6867C-45.6606 78.0447 -56.551 65.0161 -62.7776 55.1744C-68.7281 45.7692 -71.5484 37.5499 -72.7935 33.4452C-74.9745 26.2551 -75.4072 20.7855 -74.9618 24.3443L123.49 -0.494971C123.231 -2.56558 122.043 -13.2424 118.595 -24.6098C115.993 -33.1886 105.081 -67.3976 68.0732 -87.6867L-28.0732 87.6867Z" fill="black" fill-opacity="0.07" mask="url(#path-31-inside-2)"/>
<mask id="path-33-inside-3" fill="white">
<path d="M20 35.8514C27.1325 35.2159 33.0666 30.4204 35.3613 23.9075C35.3673 23.8901 35.3724 23.873 35.3786 23.8563H24.2734C23.5745 29.5161 22.7665 34.3349 20 35.8514Z"/>
</mask>
<path d="M20 35.8514L-28.0687 -51.8378L28.875 135.457L20 35.8514ZM35.3613 23.9075L129.678 57.138L129.765 56.8927L129.85 56.647L35.3613 23.9075ZM35.3786 23.8563L129.081 58.7819L179.372 -76.1437L35.3786 -76.1437V23.8563ZM24.2734 23.8563V-76.1437H-64.1376L-74.9728 11.6008L24.2734 23.8563ZM28.875 135.457C75.9317 131.264 114.668 99.7431 129.678 57.138L-58.9559 -9.32302C-48.5344 -38.9023 -21.6667 -60.8322 11.125 -63.754L28.875 135.457ZM129.85 56.647C130.078 55.9888 130.251 55.4673 130.33 55.2269C130.37 55.1054 130.402 55.0086 130.406 54.9957C130.421 54.9509 130.396 55.0272 130.374 55.0926C130.327 55.2363 130.176 55.695 129.976 56.2811C129.769 56.8843 129.466 57.7487 129.081 58.7819L-58.3242 -11.0692C-58.7124 -10.0277 -59.0179 -9.15493 -59.2274 -8.54327C-59.4312 -7.94867 -59.5848 -7.48152 -59.6348 -7.32925C-59.6577 -7.25963 -59.684 -7.17904 -59.6708 -7.21951C-59.6679 -7.22817 -59.6377 -7.32067 -59.599 -7.43787C-59.5225 -7.66967 -59.3526 -8.18249 -59.1275 -8.83206L129.85 56.647ZM35.3786 -76.1437H24.2734V123.856H35.3786V-76.1437ZM-74.9728 11.6008C-75.4083 15.1274 -74.9869 9.67474 -72.8122 2.47883C-71.5731 -1.62142 -68.7624 -9.84191 -62.8206 -19.2529C-56.606 -29.096 -45.7075 -42.1687 -28.0687 -51.8378L68.0687 123.541C105.162 103.207 116.052 68.8863 118.636 60.3364C122.081 48.937 123.256 38.245 123.52 36.1118L-74.9728 11.6008Z" fill="black" fill-opacity="0.07" mask="url(#path-33-inside-3)"/>
</g>
<defs>
<clipPath id="clip0">
<rect width="36" height="36" fill="white"/>
</clipPath>
</defs>
</svg>
