<svg width="219" height="218" viewBox="0 0 219 218" fill="none" xmlns="http://www.w3.org/2000/svg">
<g filter="url(#filter0_d)">
<circle cx="109.784" cy="104.784" r="104.784" fill="url(#paint0_linear)"/>
<path d="M159.16 68.2197C158.829 67.8364 158.387 67.7816 158.11 67.7269C158.442 67.0698 158.276 66.3032 157.834 65.8651C157.447 65.5366 157.005 65.5366 156.839 65.5366C157.723 65.5366 154.739 63.7296 154.628 63.6748C152.362 62.963 149.045 63.0177 148.714 65.8104C148.272 69.5338 148.714 73.093 148.603 76.707C148.88 77.4736 149.267 78.0759 149.488 78.4592C149.322 85.1396 146.503 91.0534 143.076 96.5838C142.192 98.0075 141.418 99.1574 140.81 99.9788C140.036 99.1027 138.82 97.8433 137.217 96.4196C132.574 92.3128 128.428 88.9726 124.394 84.2635C124.007 83.8254 123.564 83.3874 123.178 83.0588C121.63 81.7447 119.972 81.1971 117.927 80.2662C116.766 79.7187 115.881 79.0616 115.384 78.5688C115.273 77.9664 115.108 76.7618 115.494 75.3381C115.826 74.2429 116.379 73.4763 116.766 72.9835C119.474 74.4072 121.188 73.8596 121.63 73.6954C123.067 73.1478 123.951 71.7241 125.775 68.9315C126.328 68.0554 126.715 67.3983 126.991 66.9055C127.102 66.9055 127.82 67.1245 128.428 66.7412C128.815 66.5222 128.981 66.2484 129.036 66.0841C128.815 65.3723 128.594 64.4414 128.539 63.2915C128.539 62.6344 128.539 62.0869 128.594 61.5941C129.202 60.937 129.81 60.2799 130.418 59.6776C130.805 58.911 131.247 57.8706 131.469 56.5564C132.132 52.8329 131.358 49.4927 129.423 46.9739C127.434 44.2361 124.172 42.3743 120.248 41.8267C118.258 41.553 116.158 41.6077 114.223 42.3196C113.394 42.6481 112.344 43.6337 111.515 43.7432C110.796 43.798 109.47 43.0862 108.806 42.7576C106.651 41.6077 106.595 40.2935 104.771 38.7056C99.5758 33.887 92.7771 35.8582 89.6818 41.8267C91.0637 41.3887 92.1691 41.553 92.4455 42.0458C93.3851 43.9623 88.1342 45.4955 87.3051 44.0718C87.6367 44.6194 89.0738 46.7549 91.6717 47.2477C92.5008 47.412 93.2193 47.3572 93.772 47.2477C93.164 48.7809 92.5008 50.3689 91.6717 51.9568C91.0637 53.2162 90.4556 54.3661 89.8476 55.4613C90.1793 55.4065 92.1691 55.078 92.9982 53.4352C92.7771 54.3661 92.556 55.4613 92.4455 56.6112C92.1691 60.0609 92.8324 62.9082 93.4404 64.6605C93.2746 63.8939 92.8324 61.0465 94.6564 58.6919C95.0986 58.1444 95.5408 57.7063 96.0383 57.3778C95.983 57.8158 95.8172 60.6084 97.807 62.4154C98.3597 62.9082 98.9678 63.2368 99.4652 63.4558C99.023 62.1964 98.3597 59.4585 99.0783 56.1183C99.9627 52.0116 102.45 49.4927 103.445 48.6166C103.445 49.2737 103.39 50.4236 103.334 51.8473C103.224 56.7207 103.334 58.0348 102.561 59.6776C102.229 60.3894 101.621 61.4845 100.294 62.5797C100.958 62.5797 101.953 62.5249 102.837 61.9774C104.053 61.2108 104.329 59.9513 105.103 58.8562C105.379 59.0205 105.435 59.2395 105.545 59.568C106.651 62.5249 106.319 65.6461 103.887 67.7269C103.777 67.8364 103.666 67.8911 103.555 68.0006C102.45 68.8768 101.289 69.2053 100.681 69.3696C100.46 69.2601 100.184 69.0958 99.7968 68.9315C98.9677 68.603 97.8623 68.2744 96.5357 68.1102C95.8724 68.0554 93.772 67.8364 91.2295 68.6577C88.4105 69.5886 85.868 71.7789 83.8781 74.4072C82.1094 76.5975 80.7828 79.0616 79.8432 81.3066C77.5217 83.8802 75.0896 86.6181 72.8234 89.4654C68.3463 95.1054 64.4771 101.293 63.0953 108.247C61.7135 115.201 63.7586 122.484 62.0451 129.274C61.824 130.205 61.6029 130.752 61.3818 131.464C60.8291 133.271 60.1658 136.009 60 139.732C60.1658 140.28 60.5527 141.156 61.3266 141.977C62.1004 142.854 62.8742 143.346 63.3717 143.565C63.8691 143.894 65.5273 144.661 67.4066 144.223C67.9041 144.113 68.3463 143.894 68.6779 143.73C68.899 144.003 69.1201 144.277 69.2859 144.551C70.1703 143.62 71.0547 142.689 71.9391 141.758C71.7732 140.225 71.6074 138.637 71.4416 137.104C70.6125 136.173 69.4518 134.531 68.6227 132.285C68.4568 131.847 68.0699 130.698 67.8488 129.055C67.7383 128.124 67.4066 124.948 69.3965 117.83C70.5019 113.778 71.2205 109.397 72.6576 105.454C73.3209 103.648 74.0947 102.279 74.6475 101.402C74.8685 101.238 75.0344 101.074 75.2002 100.91C79.014 97.7885 82.3305 93.846 86.1996 90.7796C87.4709 89.7392 88.7974 88.8083 90.2346 88.0417C90.2898 87.987 90.4004 87.9322 90.5109 87.8775C93.9379 94.7769 95.6513 100.417 96.5357 104.305C96.9226 105.947 96.8674 105.947 97.3648 108.138C98.7467 113.942 101.345 120.075 98.9125 125.934C97.5306 126.974 86.3101 135.899 87.6367 147.891C87.8025 149.698 88.3553 151.998 89.6818 154.572C85.3152 163.607 82.6621 169.739 81.0592 173.846H104.716C105.103 173.134 105.545 172.477 105.932 171.82C107.203 169.63 108.419 167.549 109.525 165.468C113.173 168.37 116.268 170.615 118.424 172.149C119.253 172.751 120.137 173.353 120.967 173.901H151.975C147.719 168.206 141.197 163.278 136.664 159.116C129.258 152.217 122.017 145.92 118.479 142.854C119.419 141.156 120.69 138.583 121.575 135.242C121.74 134.64 121.906 134.038 122.293 131.409C122.404 130.807 122.514 130.04 122.625 129.219C122.956 126.865 123.399 124.017 123.73 120.732C123.841 119.527 124.007 118.268 124.117 116.953C124.449 113.559 124.449 112.354 124.172 110.875C124.062 110.328 123.841 109.233 123.73 107.754C123.509 105.454 123.73 104.633 123.951 104.195C124.394 103.155 125.112 102.443 125.554 102.114C130.308 105.454 134.509 109.78 139.925 111.971C140.81 112.354 141.749 112.628 142.634 112.847C142.8 112.901 143.021 112.901 143.186 112.847C144.9 112.518 146.558 109.068 146.835 107.809C147.774 103.921 150.04 100.581 151.533 96.9124C152.915 93.3532 153.301 89.5202 154.462 85.9062C155.07 84.154 155.623 82.7851 155.955 81.8542C155.955 81.4161 155.955 80.8138 156.12 80.0472C156.342 78.7878 156.728 77.9117 157.005 77.3093C157.447 76.269 158.055 74.7905 158.829 72.7098C158.884 71.3956 158.995 70.4647 159.05 69.9171C159.437 69.1505 159.492 68.603 159.16 68.2197ZM106.098 50.5879C105.877 50.9164 105.711 51.1902 105.545 51.5188C105.435 50.5331 105.379 49.657 105.656 48.2333C105.932 47.1382 106.319 45.386 107.369 45.1669C107.922 45.0574 108.641 45.4955 109.249 46.2621C107.59 48.1786 106.54 49.7665 106.098 50.5879Z" fill="white"/>
</g>
<defs>
<filter id="filter0_d" x="0.967155" y="0" width="217.634" height="217.634" filterUnits="userSpaceOnUse" color-interpolation-filters="sRGB">
<feFlood flood-opacity="0" result="BackgroundImageFix"/>
<feColorMatrix in="SourceAlpha" type="matrix" values="0 0 0 0 0 0 0 0 0 0 0 0 0 0 0 0 0 0 127 0"/>
<feOffset dy="4.03285"/>
<feGaussianBlur stdDeviation="2.01642"/>
<feColorMatrix type="matrix" values="0 0 0 0 0 0 0 0 0 0 0 0 0 0 0 0 0 0 0.25 0"/>
<feBlend mode="normal" in2="BackgroundImageFix" result="effect1_dropShadow"/>
<feBlend mode="normal" in="SourceGraphic" in2="effect1_dropShadow" result="shape"/>
</filter>
<linearGradient id="paint0_linear" x1="109.784" y1="0" x2="109.784" y2="209.569" gradientUnits="userSpaceOnUse">
<stop stop-color="#914393"/>
<stop offset="1" stop-color="#680B6A"/>
</linearGradient>
</defs>
</svg>
