<svg width="16" height="14" viewBox="0 0 16 14" fill="none" xmlns="http://www.w3.org/2000/svg">
<path d="M12.3019 0V0.857145H13.4069L11.2512 2.64567C10.488 1.96235 9.42389 1.53743 8.24833 1.53743C6.66699 1.53743 5.28711 2.30612 4.57061 3.43878C4.50924 3.43643 4.44755 3.435 4.38549 3.435C2.0693 3.435 0.184959 5.0838 0.184959 7.1105C0.184959 8.99218 1.80946 10.5479 3.89568 10.7608V11.8999H2.42921V12.757H3.89574V14H4.87533V12.757H6.40586V11.8999H4.87533V10.7608C6.24871 10.6206 7.42183 9.89857 8.06324 8.88459C8.12461 8.88694 8.18627 8.88836 8.2483 8.88836C10.5645 8.88836 12.4489 7.23956 12.4489 5.21289C12.4489 4.52419 12.2311 3.87923 11.8529 3.32771L14.1941 1.38526V2.44984H15.1737V0H12.3019ZM4.38555 9.92879C2.60952 9.92879 1.16462 8.6645 1.16462 7.11044C1.16462 5.61695 2.49915 4.39132 4.17952 4.29805C4.09355 4.59063 4.0478 4.89716 4.0478 5.21289C4.0478 6.86621 5.30193 8.2679 7.02146 8.72826C6.43814 9.45377 5.47411 9.92879 4.38555 9.92879ZM7.46199 7.94609C6.06483 7.6382 5.02743 6.52963 5.02743 5.21289C5.02743 4.92207 5.07805 4.64138 5.17196 4.37724C6.56911 4.68513 7.60652 5.79373 7.60652 7.11047C7.60652 7.4013 7.55586 7.68195 7.46199 7.94609ZM8.45439 8.02525C8.54036 7.73268 8.58611 7.42618 8.58611 7.11044C8.58611 5.45713 7.33199 4.05543 5.61249 3.59505C6.1958 2.86956 7.15986 2.39452 8.24839 2.39452C10.0245 2.39452 11.4694 3.65881 11.4694 5.21287C11.4693 6.70636 10.1348 7.93201 8.45439 8.02525Z" fill="#D1D1D1"/>
</svg>
