<svg width="42" height="43" viewBox="0 0 42 43" fill="none" xmlns="http://www.w3.org/2000/svg">
<g clip-path="url(#clip0)">
<path d="M15.9311 6.29333C15.9311 3.49382 18.2005 1.22437 21 1.22437C23.7996 1.22437 26.069 3.49382 26.069 6.29333C26.069 9.09284 23.7996 11.3623 21 11.3623C18.2018 11.3591 15.9343 9.09152 15.9311 6.29333ZM26.7931 12.8106C29.5913 12.8138 31.8589 15.0813 31.8621 17.8795V23.6726C31.8621 24.8724 30.8895 25.8451 29.6897 25.8451C28.4899 25.8451 27.5173 24.8724 27.5173 23.6726V17.8795C27.5173 17.4796 27.1931 17.1554 26.7931 17.1554C26.3932 17.1554 26.069 17.4796 26.069 17.8795V39.6037C26.069 40.8035 25.0964 41.7761 23.8966 41.7761C22.6968 41.7761 21.7242 40.8035 21.7242 39.6037V30.1899C21.7242 29.79 21.4 29.4657 21 29.4657C20.6001 29.4657 20.2759 29.79 20.2759 30.1899V39.6037C20.2759 40.3798 19.8618 41.097 19.1897 41.485C18.5175 41.8731 17.6894 41.8731 17.0173 41.485C16.3451 41.097 15.9311 40.3798 15.9311 39.6037V17.8795C15.9311 17.4796 15.6069 17.1554 15.2069 17.1554C14.807 17.1554 14.4828 17.4796 14.4828 17.8795V23.6726C14.4828 24.8724 13.5102 25.8451 12.3104 25.8451C11.1106 25.8451 10.138 24.8724 10.138 23.6726V17.8795C10.1412 15.0813 12.4087 12.8138 15.2069 12.8106H26.7931Z" fill="#FFFCFC"/>
<path d="M5.79311 1.9485V41.0519C5.79311 41.4519 5.46891 41.7761 5.06898 41.7761H1.44829C1.04836 41.7761 0.724152 41.4519 0.724152 41.0519V39.6037H2.89656C3.29649 39.6037 3.6207 39.2795 3.6207 38.8795C3.6207 38.4796 3.29649 38.1554 2.89656 38.1554H0.724152V36.7071H2.17243C2.57236 36.7071 2.89656 36.3829 2.89656 35.983C2.89656 35.5831 2.57236 35.2588 2.17243 35.2588H0.724152V33.8106H2.89656C3.29649 33.8106 3.6207 33.4864 3.6207 33.0864C3.6207 32.6865 3.29649 32.3623 2.89656 32.3623H0.724152V30.914H2.17243C2.57236 30.914 2.89656 30.5898 2.89656 30.1899C2.89656 29.79 2.57236 29.4657 2.17243 29.4657H0.724152V28.0175H2.89656C3.29649 28.0175 3.6207 27.6933 3.6207 27.2933C3.6207 26.8934 3.29649 26.5692 2.89656 26.5692H0.724152V25.1209H2.17243C2.57236 25.1209 2.89656 24.7967 2.89656 24.3968C2.89656 23.9968 2.57236 23.6726 2.17243 23.6726H0.724152V22.2244H2.89656C3.29649 22.2244 3.6207 21.9002 3.6207 21.5002C3.6207 21.1003 3.29649 20.7761 2.89656 20.7761H0.724152V19.3278H2.17243C2.57236 19.3278 2.89656 19.0036 2.89656 18.6037C2.89656 18.2037 2.57236 17.8795 2.17243 17.8795H0.724152V16.4313H2.89656C3.29649 16.4313 3.6207 16.1071 3.6207 15.7071C3.6207 15.3072 3.29649 14.983 2.89656 14.983H0.724152V13.5347H2.17243C2.57236 13.5347 2.89656 13.2105 2.89656 12.8106C2.89656 12.4106 2.57236 12.0864 2.17243 12.0864H0.724152V10.6382H2.89656C3.29649 10.6382 3.6207 10.314 3.6207 9.91402C3.6207 9.51409 3.29649 9.18988 2.89656 9.18988H0.724152V7.74161H2.17243C2.57236 7.74161 2.89656 7.4174 2.89656 7.01747C2.89656 6.61754 2.57236 6.29333 2.17243 6.29333H0.724152V4.84505H2.89656C3.29649 4.84505 3.6207 4.52085 3.6207 4.12092C3.6207 3.72099 3.29649 3.39678 2.89656 3.39678H0.724152V1.9485C0.724152 1.54857 1.04836 1.22437 1.44829 1.22437H5.06898C5.46891 1.22437 5.79311 1.54857 5.79311 1.9485Z" fill="#FFFCFC"/>
<path d="M40.4286 37.4312H39.1035V5.5691H40.4286C40.7113 5.56912 40.9681 5.40466 41.0864 5.14791C41.2047 4.89117 41.1627 4.58908 40.979 4.37427L38.2055 1.14462C38.0679 0.983738 37.8669 0.891113 37.6552 0.891113C37.4435 0.891113 37.2424 0.983738 37.1048 1.14462L34.3314 4.37427C34.1476 4.58908 34.1057 4.89117 34.224 5.14791C34.3422 5.40466 34.5991 5.56912 34.8817 5.5691H36.2069V37.4312H34.8817C34.5991 37.4312 34.3422 37.5956 34.224 37.8524C34.1057 38.1091 34.1476 38.4112 34.3314 38.626L37.1048 41.8557C37.2424 42.0165 37.4435 42.1092 37.6552 42.1092C37.8669 42.1092 38.0679 42.0165 38.2055 41.8557L40.979 38.626C41.1627 38.4112 41.2047 38.1091 41.0864 37.8524C40.9681 37.5956 40.7113 37.4312 40.4286 37.4312Z" fill="#FFFCFC"/>
</g>
<defs>
<clipPath id="clip0">
<rect width="42" height="42" fill="white" transform="translate(0 0.5)"/>
</clipPath>
</defs>
</svg>
