<svg width="30" height="30" viewBox="0 0 30 30" fill="none" xmlns="http://www.w3.org/2000/svg">
<g clip-path="url(#clip0)">
<path d="M6.95619 24.4017C7.02874 24.5653 7.18919 24.6628 7.35742 24.6628C7.4167 24.6628 7.47689 24.6507 7.53457 24.6251C7.75613 24.5271 7.85615 24.2683 7.75819 24.0467C7.64054 23.781 7.52725 23.5136 7.4215 23.2525C7.33064 23.0282 7.07498 22.9199 6.85067 23.0106C6.62614 23.1014 6.51788 23.3571 6.60874 23.5816C6.71792 23.8515 6.83488 24.1273 6.95619 24.4017Z" fill="#536354"/>
<path d="M8.05138 26.6352C8.13057 26.7826 8.28186 26.8666 8.43819 26.8666C8.50799 26.8666 8.57918 26.8499 8.64509 26.8144C8.85841 26.7 8.93852 26.434 8.82408 26.2207C8.68652 25.9644 8.55217 25.706 8.42422 25.4528C8.31528 25.2367 8.05138 25.15 7.83531 25.2589C7.61925 25.3681 7.53227 25.6318 7.64145 25.8479C7.7726 26.1076 7.91038 26.3725 8.05138 26.6352Z" fill="#536354"/>
<path d="M9.59015 27.5798C9.46702 27.3713 9.19831 27.3022 8.9898 27.4251C8.78106 27.5482 8.71193 27.817 8.83484 28.0255C8.9827 28.2763 9.13674 28.5313 9.29284 28.7838C9.37569 28.9179 9.5192 28.9918 9.66614 28.9918C9.74488 28.9918 9.82453 28.9705 9.8964 28.9261C10.1024 28.7989 10.166 28.5288 10.0388 28.3228C9.88587 28.0754 9.73504 27.8254 9.59015 27.5798Z" fill="#536354"/>
<path d="M5.42245 19.6417C5.46113 19.853 5.64561 20.0011 5.85298 20.0011C5.8793 20.0011 5.90608 19.9986 5.93285 19.9938C6.17112 19.9498 6.32859 19.7214 6.28487 19.4831C6.23223 19.1977 6.18966 18.9157 6.15762 18.6447C6.12946 18.4042 5.91203 18.2318 5.67101 18.2604C5.43069 18.2886 5.25857 18.5065 5.28695 18.747C5.32083 19.0368 5.36637 19.3378 5.42245 19.6417Z" fill="#536354"/>
<path d="M5.65521 17.5591C5.88822 17.5591 6.08208 17.376 6.09284 17.1409C6.11595 16.6404 6.18439 16.3811 6.18691 16.3712C6.25237 16.1394 6.11824 15.8977 5.88638 15.8308C5.65384 15.7635 5.41077 15.8979 5.34371 16.1307C5.33364 16.1655 5.24506 16.4873 5.21691 17.1007C5.20592 17.3426 5.39292 17.5477 5.63484 17.5587C5.64171 17.5591 5.64858 17.5591 5.65521 17.5591Z" fill="#536354"/>
<path d="M6.05417 22.0736C6.11482 22.2581 6.28625 22.3751 6.4705 22.3751C6.51582 22.3751 6.56205 22.368 6.6076 22.3529C6.83763 22.2771 6.96283 22.0295 6.88707 21.7994C6.79597 21.5232 6.71151 21.2474 6.63575 20.9791C6.57007 20.7461 6.32768 20.6104 6.09468 20.6763C5.86168 20.7422 5.72618 20.9844 5.79187 21.2174C5.87106 21.4975 5.95918 21.7857 6.05417 22.0736Z" fill="#536354"/>
<path d="M24.3679 17.5593C24.3748 17.5593 24.3816 17.5593 24.3885 17.5589C24.6304 17.5479 24.8174 17.3428 24.8062 17.1009C24.778 16.4875 24.6897 16.1657 24.6796 16.1309C24.6128 15.8993 24.3722 15.7663 24.1399 15.8315C23.9078 15.897 23.7723 16.1387 23.8362 16.3712C23.8371 16.3737 23.9069 16.6333 23.9303 17.141C23.9413 17.3762 24.1351 17.5593 24.3679 17.5593Z" fill="#536354"/>
<path d="M23.3876 20.979C23.3116 21.2475 23.2272 21.5236 23.1365 21.7991C23.0605 22.0292 23.1857 22.277 23.4155 22.3528C23.4611 22.3679 23.5073 22.375 23.5528 22.375C23.7371 22.375 23.9085 22.258 23.9692 22.0736C24.0639 21.7859 24.1523 21.4979 24.2313 21.2173C24.2972 20.9843 24.1614 20.7419 23.9284 20.6762C23.6957 20.6105 23.4533 20.746 23.3876 20.979Z" fill="#536354"/>
<path d="M24.0905 19.9937C24.1173 19.9985 24.1438 20.001 24.1701 20.001C24.3777 20.001 24.5622 19.8529 24.6009 19.6417C24.6567 19.3372 24.7023 19.0363 24.7364 18.747C24.7648 18.5064 24.5927 18.2885 24.3521 18.2603C24.112 18.2322 23.8939 18.4039 23.8655 18.6444C23.8337 18.9152 23.7909 19.1974 23.7385 19.4833C23.6947 19.7213 23.8524 19.95 24.0905 19.9937Z" fill="#536354"/>
<path d="M22.6016 23.2531C22.4959 23.5145 22.3828 23.7816 22.2652 24.0471C22.167 24.2686 22.2672 24.5275 22.4885 24.6255C22.5462 24.6511 22.6064 24.6632 22.6657 24.6632C22.8339 24.6632 22.9944 24.5657 23.0669 24.4021C23.1882 24.1281 23.3052 23.8521 23.4146 23.582C23.5052 23.3575 23.397 23.102 23.1724 23.0112C22.9481 22.9203 22.6925 23.0286 22.6016 23.2531Z" fill="#536354"/>
<path d="M21.0335 27.4246C20.825 27.3017 20.5561 27.3708 20.4332 27.5796C20.2881 27.8254 20.137 28.0751 19.9846 28.3221C19.8571 28.528 19.921 28.7984 20.1269 28.9256C20.1988 28.97 20.2785 28.9913 20.3572 28.9913C20.5039 28.9913 20.6474 28.9174 20.7305 28.7832C20.8864 28.5313 21.0404 28.276 21.1885 28.025C21.3114 27.8165 21.2421 27.5477 21.0335 27.4246Z" fill="#536354"/>
<path d="M21.5852 26.8662C21.7415 26.8662 21.8928 26.7822 21.9717 26.6348C22.113 26.3721 22.2507 26.1073 22.3819 25.8475C22.4908 25.6314 22.4041 25.3677 22.188 25.2586C21.9715 25.1494 21.7081 25.2364 21.5989 25.4524C21.4714 25.7056 21.3368 25.964 21.1993 26.2203C21.0846 26.4336 21.1649 26.6994 21.3782 26.8138C21.4442 26.8493 21.5151 26.8662 21.5852 26.8662Z" fill="#536354"/>
<path d="M1.79787 10.1136C1.61865 9.9509 1.34125 9.96463 1.17874 10.1441C1.01601 10.3233 1.02974 10.6007 1.20895 10.7632L1.74912 11.2528H0.438309C0.196381 11.2528 0 11.4492 0 11.6913C0 11.9335 0.196381 12.1296 0.438309 12.1296H1.75026L1.20941 12.619C1.02974 12.7812 1.01578 13.0587 1.17828 13.2381C1.2648 13.334 1.38405 13.3825 1.50353 13.3825C1.60835 13.3825 1.71364 13.3452 1.79764 13.2692L3.18123 12.0177C3.27324 11.9346 3.32565 11.8167 3.32565 11.6929C3.32565 11.5691 3.27347 11.451 3.18169 11.3677L1.79787 10.1136Z" fill="#536354"/>
<path d="M29.1162 12.619L28.5754 12.1296H29.8873C30.1295 12.1296 30.3257 11.9335 30.3257 11.6913C30.3257 11.4492 30.1295 11.2528 29.8873 11.2528H28.5765L29.1167 10.7632C29.2959 10.6007 29.3096 10.3233 29.1469 10.1441C28.9844 9.96463 28.7072 9.9509 28.5278 10.1136L27.144 11.3679C27.0522 11.451 27 11.5691 27 11.6929C27 11.8167 27.0524 11.9348 27.1444 12.0179L28.528 13.2695C28.612 13.3452 28.7171 13.3828 28.8221 13.3828C28.9416 13.3828 29.0609 13.334 29.1474 13.2383C29.3099 13.0587 29.2957 12.7815 29.1162 12.619Z" fill="#536354"/>
<path d="M15.6995 8.72196C15.7354 8.72814 15.7713 8.73478 15.8073 8.7421C16.0201 8.78559 16.2268 8.85403 16.422 8.94489C16.482 8.97282 16.5449 8.98609 16.607 8.98609C16.7722 8.98609 16.9304 8.89225 17.0048 8.73272C17.1071 8.51322 17.0121 8.25253 16.7926 8.14999C16.5353 8.03028 16.2632 7.94033 15.9833 7.88311C15.9373 7.87373 15.8913 7.86503 15.8448 7.85725C15.6061 7.81696 15.3799 7.9781 15.3397 8.21682C15.2996 8.45577 15.4605 8.68191 15.6995 8.72196Z" fill="#536354"/>
<path d="M13.3766 9.06885C13.4377 9.06885 13.4999 9.0558 13.5592 9.02879C13.7107 8.95921 13.8746 8.89719 14.0463 8.84432C14.1312 8.81822 14.2182 8.79488 14.3042 8.77474C14.5402 8.72003 14.6869 8.48428 14.632 8.24831C14.577 8.01256 14.3413 7.86562 14.1055 7.92078C13.9996 7.9455 13.8929 7.97411 13.7885 8.00615C13.5803 8.07024 13.38 8.14623 13.1934 8.23183C12.9733 8.33276 12.8767 8.593 12.9778 8.81296C13.0515 8.97386 13.2106 9.06885 13.3766 9.06885Z" fill="#536354"/>
<path d="M11.638 10.7987C11.6805 10.8115 11.7231 10.8177 11.7652 10.8177C11.9534 10.8177 12.1273 10.6955 12.1848 10.5062C12.2566 10.2684 12.3649 10.0491 12.5063 9.85412C12.6482 9.65797 12.6045 9.38377 12.4086 9.24164C12.2124 9.0995 11.9385 9.14345 11.7963 9.33937C11.5974 9.61357 11.4459 9.92073 11.3454 10.2522C11.2754 10.4838 11.4063 10.7285 11.638 10.7987Z" fill="#536354"/>
<path d="M17.858 10.4497C17.9274 10.6197 18.0913 10.7227 18.2643 10.7227C18.3192 10.7227 18.3753 10.7122 18.4296 10.6902C18.6539 10.5987 18.7614 10.3428 18.6701 10.1187C18.5472 9.81704 18.3797 9.52796 18.1723 9.25971C18.0242 9.06814 17.7489 9.03289 17.5573 9.18075C17.3657 9.32883 17.3302 9.60418 17.4783 9.79598C17.6374 10.0015 17.7651 10.2215 17.858 10.4497Z" fill="#536354"/>
<path d="M6.09834 2.34378C6.3405 2.34378 6.53688 2.1474 6.53688 1.90524V0.438797C6.53688 0.19664 6.3405 0.000488281 6.09834 0.000488281C5.85619 0.000488281 5.66003 0.19664 5.66003 0.438797V1.90524C5.66003 2.1474 5.85619 2.34378 6.09834 2.34378Z" fill="#536354"/>
<path d="M26.505 14.391C26.4292 14.1243 26.3423 13.8613 26.2445 13.6029C25.7051 12.1786 24.8548 10.9213 24.0104 9.67921C23.4428 8.84356 22.8948 8.03698 22.4487 7.19126C22.8971 7.15785 23.4036 7.00724 23.8115 6.5845C24.1535 6.22996 24.3416 5.75091 24.3416 5.2357V0.438561C24.3416 0.196404 24.1452 0.000251955 23.9031 0.000251955C23.6609 0.000251955 23.4648 0.196404 23.4648 0.438561V5.2357C23.4648 5.51859 23.3611 5.78844 23.1805 5.97567C22.8546 6.31327 22.3767 6.34463 22.0329 6.3119C21.9356 6.07867 21.8463 5.84155 21.7687 5.59824C21.2151 3.86424 21.1244 2.07026 21.5135 0.547051C21.5735 0.312447 21.4318 0.073723 21.1972 0.013756C20.9631 -0.046211 20.7239 0.0954668 20.6639 0.330071C20.2348 2.01052 20.3304 3.97616 20.9333 5.86489C21.4424 7.45951 22.3792 8.83852 23.2853 10.172C23.2963 10.1885 23.3075 10.2049 23.3187 10.2214C21.5264 10.8557 19.5442 11.2905 18.1405 11.551C17.9025 11.5952 17.7452 11.8241 17.7894 12.0621C17.8336 12.3004 18.062 12.4574 18.3005 12.4132C19.791 12.1365 21.9219 11.6668 23.8236 10.9717C24.4345 11.8941 25.0141 12.8499 25.3988 13.8726C25.4228 13.9364 25.4462 14.0005 25.4688 14.065C25.3707 13.786 21.1373 15.068 20.7617 15.2319C19.3577 15.8446 18.1398 16.6855 17.2401 17.6633C16.287 18.6992 15.5631 19.6335 15.0055 20.5522C14.4477 19.6335 13.7238 18.6992 12.7707 17.6633C11.8707 16.6853 10.6529 15.8444 9.24845 15.2314C8.33818 14.8343 7.31554 14.5837 6.35332 14.358C6.20272 14.3225 4.55683 14.0035 4.53142 14.063C4.54928 14.0129 4.56781 13.9627 4.58681 13.9128C4.66005 13.7194 5.93195 10.8824 6.17708 10.968C8.08138 11.6652 10.2173 12.136 11.7103 12.4132C12.4317 12.5473 12.9872 12.6343 13.5116 12.6956C14.3729 12.7961 15.2717 12.8005 16.2591 12.7082C16.5001 12.6858 16.6773 12.472 16.6548 12.231C16.6324 11.99 16.4182 11.8126 16.1776 11.835C15.252 11.9216 14.4132 11.9179 13.6135 11.8245C13.1092 11.7657 12.5718 11.6812 11.8703 11.551C10.464 11.2901 8.47712 10.8541 6.682 10.2178C6.6923 10.2027 6.70282 10.1873 6.71312 10.172C7.61927 8.83852 8.55608 7.45951 9.06511 5.86489C9.66799 3.97639 9.76366 2.01075 9.33451 0.330071C9.27477 0.0954668 9.03605 -0.0459822 8.80121 0.013756C8.56661 0.073723 8.42493 0.312447 8.4849 0.547051C8.874 2.07026 8.78313 3.86424 8.2297 5.59824C8.1521 5.84155 8.06284 6.0789 7.96534 6.31213C7.62179 6.3444 7.14571 6.31213 6.82093 5.97567C6.64034 5.78822 6.53666 5.51859 6.53666 5.23547V3.96586C6.53666 3.7237 6.34028 3.52732 6.09812 3.52732C5.85619 3.52732 5.65981 3.7237 5.65981 3.96586V5.2357C5.65981 5.75091 5.84795 6.22996 6.18967 6.5845C6.59685 7.00633 7.10199 7.15716 7.54992 7.1908C7.1036 8.03675 6.55565 8.84356 5.9878 9.67921C5.87313 9.84789 5.75823 10.0175 5.64333 10.188C5.6431 10.1885 5.64264 10.1889 5.64219 10.1894C5.42521 10.5098 5.19953 10.852 4.97706 11.2125C3.28631 13.9504 2.64864 17.1462 3.44721 20.2966C3.8418 21.8521 4.62915 23.4215 5.30779 24.8678C6.09331 26.5412 6.91408 28.1999 7.86463 29.7869C7.9468 29.924 8.09214 30 8.24114 30C8.31781 30 8.39563 29.9799 8.46613 29.9378C8.67395 29.8133 8.74147 29.5441 8.61696 29.3363C7.54534 27.5469 6.64377 25.665 5.76601 23.7749C5.24256 22.6479 4.60421 21.2883 4.29728 20.0805C3.86217 18.3644 3.8592 16.5647 4.27622 14.9087C4.37922 14.6359 8.70691 15.9519 8.8978 16.0353C10.1912 16.5997 11.3072 17.368 12.1255 18.2572C13.2347 19.4628 14.0142 20.5158 14.5732 21.5641V29.5615C14.5732 29.8036 14.7695 30 15.0117 30C15.2538 30 15.45 29.8036 15.45 29.5615V21.5415C16.0082 20.5005 16.7842 19.4538 17.8855 18.2572C18.7029 17.3687 19.8182 16.6008 21.1107 16.0364C21.5497 15.8446 22.0068 15.7027 22.4705 15.5848C22.8298 15.4933 25.697 14.8094 25.7227 14.9108C26.139 16.5644 26.1363 18.3614 25.7023 20.0757C25.334 21.5319 24.6737 22.7147 24.0942 24.0722C23.3238 25.8774 22.3895 27.6533 21.3815 29.3363C21.257 29.5441 21.3245 29.8133 21.5323 29.9378C21.6028 29.9799 21.6804 30 21.7571 30C21.9063 30 22.0516 29.924 22.1336 29.7869C23.1063 28.163 23.9427 26.4645 24.7449 24.7515C25.4327 23.283 26.1498 21.88 26.5512 20.2961C27.0346 18.3886 27.0481 16.2985 26.505 14.391Z" fill="#536354"/>
</g>
<defs>
<clipPath id="clip0">
<rect width="30" height="30" fill="white"/>
</clipPath>
</defs>
</svg>
