<svg width="219" height="218" viewBox="0 0 219 218" fill="none" xmlns="http://www.w3.org/2000/svg">
<g filter="url(#filter0_d)">
<circle cx="109.784" cy="104.784" r="104.784" fill="url(#paint0_linear)"/>
</g>
<path fill-rule="evenodd" clip-rule="evenodd" d="M148.73 169.974C148.317 168.987 147.921 168.054 147.565 167.215L147.564 167.214C146.688 165.151 146.049 163.647 145.986 163.254C144.464 159.672 142.606 155.266 140.48 150.202C140.272 149.743 140.7 148.924 141.066 148.222C141.251 147.867 141.421 147.543 141.484 147.31C141.86 145.927 141.986 144.419 142.048 142.973C142.048 140.269 141.609 137.566 140.794 134.989C139.163 129.834 136.278 125.056 133.456 120.593C133.403 120.511 133.347 120.425 133.288 120.336C132.453 119.06 131.168 117.096 131.637 115.626C132.013 114.495 133.832 113.238 135.024 113.489C135.292 113.543 135.549 113.677 135.81 113.814C136.157 113.996 136.511 114.181 136.905 114.181C137.532 114.181 138.097 113.803 138.348 113.238C138.661 112.735 138.724 112.043 138.599 111.477C138.578 111.31 138.543 111.142 138.508 110.974C138.438 110.639 138.369 110.304 138.411 109.969C138.487 109.314 139.177 108.706 139.829 108.131C140.241 107.768 140.638 107.418 140.857 107.077C141.561 106.018 142.045 104.739 142.516 103.498L142.613 103.242C145.184 95.8869 147.317 88.406 149.387 80.8622C149.575 80.1707 149.763 79.4163 149.512 78.7248C149.317 78.2842 149.007 77.9961 148.702 77.7121L148.702 77.712C148.615 77.6313 148.529 77.5509 148.446 77.4675C144.22 73.9701 139.131 71.962 134.054 69.9584C130.917 68.7207 127.785 67.4847 124.863 65.9003C124.742 65.8317 124.621 65.7631 124.501 65.6946L124.498 65.693L124.498 65.6929C123.186 64.947 121.913 64.2233 120.535 63.7629C117.211 62.6942 113.511 63.1343 110.061 63.6372C112.946 61.4998 113.95 58.1679 113.824 54.6475C113.824 53.4531 113.573 52.1958 113.322 51.0014C113.511 51.0642 113.699 51.1271 113.887 51.2528C114.679 51.7066 115.012 52.4162 115.162 52.7353C115.178 52.7699 115.192 52.7999 115.204 52.8244C115.455 52.3215 115.706 51.5671 115.706 50.6242L115.7 50.5778C115.638 50.0745 115.544 49.3098 114.389 47.4809C113.448 45.9722 112.695 44.8406 111.315 43.5204C110.625 42.8918 109.497 42.0117 107.991 41.3202C105.545 40.0629 103.287 40 102.284 40C101.406 40 94.5691 40.0629 91.7467 45.0292C90.7432 46.9151 90.6177 48.7382 90.6177 49.7441C90.4288 50.4636 90.2854 51.1147 90.1601 51.6836L90.1601 51.6837C90.0774 52.0591 90.0026 52.3988 89.9278 52.6987C89.6142 54.0189 89.6142 54.5847 89.8024 55.2133C89.9905 55.7791 90.3041 56.2191 90.555 56.4706C90.1474 57.0992 89.7554 57.7435 89.3634 58.3878L89.3633 58.388L89.3633 58.3881C88.9713 59.0324 88.5793 59.6767 88.1717 60.3054C88.1717 60.4939 88.2971 60.7454 88.4853 60.9969C88.8866 61.5141 89.6025 61.4534 89.7703 61.4392C89.7861 61.4379 89.797 61.4369 89.8024 61.4369C89.8651 63.8258 90.0533 65.586 90.2414 66.7804C90.3041 67.4091 90.4296 68.0377 90.9313 68.6664C91.6496 69.5115 92.5701 69.6865 93.4759 69.8587C94.3892 70.0323 95.2877 70.203 95.949 71.0553L98.0187 73.8842C98.0756 73.9619 98.1324 74.0391 98.189 74.1161C98.8198 74.9734 99.4244 75.7953 99.7122 76.776C100.214 78.4104 100.151 82.1823 99.7122 83.8797C99.4935 84.7563 99.0104 85.6017 98.5186 86.4625C98.0227 87.3302 97.518 88.2136 97.2661 89.1603C96.9525 90.4176 95.8862 94.8182 98.2696 99.2816C98.3637 99.4073 98.4421 99.533 98.5205 99.6587L98.5205 99.6588C98.5989 99.7845 98.6773 99.9102 98.7714 100.036C98.8341 100.413 98.8811 100.79 98.9282 101.168C98.9752 101.545 99.0222 101.922 99.085 102.299C98.9595 103.368 98.8968 104.499 98.9595 105.757C99.085 109.151 99.9631 111.98 100.778 113.929C99.3986 113.992 97.5797 113.929 95.5099 113.615C93.9419 113.426 91.3077 112.986 88.1089 111.729C86.4155 111.1 84.8476 110.22 83.2796 109.34L83.2795 109.34C81.3979 108.208 81.0216 106.448 81.5233 104.374C80.7707 103.619 80.3944 102.928 80.2062 102.425C80.1163 102.2 80.0586 101.99 80.0014 101.783C79.8989 101.411 79.798 101.045 79.5163 100.602C79.3609 100.353 79.2517 100.258 79.1353 100.157C79.0167 100.054 78.8908 99.9442 78.7009 99.6588C78.3465 99.1851 78.145 98.7393 77.9918 98.4002C77.8196 98.0192 77.7083 97.7728 77.5092 97.7728C77.3511 97.7728 77.1929 97.9505 77.1092 98.0445C77.0934 98.0623 77.0802 98.0771 77.0702 98.0871C76.2548 99.1558 77.4465 101.608 77.572 101.859C77.572 101.876 77.596 101.942 77.6347 102.048C77.7359 102.324 77.9376 102.874 78.0737 103.556C78.1364 103.996 78.1364 104.248 78.011 104.374C77.8856 104.562 77.5092 104.499 76.7566 104.311C76.2221 104.192 75.5752 103.96 74.7626 103.669L74.7625 103.669L74.6241 103.619C74.5614 103.431 74.0596 102.676 73.1815 102.488C72.9307 102.362 72.2408 102.236 71.6763 102.676C71.2372 103.053 70.9863 103.682 71.1118 104.248C70.9863 104.374 70.7355 104.625 70.61 104.939C70.3153 105.648 70.6853 106.357 70.783 106.545C70.7893 106.556 70.7944 106.566 70.7982 106.574C70.61 106.7 70.3591 106.888 70.171 107.203C69.8574 107.768 69.9828 108.46 70.4846 109.026C70.3591 109.151 70.2337 109.403 70.171 109.78C69.7947 111.289 70.9863 112.798 72.2407 113.489C72.4178 113.587 72.6012 113.689 72.7893 113.795L72.7907 113.795C73.9352 114.436 75.2584 115.177 76.443 115.501C76.8151 115.6 77.1774 115.641 77.5337 115.68C78.0784 115.741 78.6092 115.8 79.14 116.066C79.461 116.195 79.7328 116.39 80.0141 116.591C80.2824 116.783 80.5594 116.982 80.8961 117.135C81.7755 117.539 82.6976 117.729 83.6126 117.917L83.6127 117.917C84.2639 118.05 84.9115 118.183 85.5374 118.393C87.5417 119.002 89.26 120.165 90.9838 121.331L90.9839 121.331C92.2808 122.209 93.5809 123.088 95.0082 123.736C98.3323 125.182 102.472 125.496 106.047 125.622C106.298 127.571 106.674 129.205 107.05 130.274C107.175 130.734 103.422 134.164 100.577 136.765L100.577 136.765C99.1413 138.077 97.9373 139.177 97.5797 139.578C94.2555 143.224 91.1195 147.185 88.2971 151.271C87.0598 153.078 86.103 154.802 85.1852 156.455C83.358 159.746 81.6853 162.759 78.2619 165.604C76.935 166.718 75.9977 168.285 75.5555 169.974H100.096C102.42 168.254 104.951 166.71 107.552 165.667L107.552 165.667C108.305 165.415 109.058 165.164 109.747 164.787C110.51 164.384 111.363 163.525 112.266 162.615C114.186 160.679 116.335 158.513 118.34 160.009C119.683 161.03 120.855 162.806 121.907 164.399L121.907 164.399C122.28 164.963 122.637 165.505 122.981 165.981C123.892 167.263 124.749 168.612 125.591 169.974H148.73ZM129.943 101.545C130.821 100.916 131.135 100.413 131.26 99.9731C131.281 99.9318 131.308 99.8432 131.347 99.7182L131.347 99.7182C131.426 99.4624 131.552 99.0546 131.762 98.5901C131.874 98.3284 132.008 98.1112 132.098 97.9649C132.16 97.8651 132.201 97.7983 132.201 97.7728C133.079 96.3269 133.644 93.2465 133.644 93.2465C134.254 89.8541 134.619 85.822 134.739 84.5018C134.754 84.3297 134.766 84.2036 134.773 84.1311C133.456 84.0054 132.138 83.8797 130.759 83.754C130.759 85.137 130.759 86.6457 130.633 88.2174C130.382 90.9834 129.818 93.3723 129.253 95.4468C129.504 97.4585 129.755 99.533 129.943 101.545Z" fill="white"/>
<defs>
<filter id="filter0_d" x="0.967155" y="0" width="217.634" height="217.634" filterUnits="userSpaceOnUse" color-interpolation-filters="sRGB">
<feFlood flood-opacity="0" result="BackgroundImageFix"/>
<feColorMatrix in="SourceAlpha" type="matrix" values="0 0 0 0 0 0 0 0 0 0 0 0 0 0 0 0 0 0 127 0"/>
<feOffset dy="4.03285"/>
<feGaussianBlur stdDeviation="2.01642"/>
<feColorMatrix type="matrix" values="0 0 0 0 0 0 0 0 0 0 0 0 0 0 0 0 0 0 0.25 0"/>
<feBlend mode="normal" in2="BackgroundImageFix" result="effect1_dropShadow"/>
<feBlend mode="normal" in="SourceGraphic" in2="effect1_dropShadow" result="shape"/>
</filter>
<linearGradient id="paint0_linear" x1="109.784" y1="0" x2="109.784" y2="209.569" gradientUnits="userSpaceOnUse">
<stop stop-color="#0D4376"/>
<stop offset="1" stop-color="#06235C"/>
</linearGradient>
</defs>
</svg>
