<svg width="52" height="52" viewBox="0 0 52 52" fill="none" xmlns="http://www.w3.org/2000/svg">
<path d="M25.9995 13C29.5893 13 32.4995 10.0899 32.4995 6.5C32.4995 2.91015 29.5893 0 25.9995 0C22.4096 0 19.4995 2.91015 19.4995 6.5C19.4995 10.0899 22.4096 13 25.9995 13Z" fill="#44AF5C"/>
<path d="M35.9907 33.9625L34.4738 19.1783C34.3038 17.5078 32.877 16.25 31.1601 16.25H20.8422C19.1219 16.25 17.6951 17.5078 17.5251 19.175L16.0082 33.9625C15.9616 34.4207 16.1149 34.8725 16.4316 35.217C16.745 35.555 17.195 35.75 17.6651 35.75H19.4887L20.8555 49.075C21.0255 50.739 22.4557 52 24.1759 52H27.8264C29.5466 52 30.9734 50.739 31.1434 49.075L32.5103 35.75H34.3338C34.8072 35.75 35.2539 35.555 35.5707 35.217C35.8874 34.8758 36.0407 34.4207 35.9907 33.9625Z" fill="#44AF5C"/>
<path d="M22.7314 24.9609C22.7314 24.3685 22.891 23.8786 23.21 23.4912C23.5335 23.0993 23.9528 22.9033 24.4678 22.9033C24.9782 22.9033 25.3952 23.0947 25.7188 23.4775C26.0469 23.8604 26.2109 24.3639 26.2109 24.9883V25.4873C26.2109 26.0843 26.0492 26.5742 25.7256 26.957C25.4066 27.3398 24.9919 27.5312 24.4814 27.5312C23.971 27.5312 23.5518 27.3398 23.2236 26.957C22.8955 26.5742 22.7314 26.0706 22.7314 25.4463V24.9609ZM23.6133 25.4873C23.6133 25.8519 23.693 26.1481 23.8525 26.376C24.012 26.5993 24.2217 26.7109 24.4814 26.7109C24.7321 26.7109 24.9349 26.6016 25.0898 26.3828C25.2493 26.1595 25.3291 25.8519 25.3291 25.46V24.9609C25.3291 24.5918 25.2493 24.2956 25.0898 24.0723C24.9303 23.8444 24.723 23.7305 24.4678 23.7305C24.208 23.7305 24.0007 23.8444 23.8457 24.0723C23.6908 24.3001 23.6133 24.6032 23.6133 24.9814V25.4873ZM26.751 30.5596C26.751 29.9626 26.9128 29.4727 27.2363 29.0898C27.5599 28.7025 27.9769 28.5088 28.4873 28.5088C28.9977 28.5088 29.417 28.7002 29.7451 29.083C30.0732 29.4658 30.2373 29.974 30.2373 30.6074V31.0928C30.2373 31.6943 30.0732 32.1865 29.7451 32.5693C29.417 32.9521 29.0023 33.1436 28.501 33.1436C27.9906 33.1436 27.5713 32.9521 27.2432 32.5693C26.915 32.1865 26.751 31.6829 26.751 31.0586V30.5596ZM27.6328 31.0928C27.6328 31.4619 27.7126 31.7604 27.8721 31.9883C28.0316 32.2116 28.2412 32.3232 28.501 32.3232C28.7562 32.3232 28.9613 32.2093 29.1162 31.9814C29.2712 31.7536 29.3486 31.4505 29.3486 31.0723V30.5596C29.3486 30.1904 29.2689 29.8942 29.1094 29.6709C28.9499 29.4476 28.7425 29.3359 28.4873 29.3359C28.2367 29.3359 28.0316 29.4476 27.8721 29.6709C27.7126 29.8896 27.6328 30.1927 27.6328 30.5801V31.0928ZM24.7275 32.248L24.0645 31.7969L28.1455 24.0176L28.8154 24.4688L24.7275 32.248Z" fill="white"/>
</svg>
