<svg width="163" height="162" viewBox="0 0 163 162" fill="none" xmlns="http://www.w3.org/2000/svg">
<g clip-path="url(#clip0)">
<path d="M167.428 69.4252C165.62 55.6328 149.099 36.4734 149.099 36.4734C144.79 25.3881 133.657 29.0745 133.657 29.0745L126.226 31.0793C118.87 33.2919 119.216 42.9201 122.407 44.8716C123.806 45.726 127.907 45.9487 129.12 44.8716C129.482 44.5449 129.206 42.9804 129.206 42.9804C137.009 43.4058 137.578 38.8852 137.578 38.8852L140.232 38.3559C142.891 36.9014 143.482 43.0686 143.482 43.0686C141.674 60.5474 149.243 66.9461 149.243 66.9461C148.147 70.4167 144.334 69.7466 144.334 69.7466C132.232 63.4598 123.254 75.3399 123.254 75.3399C116.413 69.5125 102.297 79.8369 102.297 79.8369C94.387 81.4006 93.9188 71.8825 93.9188 71.8825C93.9188 71.8825 93.5519 65.8192 93.296 65.2628C92.9238 64.3158 94.9775 64.7945 94.9775 64.7945C101.935 52.1325 94.9775 53.8237 94.9775 53.8237C96.6635 31.9781 77.5145 36.5634 77.5145 36.5634C62.7848 40.6009 68.1807 55.2729 68.1807 55.2729C64.9469 54.4832 66.4974 59.3052 66.4974 59.3052C67.3325 66.7067 69.9785 65.0286 69.9785 65.0286C70.3218 67.6213 71.7762 71.1906 71.7762 71.1906L71.9999 77.1377C70.3375 87.007 59.9196 78.821 59.9196 78.821C53.8083 70.2044 38.4864 75.0228 38.4864 75.0228C30.5712 63.2484 18.104 69.9694 18.104 69.9694C19.4283 67.0439 17.8803 52.4907 17.8803 52.4907C19.4283 50.6929 22.5372 40.5126 22.5372 40.5126C23.8667 42.3104 29.8645 42.6266 29.8645 42.6266C30.3222 45.3285 32.2501 46.4274 32.2501 46.4274C36.3252 48.1168 34.6358 34.7787 34.6358 34.7787C35.7024 30.5446 28.894 29.5261 28.894 29.5261C17.019 26.2599 14.2691 33.7602 14.2691 33.7602L11.1707 40.4969C6.74791 45.3189 -1.5525 61.7834 -1.5525 61.7834C-6.32991 74.8883 -1.75516 77.2521 -1.75516 77.2521L6.86147 83.9496C21.4811 98.1036 30.3161 96.0717 30.3161 96.0717C42.074 95.8481 41.1061 103.46 41.1061 103.46C41.5743 115.115 49.7123 127.205 49.7123 127.205C50.3106 129.237 50.7361 131.386 51.1589 133.514H106.901C107.933 131.211 109.008 129.061 109.965 127.726C114.529 121.28 120.763 112.918 123.06 107.375C127.56 96.4762 129.694 96.7313 129.694 96.7313C145.752 96.7313 154.613 85.0878 154.613 85.0878C157.246 81.7159 161.246 77.5614 164.177 75.8964C168.119 73.6409 167.428 69.4252 167.428 69.4252Z" fill="#FFF599"/>
<path d="M70.5307 94.5088C70.5307 92.9502 70.9585 91.6787 71.8139 90.6943C72.6811 89.71 73.8471 89.2178 75.312 89.2178C76.7768 89.2178 77.9428 89.7041 78.81 90.6768C79.6889 91.6377 80.1284 92.9385 80.1284 94.5791V95.8623C80.1284 97.4443 79.6948 98.7158 78.8276 99.6768C77.9604 100.638 76.8003 101.118 75.3471 101.118C73.9057 101.118 72.7397 100.638 71.8491 99.6768C70.9702 98.7158 70.5307 97.4092 70.5307 95.7568V94.5088ZM73.7651 95.8623C73.7651 96.5654 73.9116 97.1279 74.2046 97.5498C74.5092 97.96 74.8901 98.165 75.3471 98.165C75.8159 98.165 76.185 97.9482 76.4546 97.5146C76.7358 97.0811 76.8764 96.5127 76.8764 95.8096V94.5088C76.8764 93.8291 76.7358 93.2725 76.4546 92.8389C76.1733 92.3936 75.7924 92.1709 75.312 92.1709C74.8432 92.1709 74.4682 92.3936 74.187 92.8389C73.9057 93.2725 73.7651 93.8467 73.7651 94.5615V95.8623ZM80.6206 108.905C80.6206 107.323 81.06 106.052 81.9389 105.091C82.8178 104.118 83.978 103.632 85.4194 103.632C86.8725 103.632 88.0385 104.112 88.9174 105.073C89.7963 106.022 90.2358 107.329 90.2358 108.993V110.276C90.2358 111.847 89.8081 113.118 88.9526 114.091C88.0971 115.052 86.9311 115.532 85.4546 115.532C83.9663 115.532 82.7885 115.046 81.9213 114.073C81.0542 113.101 80.6206 111.812 80.6206 110.206V108.905ZM83.8725 110.276C83.8725 110.933 84.0249 111.483 84.3296 111.929C84.646 112.374 85.021 112.597 85.4546 112.597C86.4272 112.597 86.937 111.899 86.9838 110.505V108.905C86.9838 108.214 86.8374 107.657 86.5444 107.235C86.2631 106.802 85.8881 106.585 85.4194 106.585C84.3881 106.585 83.8725 107.481 83.8725 109.274V110.276ZM76.2436 113.265L73.8881 111.929L84.3823 91.9248L86.7553 93.2607L76.2436 113.265Z" fill="white"/>
</g>
<defs>
<clipPath id="clip0">
<rect width="162" height="162" fill="white" transform="translate(0.87262)"/>
</clipPath>
</defs>
</svg>
