<svg width="30" height="30" viewBox="0 0 30 30" fill="none" xmlns="http://www.w3.org/2000/svg">
<path d="M13.1062 22.141C12.624 21.8525 12.0835 21.7822 11.6068 21.72L5.27425 20.8954C5.03332 20.8637 4.81306 21.0338 4.78171 21.2744C4.75037 21.5151 4.92005 21.7356 5.1607 21.767L11.4933 22.5916C11.9043 22.6451 12.3294 22.7004 12.655 22.8953C13.126 23.1772 13.3971 23.7432 13.6782 24.3993C13.774 24.6227 14.0327 24.7256 14.2553 24.6301C14.4784 24.5344 14.5817 24.2761 14.4861 24.053C14.2219 23.4365 13.86 22.5921 13.1062 22.141Z" fill="#536354"/>
<path d="M5.41635 19.5758C7.40631 18.938 8.85551 17.8008 9.49699 16.3737C10.0537 15.1346 9.99926 13.7592 9.95121 12.5457L9.86063 10.2654C10.7057 11.3078 11.9883 11.9239 13.3371 11.9239H16.9793C18.1716 11.9239 19.296 11.452 20.1246 10.6311L20.0488 12.5457C20.0138 13.4302 19.9741 14.4325 20.1848 15.3959C20.2363 15.6313 20.4687 15.7832 20.7081 15.7313C20.9452 15.6794 21.0953 15.4451 21.0435 15.208C20.8567 14.3547 20.8941 13.4122 20.9271 12.5804L21.0528 9.40611L22.0585 7.9026C23.0405 6.43459 23.7158 4.82162 24.072 3.10172C24.3028 3.16963 24.5399 3.20514 24.7817 3.20514C26.9047 3.20514 26.8412 1.15037 27.0301 0.577031C27.1236 0.293145 26.912 0 26.6127 0H3.38731C3.08842 0 2.87625 0.292793 2.96994 0.577031C3.15135 1.12729 3.09158 3.20508 5.21836 3.20508C5.48033 3.20508 5.73656 3.16365 5.98529 3.0842C6.2001 4.02199 6.51369 4.93617 6.92121 5.80857C7.02393 6.02854 7.28543 6.12357 7.50539 6.02074C7.72529 5.91803 7.82027 5.65652 7.71756 5.43662C7.26352 4.46461 6.93352 3.43729 6.73664 2.38277C6.64389 1.88818 6.58037 1.38404 6.54715 0.878848H23.4676C23.4452 1.39471 23.3914 1.91027 23.307 2.41699C23.008 4.21635 22.3422 5.89752 21.328 7.41381C20.381 8.50658 19.6972 11.0449 16.9794 11.0449H13.3372C11.2791 11.0449 10.2935 9.60369 8.60883 7.0343C8.47565 6.83133 8.2033 6.77461 8.00033 6.90785C7.79736 7.04092 7.74076 7.31338 7.87383 7.51635C8.15561 7.9459 8.32629 8.15965 8.93069 8.99701L9.07307 12.5805C9.11725 13.6972 9.16734 14.9629 8.69537 16.0134C8.38383 16.7065 7.50873 17.9822 5.14805 18.7388C3.61811 19.2297 1.91297 19.4016 0.315176 19.8731C0.128262 19.9281 0 20.0998 0 20.2945V29.5605C0 29.8033 0.196758 30 0.439453 30H1.94367C2.18637 30 2.38313 29.8033 2.38313 29.5605C2.38313 29.3178 2.18637 29.1211 1.94367 29.1211H0.878906V20.6274C2.36619 20.2278 3.9085 20.0595 5.41635 19.5758ZM5.81531 2.21273C5.62172 2.2875 5.42197 2.32617 5.21836 2.32617C4.27008 2.32617 4.08885 1.75424 3.93187 0.878906H5.66701C5.69455 1.32586 5.74412 1.77211 5.81531 2.21273ZM26.0681 0.878906C25.9112 1.75424 25.7299 2.32617 24.7816 2.32617C24.592 2.32617 24.4057 2.29266 24.2247 2.22762C24.2876 1.78143 24.3284 1.33025 24.3467 0.878848H26.0681V0.878906Z" fill="#536354"/>
<path d="M29.6849 19.8732C28.0752 19.3982 26.3936 19.2336 24.8519 18.7389C23.882 18.428 22.5522 17.8259 21.7247 16.7222C21.5792 16.5281 21.3037 16.4887 21.1095 16.6342C20.9153 16.7798 20.8759 17.0552 21.0215 17.2494C21.9879 18.5384 23.4921 19.226 24.5836 19.5758C26.0868 20.0581 27.6416 20.23 29.1211 20.6275V29.1212H3.74237C3.49968 29.1212 3.30292 29.3179 3.30292 29.5607C3.30292 29.8034 3.49968 30.0001 3.74237 30.0001H29.5605C29.8032 30.0001 30 29.8034 30 29.5607V20.2947C30 20.0999 29.8717 19.9283 29.6849 19.8732Z" fill="#536354"/>
<path d="M16.8705 22.1415C16.1168 22.5924 15.7549 23.4368 15.4907 24.0534C15.3951 24.2765 15.4984 24.5348 15.7215 24.6305C15.9445 24.7261 16.2029 24.6227 16.2985 24.3997C16.5797 23.7436 16.8508 23.1776 17.3218 22.8957C17.6474 22.7009 18.0725 22.6455 18.4836 22.592L24.8161 21.7674C25.0568 21.736 25.2265 21.5155 25.1951 21.2749C25.1638 21.0343 24.9436 20.8645 24.7026 20.8958L18.3701 21.7205C17.8933 21.7825 17.3529 21.8529 16.8705 22.1415Z" fill="#536354"/>
</svg>
