<svg width="43" height="43" viewBox="0 0 43 43" fill="none" xmlns="http://www.w3.org/2000/svg">
<path d="M22.827 14.8282C22.3976 14.7429 21.954 14.6973 21.5 14.6973C17.7489 14.6973 14.6973 17.7489 14.6973 21.5C14.6973 25.2511 17.7489 28.3027 21.5 28.3027C25.2511 28.3027 28.3027 25.2511 28.3027 21.5C28.3027 21.046 28.2571 20.6024 28.1718 20.173L24.1724 24.1724C23.4585 24.8863 22.5095 25.2793 21.5 25.2793C20.4905 25.2793 19.5415 24.8863 18.8276 24.1724C18.1137 23.4585 17.7207 22.5095 17.7207 21.5C17.7207 20.4905 18.1137 19.5415 18.8276 18.8276L22.827 14.8282Z" fill="#44AF5C"/>
<path d="M41.0759 12.6134L38.3654 15.3239C38.0941 15.5952 37.7884 15.8202 37.4583 15.9948C38.0554 17.7214 38.3809 19.5733 38.3809 21.5C38.3809 30.8082 30.8082 38.3809 21.5 38.3809C12.1918 38.3809 4.61914 30.8082 4.61914 21.5C4.61914 12.1918 12.1918 4.61914 21.5 4.61914C23.4274 4.61914 25.2803 4.94491 27.0072 5.54231C27.1821 5.21195 27.4055 4.90488 27.6765 4.63423L30.3866 1.9241C27.6765 0.688934 24.6675 0 21.5 0C9.64475 0 0 9.64475 0 21.5C0 33.3552 9.64475 43 21.5 43C33.3552 43 43 33.3552 43 21.5C43 18.3325 42.3111 15.3235 41.0759 12.6134Z" fill="#44AF5C"/>
<path d="M26.8507 10.8045L26.6211 8.08284C25.0296 7.47297 23.3034 7.13867 21.5 7.13867C13.5812 7.13867 7.13867 13.5812 7.13867 21.5C7.13867 29.4188 13.5812 35.8613 21.5 35.8613C29.4188 35.8613 35.8613 29.4188 35.8613 21.5C35.8613 19.6966 35.527 17.9704 34.9172 16.3789L32.1955 16.1493L30.198 18.1465C30.6008 19.1878 30.8223 20.3183 30.8223 21.5C30.8223 26.6404 26.6404 30.8223 21.5 30.8223C16.3596 30.8223 12.1777 26.6404 12.1777 21.5C12.1777 16.3596 16.3596 12.1777 21.5 12.1777C22.6817 12.1777 23.8122 12.3992 24.8535 12.802L26.8507 10.8045Z" fill="#44AF5C"/>
<path d="M29.093 7.41253L29.4598 11.7587L20.6093 20.6092C20.1172 21.101 20.1172 21.8988 20.6093 22.3906C20.855 22.6367 21.1775 22.7597 21.5 22.7597C21.8225 22.7597 22.145 22.6367 22.3907 22.3906L31.2412 13.5401L35.5874 13.9066C35.6228 13.9095 35.6579 13.9111 35.6934 13.9111C36.026 13.9111 36.3469 13.7793 36.5841 13.5421L41.9285 8.19725C42.2753 7.85082 42.3895 7.33445 42.2212 6.87384C42.0526 6.41324 41.6323 6.0924 41.1438 6.05139L37.2746 5.72496L36.9485 1.85611C36.9072 1.36729 36.5863 0.947042 36.1261 0.778745C35.6655 0.61012 35.1491 0.724614 34.8023 1.07105L29.4578 6.41587C29.1954 6.67832 29.0619 7.0428 29.093 7.41253Z" fill="#44AF5C"/>
</svg>
