<svg width="43" height="44" viewBox="0 0 43 44" fill="none" xmlns="http://www.w3.org/2000/svg">
<g clip-path="url(#clip0)">
<path d="M38.8024 8.83731L31.521 16.1491C32.0172 17.0505 32.4122 18.0125 32.6755 19.0151H42.9748C42.4887 15.3187 41.0507 11.8147 38.8024 8.83731Z" fill="#44AF5C"/>
<path d="M24.3506 0.391602V10.6707C25.3734 10.934 26.3558 11.329 27.2773 11.8454L34.5284 4.564C31.551 2.31577 28.047 0.877706 24.3506 0.391602Z" fill="#44AF5C"/>
<path d="M6.14235 6.66014C2.85102 10.0224 0.724311 14.3568 0.0761719 19.0254H10.3654C10.8819 17.081 11.8743 15.2885 13.2618 13.8302C14.6188 12.3719 16.3607 11.3085 18.2747 10.7515V0.462311C13.6668 1.14083 9.4033 3.31818 6.14235 6.66014Z" fill="#44AF5C"/>
<path d="M10.345 24.8487L0.0253906 24.869C1.38243 34.3987 8.85629 41.9029 18.386 43.2903C18.4163 39.523 18.4467 34.6721 18.4569 32.9809C14.4971 31.8973 11.4083 28.8085 10.345 24.8487Z" fill="#44AF5C"/>
<path d="M25.1304 32.9096L32.7055 40.4847C33.4144 40.0594 34.0929 39.5935 34.7512 39.0872L27.49 31.826C26.7406 32.2716 25.9507 32.6362 25.1304 32.9096Z" fill="#44AF5C"/>
<path d="M29.6571 30.1447C29.3837 30.408 29.1102 30.6511 28.8267 30.884L35.9967 38.0541C36.6043 37.5072 37.1715 36.9401 37.7183 36.3324L30.5382 29.1624C30.2647 29.5067 29.971 29.8308 29.6571 30.1447Z" fill="#44AF5C"/>
<path d="M24.4722 43.3912C25.3532 43.2697 26.214 43.0976 27.0749 42.8748L24.4823 40.2822L24.4722 43.3912Z" fill="#44AF5C"/>
<path d="M24.4824 38.0135L28.8168 42.3378C29.6473 42.0442 30.4473 41.6998 31.2271 41.3049L24.5027 34.5804L24.4824 38.0135Z" fill="#44AF5C"/>
<path d="M40.2197 25.0914L42.4983 27.37C42.6908 26.6206 42.8427 25.8611 42.9439 25.0914H40.2197Z" fill="#44AF5C"/>
<path d="M31.48 27.8052L38.7513 35.0765C39.2475 34.4283 39.7134 33.7397 40.1387 33.0308L32.5433 25.4354C32.28 26.2557 31.9256 27.0558 31.48 27.8052Z" fill="#44AF5C"/>
<path d="M34.498 25.0914L40.9389 31.5424C41.3339 30.7525 41.6681 29.9525 41.9618 29.122L37.9312 25.0914H34.498Z" fill="#44AF5C"/>
</g>
<defs>
<clipPath id="clip0">
<rect width="43" height="43" fill="white" transform="translate(0 0.391602)"/>
</clipPath>
</defs>
</svg>
