<svg width="45" height="41" viewBox="0 0 45 41" fill="none" xmlns="http://www.w3.org/2000/svg">
<path fill-rule="evenodd" clip-rule="evenodd" d="M44.079 40.7127C43.77 40.2988 43.428 39.8874 43.2639 39.8771C43.1315 39.8581 42.999 39.8392 42.8666 39.8392C42.7232 40.1615 42.5289 40.4468 42.3089 40.7127H44.079ZM24.966 40.7127C24.9474 40.6609 24.9285 40.6098 24.909 40.5599C24.89 40.5409 24.8711 40.5219 24.8711 40.484L24.8143 40.3702C24.8035 40.3593 24.7988 40.3547 24.7969 40.3491C24.7954 40.345 24.7954 40.3403 24.7954 40.3323C24.727 40.1814 24.6369 39.9777 24.5266 39.7249C24.7371 40.2765 24.8972 40.7127 24.8903 40.7127C24.8903 40.7127 24.8524 40.6558 24.8146 40.542C24.5518 39.8795 24.2789 39.2371 24.0566 38.7138L24.0566 38.7138L24.0566 38.7137C23.7916 38.0899 23.5986 37.6355 23.5803 37.5181C23.1212 36.4374 22.5605 35.108 21.9192 33.5803C21.8563 33.4417 21.9854 33.1945 22.0958 32.983C22.1517 32.8759 22.2029 32.7779 22.2219 32.7078C22.3355 32.2906 22.3733 31.8354 22.3922 31.3991C22.3922 30.5836 22.2598 29.768 22.0138 28.9904C21.5218 27.4352 20.6514 25.9937 19.7998 24.6471L19.7494 24.5698C19.4973 24.1846 19.1095 23.5921 19.2511 23.1488C19.3646 22.8074 19.9134 22.4281 20.2729 22.5039C20.3539 22.5202 20.4315 22.5608 20.51 22.6019C20.6149 22.6567 20.7216 22.7126 20.8406 22.7126C21.0298 22.7126 21.2001 22.5988 21.2758 22.4281C21.3704 22.2763 21.3893 22.0677 21.3515 21.897C21.3452 21.8464 21.3347 21.7958 21.3242 21.7453C21.3031 21.6441 21.2821 21.543 21.2947 21.4418C21.3179 21.2442 21.5259 21.0609 21.7226 20.8874C21.8469 20.7778 21.9668 20.6722 22.0327 20.5694C22.2452 20.2499 22.3914 19.8641 22.5333 19.4895L22.5625 19.4124C23.3384 17.1933 23.9817 14.9364 24.6062 12.6604C24.663 12.4518 24.7197 12.2242 24.644 12.0155C24.5851 11.8826 24.4917 11.7957 24.3997 11.71C24.3735 11.6857 24.3475 11.6614 24.3223 11.6362C23.0474 10.5811 21.5121 9.97522 19.9802 9.37073C19.034 8.99731 18.089 8.6244 17.2074 8.14641L17.0973 8.08385C16.7015 7.85878 16.3175 7.64044 15.9018 7.50155C14.8989 7.17912 13.7824 7.31189 12.7417 7.46362C13.6121 6.81876 13.9149 5.81355 13.877 4.75143C13.877 4.39107 13.8013 4.01174 13.7257 3.65138C13.7824 3.67035 13.8392 3.68932 13.896 3.72725C14.135 3.86415 14.2354 4.07825 14.2805 4.17452C14.2854 4.18495 14.2896 4.19399 14.2933 4.20141C14.369 4.04968 14.4447 3.82208 14.4447 3.53759L14.443 3.52359C14.4243 3.37177 14.396 3.14104 14.0473 2.58927C13.7635 2.13408 13.5364 1.79268 13.1201 1.39439C12.912 1.20473 12.5714 0.939198 12.1172 0.730568C11.3792 0.351242 10.698 0.332275 10.3953 0.332275C10.1303 0.332275 8.06777 0.351242 7.21625 1.84958C6.91349 2.41857 6.87565 2.9686 6.87565 3.27206C6.81865 3.48912 6.7754 3.68554 6.7376 3.85717L6.73759 3.85721C6.71264 3.9705 6.69007 4.07298 6.6675 4.16348C6.57288 4.56177 6.57288 4.73247 6.62965 4.92213C6.68642 5.09283 6.78103 5.22559 6.85672 5.30146C6.73374 5.4911 6.61548 5.68548 6.49723 5.87987L6.49719 5.87993L6.49717 5.87997C6.37891 6.07436 6.26065 6.26875 6.13766 6.4584C6.13766 6.5153 6.17551 6.59117 6.23228 6.66703C6.35336 6.82308 6.56934 6.80477 6.61998 6.80048C6.62473 6.80008 6.62803 6.7998 6.62965 6.7998C6.64858 7.52052 6.70534 8.05157 6.76211 8.41193C6.78103 8.6016 6.81888 8.79126 6.97026 8.98093C7.18696 9.23591 7.46466 9.28869 7.73794 9.34064C8.01349 9.39301 8.28456 9.44454 8.48407 9.70165L9.10852 10.5551L9.15991 10.6251C9.3502 10.8838 9.53261 11.1317 9.61943 11.4276C9.77081 11.9207 9.75189 13.0587 9.61943 13.5708C9.55347 13.8352 9.40772 14.0903 9.25932 14.35C9.10973 14.6118 8.95744 14.8783 8.88145 15.1639C8.78684 15.5433 8.46515 16.8709 9.18421 18.2175C9.2126 18.2555 9.23625 18.2934 9.2599 18.3313C9.28356 18.3693 9.30721 18.4072 9.33559 18.4451C9.35452 18.5589 9.36871 18.6727 9.3829 18.7865L9.38291 18.7866C9.3971 18.9004 9.41129 19.0141 9.43021 19.1279C9.39236 19.4503 9.37344 19.7917 9.39236 20.1711C9.43021 21.1952 9.69513 22.0487 9.94112 22.6367C9.52482 22.6557 8.97606 22.6367 8.35161 22.5419C7.87855 22.485 7.08379 22.3522 6.11874 21.9729C5.60784 21.7832 5.13478 21.5177 4.66173 21.2522L4.66169 21.2521C4.09401 20.9107 3.98048 20.3797 4.13186 19.7538C3.90479 19.5262 3.79125 19.3176 3.73448 19.1658C3.70736 19.0979 3.68995 19.0348 3.67268 18.9722C3.64178 18.8601 3.61132 18.7497 3.52633 18.6158C3.47945 18.5406 3.4465 18.512 3.41138 18.4815C3.37563 18.4505 3.33761 18.4174 3.28034 18.3313C3.1734 18.1884 3.11263 18.0539 3.0664 17.9516C3.01446 17.8367 2.98088 17.7623 2.92081 17.7623C2.87309 17.7623 2.82537 17.8159 2.80013 17.8443C2.79534 17.8497 2.79137 17.8541 2.78835 17.8572C2.54236 18.1796 2.90189 18.9193 2.93973 18.9951C2.93973 19.0004 2.94697 19.0202 2.95865 19.052L2.95866 19.0521C2.9892 19.1354 3.05005 19.3015 3.09111 19.5072C3.11003 19.64 3.11004 19.7159 3.07219 19.7538C3.03434 19.8107 2.92081 19.7917 2.69374 19.7348C2.53251 19.6989 2.33736 19.629 2.09223 19.5412L2.09216 19.5412L2.05036 19.5262C2.03144 19.4693 1.88006 19.2417 1.61514 19.1848C1.53945 19.1469 1.33131 19.1089 1.161 19.2417C1.02855 19.3555 0.952851 19.5452 0.990696 19.7159C0.952851 19.7538 0.877162 19.8297 0.839317 19.9245C0.750399 20.1384 0.862036 20.3523 0.891505 20.4088L0.896083 20.4176C0.839315 20.4556 0.763624 20.5125 0.706856 20.6073C0.612243 20.778 0.650088 20.9866 0.801469 21.1573C0.763624 21.1952 0.725779 21.2711 0.706856 21.3849C0.59332 21.8401 0.952851 22.2953 1.3313 22.5039C1.38482 22.5334 1.44022 22.5644 1.49709 22.5963L1.49723 22.5964C1.84251 22.7897 2.24174 23.0132 2.59912 23.1108C2.71138 23.1409 2.82069 23.1531 2.9282 23.1651C3.09252 23.1834 3.25266 23.2013 3.4128 23.2815C3.50966 23.3204 3.59165 23.3791 3.67653 23.4399L3.67654 23.4399C3.75747 23.4978 3.84104 23.5577 3.94263 23.604C4.20793 23.7258 4.48615 23.783 4.76219 23.8397C4.95868 23.8801 5.15407 23.9202 5.34291 23.9833C5.94761 24.1673 6.46603 24.518 6.9861 24.8699C7.3774 25.1346 7.76963 25.4 8.20023 25.5954C9.20313 26.0317 10.452 26.1265 11.5306 26.1644C11.6063 26.7524 11.7199 27.2455 11.8334 27.5679C11.8711 27.7066 10.7386 28.7417 9.88034 29.5262C9.44724 29.922 9.08395 30.2541 8.97606 30.375C7.97316 31.475 7.02703 32.6699 6.17551 33.9027C5.80222 34.4481 5.51355 34.968 5.23665 35.4667C4.68538 36.4596 4.18073 37.3685 3.14788 38.227C2.44774 38.815 2.10713 39.8202 2.29636 40.7116C2.29645 40.712 2.29654 40.7124 2.29663 40.7127H8.33301C8.5605 40.4981 8.80616 40.2814 9.07068 40.0667C9.94112 39.346 10.944 38.6632 11.9848 38.246C12.2118 38.1701 12.4389 38.0942 12.6471 37.9805C12.8771 37.8591 13.1343 37.5998 13.4069 37.3251C13.9861 36.7413 14.6347 36.0876 15.2395 36.539C15.6447 36.8471 15.9984 37.3829 16.3157 37.8635C16.428 38.0337 16.5358 38.197 16.6397 38.3408C17.0099 38.862 17.3514 39.4203 17.6908 39.9753L17.6909 39.9753C17.8423 40.223 17.9934 40.47 18.1464 40.7127L24.8903 40.7127L24.966 40.7127ZM18.7402 18.9003C19.0051 18.7107 19.0997 18.5589 19.1375 18.4262C19.1437 18.4137 19.152 18.387 19.1636 18.3493C19.1874 18.2721 19.2254 18.1491 19.2889 18.0089C19.3227 17.93 19.3631 17.8644 19.3904 17.8203C19.4089 17.7902 19.4214 17.77 19.4214 17.7623C19.6863 17.3261 19.8566 16.3968 19.8566 16.3968C20.0407 15.3732 20.1508 14.1567 20.1869 13.7584L20.1869 13.7582C20.1916 13.7064 20.195 13.6685 20.1972 13.6466C19.7998 13.6087 19.4025 13.5708 18.9862 13.5328C18.9862 13.9501 18.9862 14.4053 18.9483 14.8795C18.8726 15.714 18.7023 16.4347 18.532 17.0606C18.6077 17.6675 18.6834 18.2934 18.7402 18.9003Z" fill="#44AF5C"/>
<g clip-path="url(#clip0)">
<path d="M44.4062 10.8519C44.3158 10.7437 44.1953 10.7282 44.1201 10.7128C44.2104 10.5272 44.1652 10.3107 44.0448 10.187C43.9394 10.0942 43.8189 10.0942 43.7737 10.0942C44.0146 10.0942 43.2015 9.58389 43.1714 9.56842C42.554 9.36739 41.6505 9.38286 41.5601 10.1715C41.4396 11.2231 41.5601 12.2282 41.53 13.2488C41.6053 13.4653 41.7107 13.6354 41.7709 13.7437C41.7257 15.6303 40.9578 17.3004 40.0241 18.8622C39.7832 19.2643 39.5724 19.589 39.4067 19.821C39.1959 19.5736 38.8646 19.2179 38.4279 18.8158C37.163 17.6561 36.0336 16.7128 34.9343 15.3829C34.8289 15.2591 34.7085 15.1354 34.603 15.0426C34.1814 14.6715 33.7297 14.5169 33.1725 14.254C32.8563 14.0994 32.6153 13.9138 32.4798 13.7746C32.4497 13.6045 32.4045 13.2643 32.5099 12.8622C32.6003 12.553 32.7508 12.3365 32.8563 12.1973C33.5941 12.5994 34.0609 12.4447 34.1814 12.3983C34.5729 12.2437 34.8139 11.8416 35.3108 11.053C35.4614 10.8055 35.5668 10.62 35.6421 10.4808C35.6722 10.4808 35.868 10.5427 36.0336 10.4344C36.139 10.3725 36.1842 10.2952 36.1993 10.2488C36.139 10.0478 36.0788 9.78492 36.0637 9.46018C36.0637 9.27461 36.0637 9.11997 36.0788 8.98079C36.2444 8.79523 36.4101 8.60966 36.5757 8.43956C36.6811 8.22306 36.8016 7.92925 36.8618 7.55811C37.0425 6.50657 36.8317 5.56327 36.3047 4.85193C35.7626 4.07873 34.8741 3.55296 33.8049 3.39832C33.2628 3.321 32.6906 3.33646 32.1636 3.53749C31.9377 3.63028 31.6516 3.90863 31.4257 3.93956C31.2299 3.95502 30.8685 3.75399 30.6878 3.66121C30.1005 3.33646 30.0855 2.96533 29.5885 2.51688C28.173 1.15605 26.3208 1.71275 25.4776 3.39832C25.854 3.27461 26.1552 3.321 26.2305 3.46018C26.4865 4.00141 25.0559 4.4344 24.83 4.03234C24.9204 4.18698 25.3119 4.79007 26.0197 4.92925C26.2455 4.97564 26.4413 4.96018 26.5919 4.92925C26.4262 5.36224 26.2455 5.81069 26.0197 6.25914C25.854 6.61481 25.6884 6.93956 25.5227 7.24884C25.6131 7.23337 26.1552 7.14059 26.3811 6.67667C26.3208 6.93956 26.2606 7.24884 26.2305 7.57358C26.1552 8.5478 26.3359 9.35193 26.5015 9.84677C26.4564 9.63028 26.3359 8.82615 26.8328 8.16121C26.9533 8.00657 27.0738 7.88286 27.2093 7.79007C27.1942 7.91378 27.1491 8.70244 27.6912 9.21275C27.8418 9.35193 28.0074 9.44471 28.1429 9.50657C28.0225 9.1509 27.8418 8.3777 28.0375 7.4344C28.2785 6.27461 28.9561 5.56327 29.2271 5.31585C29.2271 5.50141 29.2121 5.82615 29.197 6.22822C29.1669 7.60451 29.197 7.97564 28.9862 8.43956C28.8959 8.64059 28.7302 8.94987 28.3688 9.25914C28.5495 9.25914 28.8206 9.24368 29.0615 9.08904C29.3928 8.87255 29.4681 8.51688 29.6789 8.2076C29.7542 8.25399 29.7692 8.31585 29.7994 8.40863C30.1005 9.24368 30.0102 10.1251 29.3476 10.7128C29.3175 10.7437 29.2874 10.7591 29.2573 10.7901C28.9561 11.0375 28.6399 11.1303 28.4742 11.1767C28.414 11.1457 28.3387 11.0994 28.2333 11.053C28.0074 10.9602 27.7062 10.8674 27.3448 10.821C27.1641 10.8055 26.5919 10.7437 25.8992 10.9756C25.1312 11.2385 24.4385 11.8571 23.8964 12.5994C23.4145 13.2179 23.0531 13.9138 22.7971 14.5478C22.1647 15.2746 21.5021 16.0478 20.8847 16.8519C19.665 18.4447 18.6109 20.1921 18.2344 22.1561C17.8579 24.12 18.4151 26.1767 17.9483 28.0942C17.888 28.3571 17.8278 28.5117 17.7676 28.7128C17.617 29.2231 17.4363 29.9963 17.3911 31.0478C17.4363 31.2024 17.5417 31.4499 17.7525 31.6818C17.9633 31.9292 18.1742 32.0684 18.3097 32.1303C18.4452 32.2231 18.897 32.4396 19.409 32.3158C19.5445 32.2849 19.665 32.2231 19.7553 32.1767C19.8155 32.254 19.8758 32.3313 19.921 32.4086C20.1619 32.1457 20.4028 31.8829 20.6438 31.62C20.5986 31.187 20.5534 30.7385 20.5082 30.3055C20.2824 30.0427 19.9661 29.5787 19.7402 28.9447C19.6951 28.821 19.5897 28.4963 19.5294 28.0323C19.4993 27.7695 19.409 26.8725 19.9511 24.8622C20.2522 23.7179 20.448 22.4808 20.8395 21.3674C21.0202 20.8571 21.231 20.4705 21.3816 20.2231C21.4419 20.1767 21.487 20.1303 21.5322 20.0839C22.5713 19.2024 23.4748 18.089 24.5289 17.2231C24.8752 16.9292 25.2366 16.6664 25.6281 16.4499C25.6432 16.4344 25.6733 16.4189 25.7034 16.4035C26.6371 18.3519 27.1039 19.9447 27.3448 21.0427C27.4502 21.5066 27.4352 21.5066 27.5707 22.1251C27.9472 23.7643 28.6549 25.4963 27.9923 27.1509C27.6159 27.4447 24.559 29.9653 24.9204 33.3519C24.9656 33.8622 25.1162 34.5117 25.4776 35.2385C24.2879 37.7901 23.5651 39.522 23.1284 40.6818H29.5735C29.6789 40.4808 29.7994 40.2952 29.9048 40.1097C30.2511 39.4911 30.5824 38.9035 30.8836 38.3158C31.8774 39.1354 32.7207 39.7695 33.308 40.2024C33.5339 40.3725 33.7748 40.5427 34.0007 40.6973H42.4486C41.289 39.089 39.5121 37.6973 38.2773 36.522C36.2595 34.5736 34.2868 32.7952 33.3231 31.9292C33.5791 31.4499 33.9254 30.7231 34.1663 29.7798C34.2115 29.6097 34.2567 29.4396 34.3621 28.6973C34.3922 28.5272 34.4223 28.3107 34.4525 28.0787C34.5428 27.4138 34.6633 26.6097 34.7536 25.6818C34.7838 25.3416 34.8289 24.986 34.859 24.6148C34.9494 23.6561 34.9494 23.3158 34.8741 22.8983C34.844 22.7437 34.7838 22.4344 34.7536 22.0169C34.6934 21.3674 34.7536 21.1354 34.8139 21.0117C34.9343 20.7179 35.1301 20.5169 35.2506 20.4241C36.5456 21.3674 37.6901 22.589 39.1658 23.2076C39.4067 23.3158 39.6627 23.3932 39.9037 23.455C39.9488 23.4705 40.0091 23.4705 40.0542 23.455C40.5211 23.3622 40.9728 22.388 41.0481 22.0323C41.3041 20.9344 41.9215 19.9911 42.3281 18.955C42.7046 17.9499 42.81 16.8674 43.1262 15.8468C43.2918 15.3519 43.4424 14.9653 43.5328 14.7024C43.5328 14.5787 43.5328 14.4086 43.5779 14.1921C43.6382 13.8365 43.7436 13.589 43.8189 13.4189C43.9394 13.1251 44.105 12.7076 44.3158 12.12C44.3309 11.7488 44.361 11.4859 44.3761 11.3313C44.4815 11.1148 44.4965 10.9602 44.4062 10.8519ZM29.95 5.87255C29.8897 5.96533 29.8445 6.04265 29.7994 6.13543C29.7692 5.85708 29.7542 5.60966 29.8295 5.2076C29.9048 4.89832 30.0102 4.40347 30.2963 4.34162C30.4469 4.31069 30.6426 4.4344 30.8083 4.6509C30.3565 5.19213 30.0704 5.64059 29.95 5.87255Z" fill="#44AF5C"/>
</g>
<defs>
<clipPath id="clip0">
<rect width="27" height="39" fill="white" transform="translate(17.4663 1.71277)"/>
</clipPath>
</defs>
</svg>
