<svg width="42" height="42" viewBox="0 0 42 42" fill="none" xmlns="http://www.w3.org/2000/svg">
<g clip-path="url(#clip0)">
<path d="M32.2628 0H9.73703C4.82959 0 1.00086 4.2429 1.50806 9.11917L4.15743 34.5894C4.59555 38.8005 8.14833 42 12.3865 42H19.7694V32.1133C19.7694 31.4345 20.3204 30.8841 20.9999 30.8841C21.6795 30.8841 22.2304 31.4345 22.2304 32.1133V42H29.6134C33.8515 42 37.4043 38.8005 37.8423 34.5894L40.4917 9.11917C40.999 4.2429 37.1702 0 32.2628 0V0ZM34.9584 13.4682L28.2537 21.1673C28.0199 21.4356 27.6814 21.5897 27.3253 21.5897H14.6745C14.3184 21.5897 13.9798 21.4357 13.7461 21.1673L7.04148 13.4682C6.63862 13.0056 6.63862 12.3172 7.04148 11.8546C10.7591 7.58551 15.7164 5.2345 20.9999 5.2345C26.2835 5.2345 31.2407 7.58559 34.9584 11.8547C35.3612 12.3172 35.3612 13.0056 34.9584 13.4682Z" fill="#44AF5C"/>
<path d="M30.1621 10.7535L29.0946 12.0171C28.8512 12.3087 28.5012 12.4593 28.1488 12.4593C27.871 12.4593 27.5917 12.3658 27.3615 12.1742C26.8396 11.7395 26.7692 10.9644 27.2043 10.4429L28.0341 9.42927C26.2151 8.48271 24.2568 7.90899 22.2305 7.74353V9.25742C22.2305 9.93631 21.6796 10.4867 21.0001 10.4867C20.3205 10.4867 19.7696 9.93631 19.7696 9.25742V7.74353C17.7433 7.90899 15.785 8.48271 13.966 9.42919L14.7957 10.4429C15.2309 10.9643 15.1604 11.7394 14.6385 12.1741C14.4084 12.3657 14.129 12.4592 13.8512 12.4592C13.4987 12.4592 13.1489 12.3087 12.9055 12.017L11.8339 10.7564C11.0586 11.3249 10.3184 11.9683 9.62061 12.684L15.235 19.1312H18.5117L20.4441 14.9497C20.663 14.4761 21.3369 14.4761 21.5557 14.9497L23.4882 19.1312H26.7649L32.3793 12.684C31.6805 11.9672 30.939 11.3228 30.1621 10.7535Z" fill="#44AF5C"/>
</g>
<defs>
<clipPath id="clip0">
<rect width="42" height="42" fill="white"/>
</clipPath>
</defs>
</svg>
