<svg width="43" height="43" viewBox="0 0 43 43" fill="none" xmlns="http://www.w3.org/2000/svg">
<g clip-path="url(#clip0)">
<path d="M42.2492 13.209L38.6935 9.65326L41.3665 6.98129C41.6028 6.74521 41.7357 6.42531 41.7357 6.09072C41.7357 5.75612 41.6028 5.43623 41.3666 5.20006L37.7878 1.62131C37.3154 1.1489 36.4788 1.1489 36.0064 1.62131L33.3345 4.29429L29.7782 0.737879C28.7943 -0.246 27.199 -0.246 26.2151 0.737879C25.231 1.72176 25.231 3.31704 26.2151 4.30101L38.686 16.7721C39.6701 17.756 41.2654 17.756 42.2492 16.7721C43.2331 15.7882 43.2331 14.193 42.2492 13.209Z" fill="#44AF5C"/>
<path d="M16.7853 38.6989L4.3143 26.2278C3.33026 25.2439 1.73514 25.2439 0.751093 26.2278C-0.232786 27.2119 -0.232786 28.8071 0.751093 29.791L4.30742 33.3473L1.63965 36.014C1.4034 36.2503 1.27054 36.5701 1.27054 36.9047C1.27054 37.2393 1.4034 37.5592 1.63965 37.7953L5.2184 41.3729C5.46439 41.6191 5.78672 41.7421 6.10905 41.7421C6.43139 41.7421 6.75372 41.6191 6.99971 41.373L9.66639 38.7063L13.2221 42.2621C14.206 43.246 15.8013 43.246 16.7853 42.2621C17.7693 41.2781 17.7693 39.6828 16.7853 38.6989Z" fill="#44AF5C"/>
<path d="M22.6516 14.9906L15.0034 22.6648L20.3482 28.0096L27.9963 20.3352L22.6516 14.9906Z" fill="#44AF5C"/>
<path d="M38.686 20.3352L22.6517 4.30099C21.6679 3.31711 20.0725 3.31711 19.0886 4.30099C18.1046 5.28504 18.1046 6.88015 19.0886 7.8642L35.1229 23.8984C36.1067 24.8823 37.702 24.8823 38.686 23.8984C39.67 22.9146 39.67 21.3193 38.686 20.3352Z" fill="#44AF5C"/>
<path d="M23.9116 35.1357L7.87725 19.1014C6.89337 18.1175 5.29809 18.1175 4.31421 19.1014C3.33016 20.0854 3.33016 21.6807 4.31421 22.6646L20.3485 38.6988C21.3323 39.6827 22.9276 39.6827 23.9116 38.6988C24.8956 37.715 24.8956 36.1197 23.9116 35.1357Z" fill="#44AF5C"/>
</g>
<defs>
<clipPath id="clip0">
<rect width="43" height="43" fill="white"/>
</clipPath>
</defs>
</svg>
