<svg width="43" height="43" viewBox="0 0 43 43" fill="none" xmlns="http://www.w3.org/2000/svg">
<path d="M21.4995 10.75C24.468 10.75 26.8745 8.34353 26.8745 5.375C26.8745 2.40647 24.468 0 21.4995 0C18.531 0 16.1245 2.40647 16.1245 5.375C16.1245 8.34353 18.531 10.75 21.4995 10.75Z" fill="#44AF5C"/>
<path d="M29.7617 28.0844L28.5074 15.8589C28.3668 14.4776 27.1869 13.4375 25.7672 13.4375H17.235C15.8126 13.4375 14.6327 14.4776 14.4921 15.8563L13.2378 28.0844C13.1992 28.4633 13.326 28.8369 13.5879 29.1218C13.847 29.4013 14.2192 29.5625 14.6079 29.5625H16.1158L17.2461 40.5813C17.3867 41.9573 18.5693 43 19.9918 43H23.0104C24.4329 43 25.6128 41.9573 25.7534 40.5813L26.8837 29.5625H28.3916C28.7831 29.5625 29.1525 29.4013 29.4144 29.1218C29.6763 28.8396 29.8031 28.4633 29.7617 28.0844Z" fill="#44AF5C"/>
</svg>
