<svg width="43" height="43" viewBox="0 0 43 43" fill="none" xmlns="http://www.w3.org/2000/svg">
<path d="M28.7646 23.5156H30.6559L30.0647 22.1719H28.1733L28.7646 23.5156Z" fill="#44AF5C"/>
<path d="M27.582 20.8281H29.4733L28.8821 19.4844H26.9907L27.582 20.8281Z" fill="#44AF5C"/>
<path d="M16.7971 7.17982C16.7953 7.79771 16.9162 8.40981 17.1526 8.98068C17.389 9.55155 17.7363 10.0699 18.1744 10.5056L20.4008 12.732C20.8996 13.2325 21.5051 13.6136 22.1721 13.8468V12.0938C22.1727 11.5594 22.3852 11.047 22.7631 10.6692C23.141 10.2913 23.6533 10.0787 24.1877 10.0781H26.2033C26.6699 10.0777 27.1221 10.2399 27.482 10.5368L35.3313 2.6875H18.4191L16.7803 4.32679C16.7915 4.41335 16.7971 4.50054 16.7971 4.58781V7.17982Z" fill="#44AF5C"/>
<path d="M25.2173 15.4531L26.3998 18.1406H28.2911L27.1086 15.4531H25.2173Z" fill="#44AF5C"/>
<path d="M26.2031 11.4219H24.1875C24.0094 11.4221 23.8386 11.4929 23.7126 11.6189C23.5867 11.7448 23.5158 11.9156 23.5156 12.0938V14.1043C23.5857 14.1074 23.6559 14.1094 23.7264 14.1094H26.875V12.0938C26.8748 11.9156 26.804 11.7448 26.678 11.6189C26.552 11.4929 26.3813 11.4221 26.2031 11.4219Z" fill="#44AF5C"/>
<path d="M26.0542 35.0668L4.7032 13.7157L4.29353 14.1255C3.57153 14.8479 3.10414 15.7855 2.96189 16.7969C2.81964 17.8082 3.01027 18.8384 3.505 19.7319L4.89973 18.3372C4.96215 18.2747 5.03626 18.2252 5.11782 18.1914C5.19938 18.1576 5.2868 18.1403 5.37508 18.1403C5.46336 18.1403 5.55078 18.1576 5.63234 18.1914C5.7139 18.2252 5.78801 18.2747 5.85043 18.3372C5.91285 18.3996 5.96237 18.4737 5.99615 18.5552C6.02994 18.6368 6.04733 18.7242 6.04733 18.8125C6.04733 18.9008 6.02994 18.9882 5.99615 19.0698C5.96237 19.1513 5.91285 19.2254 5.85043 19.2879L4.32754 20.8107L7.40809 23.8913L8.93098 22.3684C9.05705 22.2423 9.22804 22.1715 9.40633 22.1715C9.58462 22.1715 9.75561 22.2423 9.88168 22.3684C10.0077 22.4945 10.0786 22.6655 10.0786 22.8438C10.0786 23.022 10.0078 23.193 9.88168 23.3191L8.35879 24.842L10.8492 27.3325C10.9114 27.395 10.9855 27.4447 11.067 27.4784C11.1486 27.5122 11.236 27.5295 11.3243 27.5292H13.4376C13.972 27.5298 14.4843 27.7424 14.8622 28.1203C15.24 28.4981 15.4526 29.0105 15.4532 29.5449V31.6934C15.453 31.7817 15.4702 31.8692 15.504 31.9507C15.5378 32.0322 15.5874 32.1063 15.65 32.1685L16.797 33.3152L18.3372 31.7747C18.4633 31.6486 18.6343 31.5778 18.8126 31.5778C18.9909 31.5778 19.1619 31.6486 19.2879 31.7747C19.414 31.9007 19.4848 32.0717 19.4848 32.25C19.4848 32.4283 19.414 32.5993 19.2879 32.7254L17.7474 34.2656L20.8282 37.3464L22.3685 35.8059C22.4309 35.7435 22.505 35.694 22.5866 35.6602C22.6681 35.6264 22.7555 35.609 22.8438 35.609C22.9321 35.609 23.0195 35.6264 23.1011 35.6602C23.1826 35.694 23.2568 35.7435 23.3192 35.8059C23.3816 35.8683 23.4311 35.9424 23.4649 36.024C23.4987 36.1056 23.5161 36.193 23.5161 36.2813C23.5161 36.3695 23.4987 36.457 23.4649 36.5385C23.4311 36.6201 23.3816 36.6942 23.3192 36.7566L21.8024 38.2733C23.3719 39.5957 25.3596 40.3183 27.4119 40.3125H29.5626V39.6406C29.5626 39.4624 29.6334 39.2915 29.7594 39.1655C29.8854 39.0395 30.0563 38.9688 30.2344 38.9688C30.4126 38.9688 30.5835 39.0395 30.7095 39.1655C30.8355 39.2915 30.9063 39.4624 30.9063 39.6406V40.3125H34.9376V39.6406C34.9376 39.4624 35.0084 39.2915 35.1344 39.1655C35.2604 39.0395 35.4313 38.9688 35.6094 38.9688C35.7876 38.9688 35.9585 39.0395 36.0845 39.1655C36.2105 39.2915 36.2813 39.4624 36.2813 39.6406V40.3125H38.2969C38.8313 40.3119 39.3437 40.0994 39.7215 39.7215C40.0994 39.3436 40.312 38.8313 40.3126 38.2969V37.625H32.2303C31.0829 37.6281 29.9462 37.4037 28.886 36.9645C27.8259 36.5254 26.8634 35.8804 26.0542 35.0668Z" fill="#44AF5C"/>
<path d="M9.40633 12.7656C9.40915 11.7498 9.08056 10.7607 8.47041 9.94853L5.65332 12.7656L8.47041 15.5827C9.08056 14.7705 9.40915 13.7815 9.40633 12.7656Z" fill="#44AF5C"/>
<path d="M18.27 15.9764C18.9546 16.6647 19.769 17.2104 20.666 17.5819C21.5629 17.9534 22.5247 18.1433 23.4955 18.1406H24.9316L23.7491 15.4531H23.7265C22.9321 15.4553 22.1451 15.2999 21.4112 14.9959C20.6773 14.6919 20.011 14.2453 19.4508 13.6821L17.2244 11.4556C16.6611 10.8955 16.2145 10.2291 15.9105 9.49516C15.6064 8.76122 15.451 7.97426 15.4532 7.17983V4.58782C15.4532 4.45494 15.4138 4.32503 15.3399 4.21454C15.2661 4.10404 15.1612 4.01792 15.0384 3.96707C14.9156 3.91621 14.7805 3.90291 14.6502 3.92884C14.5199 3.95476 14.4001 4.01876 14.3062 4.11272L12.7657 5.65325V7.41079C12.763 8.38163 12.9529 9.34336 13.3244 10.2403C13.6959 11.1373 14.2416 11.9516 14.9299 12.6363L18.27 15.9764Z" fill="#44AF5C"/>
<path d="M31.487 29.7024C31.6446 30.0604 31.903 30.3648 32.2305 30.5786C32.5581 30.7923 32.9408 30.9062 33.332 30.9062H33.908L32.4299 27.5469H30.5386L31.487 29.7024Z" fill="#44AF5C"/>
<path d="M36.9534 32.25H33.332C32.6801 32.2499 32.0423 32.0601 31.4963 31.7039C30.9504 31.3476 30.5198 30.8403 30.2571 30.2436L29.0706 27.5469H26.8752C26.697 27.5469 26.5261 27.4761 26.4001 27.3501C26.2741 27.2241 26.2034 27.0532 26.2034 26.875C26.2034 26.6968 26.2741 26.5259 26.4001 26.3999C26.5261 26.2739 26.697 26.2031 26.8752 26.2031H28.4793L27.8881 24.8594H25.5315C25.3533 24.8594 25.1824 24.7886 25.0564 24.6626C24.9304 24.5366 24.8596 24.3657 24.8596 24.1875C24.8596 24.0093 24.9304 23.8384 25.0564 23.7124C25.1824 23.5864 25.3533 23.5156 25.5315 23.5156H27.2968L26.7056 22.1719H24.1877C24.0095 22.1719 23.8387 22.1011 23.7126 21.9751C23.5866 21.8491 23.5159 21.6782 23.5159 21.5C23.5159 21.3218 23.5866 21.1509 23.7126 21.0249C23.8387 20.8989 24.0095 20.8281 24.1877 20.8281H26.1143L25.5231 19.4844H23.4957C22.3484 19.4874 21.2118 19.2629 20.1518 18.8238C19.0918 18.3847 18.1294 17.7397 17.3203 16.9262L13.9803 13.5862C13.1668 12.7771 12.5218 11.8147 12.0827 10.7547C11.6436 9.69468 11.4191 8.55813 11.4221 7.41078V6.99699L9.42773 8.99137C10.2839 10.063 10.7502 11.394 10.7502 12.7656C10.7502 14.1373 10.2839 15.4682 9.42773 16.5399L27.0045 34.1166C27.6892 34.8051 28.5036 35.3508 29.4007 35.7224C30.2977 36.0939 31.2596 36.2839 32.2305 36.2813H40.3127V35.6094C40.3117 34.7187 39.9575 33.8648 39.3277 33.235C38.6979 32.6053 37.844 32.251 36.9534 32.25Z" fill="#44AF5C"/>
<path d="M29.9472 26.2031H31.8385L31.2473 24.8594H29.356L29.9472 26.2031Z" fill="#44AF5C"/>
<path d="M8.0625 29.5625H2.01562C1.83743 29.5625 1.66654 29.4917 1.54054 29.3657C1.41454 29.2397 1.34375 29.0688 1.34375 28.8906C1.34375 28.7124 1.41454 28.5415 1.54054 28.4155C1.66654 28.2895 1.83743 28.2188 2.01562 28.2188H8.0625C8.24069 28.2188 8.41159 28.2895 8.53759 28.4155C8.66359 28.5415 8.73438 28.7124 8.73438 28.8906C8.73438 29.0688 8.66359 29.2397 8.53759 29.3657C8.41159 29.4917 8.24069 29.5625 8.0625 29.5625Z" fill="#44AF5C"/>
<path d="M16.125 37.625H2.01562C1.83743 37.625 1.66654 37.5542 1.54054 37.4282C1.41454 37.3022 1.34375 37.1313 1.34375 36.9531C1.34375 36.7749 1.41454 36.604 1.54054 36.478C1.66654 36.352 1.83743 36.2812 2.01562 36.2812H16.125C16.3032 36.2812 16.4741 36.352 16.6001 36.478C16.7261 36.604 16.7969 36.7749 16.7969 36.9531C16.7969 37.1313 16.7261 37.3022 16.6001 37.4282C16.4741 37.5542 16.3032 37.625 16.125 37.625Z" fill="#44AF5C"/>
<path d="M12.0938 33.5938H2.01562C1.83743 33.5938 1.66654 33.523 1.54054 33.397C1.41454 33.271 1.34375 33.1001 1.34375 32.9219C1.34375 32.7437 1.41454 32.5728 1.54054 32.4468C1.66654 32.3208 1.83743 32.25 2.01562 32.25H12.0938C12.2719 32.25 12.4428 32.3208 12.5688 32.4468C12.6948 32.5728 12.7656 32.7437 12.7656 32.9219C12.7656 33.1001 12.6948 33.271 12.5688 33.397C12.4428 33.523 12.2719 33.5938 12.0938 33.5938Z" fill="#44AF5C"/>
</svg>
