<svg width="44" height="44" viewBox="0 0 44 44" fill="none" xmlns="http://www.w3.org/2000/svg">
<path d="M43.8435 18.0597C40.5162 13.3289 36.5811 9.82754 32.1473 7.65289C27.8885 5.56401 23.2577 4.81266 18.7547 5.48031C18.2852 5.54992 17.9611 5.98691 18.0306 6.4563C18.1002 6.92578 18.5369 7.25054 19.0067 7.18041C25.6946 6.18921 32.299 8.52989 37.8186 13.6939C37.6932 14.1505 37.4674 14.5874 37.162 14.9531C36.7779 15.4108 36.3006 15.7257 35.8178 15.8396C35.8172 15.8397 35.8167 15.84 35.8161 15.8401C35.8159 15.8402 35.8157 15.8402 35.8154 15.8402C35.0778 16.0164 34.3741 16.469 33.8337 17.1145C33.309 17.7414 32.9595 18.5281 32.8496 19.3297C32.7851 19.8 33.114 20.2335 33.5842 20.2979C33.6239 20.3033 33.6632 20.306 33.7021 20.306C34.1249 20.306 34.4934 19.9939 34.5524 19.5632C34.6189 19.0779 34.8318 18.6 35.1517 18.2178C35.4566 17.8535 35.8343 17.6028 36.215 17.5117C36.2156 17.5116 36.216 17.5115 36.2164 17.5113C36.2351 17.5068 36.2536 17.5015 36.2723 17.4968C36.3906 17.719 36.4659 17.9864 36.4882 18.2794C36.5235 18.7682 36.4128 19.2833 36.1764 19.7299C35.9544 20.1493 36.1144 20.6694 36.534 20.8915C36.6621 20.9593 36.7997 20.9914 36.9352 20.9914C37.2434 20.9914 37.5413 20.8251 37.6956 20.5339C38.0863 19.7956 38.2616 18.9732 38.2023 18.1522C38.1627 17.6324 38.0251 17.1432 37.8039 16.7171C38.0459 16.5236 38.2733 16.3026 38.4801 16.056C38.7442 15.7398 38.9693 15.3885 39.1496 15.0163C40.1729 16.0946 41.1537 17.2745 42.0841 18.554C39.8757 21.592 37.3786 24.0856 34.6478 25.9848C34.4771 25.7399 34.3145 25.5201 34.1656 25.3344C33.808 24.8866 33.2402 24.2912 32.4402 24.2906C32.4398 24.2906 32.4394 24.2906 32.439 24.2906C31.6393 24.2906 31.0701 24.8855 30.7114 25.3332C30.0604 26.1456 29.1531 27.5832 28.4096 29.1204C20.638 31.6449 12.6851 29.5267 6.17749 23.4203C6.30296 22.9627 6.53017 22.5234 6.83903 22.1534C7.22034 21.6968 7.69626 21.3825 8.17914 21.2684C8.91838 21.0948 9.62358 20.6415 10.1635 19.9933C10.692 19.362 11.0416 18.5741 11.1481 17.7749C11.2108 17.3044 10.8802 16.8722 10.4097 16.8096C9.93914 16.747 9.50705 17.0775 9.4444 17.548C9.38038 18.0287 9.16768 18.5054 8.8443 18.8918C8.54025 19.2568 8.16436 19.5066 7.78589 19.5954C7.78555 19.5955 7.78521 19.5955 7.78486 19.5956C7.78478 19.5956 7.78469 19.5956 7.7846 19.5956C7.76518 19.6002 7.74593 19.6059 7.7266 19.6108C7.60766 19.388 7.53264 19.1204 7.51141 18.8255C7.47463 18.3415 7.5854 17.8276 7.82328 17.3782C8.04525 16.9586 7.88524 16.4386 7.46578 16.2166C7.04632 15.9944 6.52631 16.1547 6.30416 16.574C5.91082 17.3171 5.7356 18.1406 5.7973 18.9524C5.83477 19.4724 5.9721 19.9625 6.1945 20.3904C5.95267 20.584 5.72563 20.8052 5.51972 21.0518C5.25452 21.3696 5.02842 21.7219 4.84769 22.0947C3.82727 21.0166 2.84732 19.8361 1.9155 18.5539C4.83824 14.5308 8.23251 11.4864 12.0114 9.50072C12.4316 9.27995 12.5932 8.76037 12.3725 8.34022C12.1517 7.91999 11.6319 7.7586 11.212 7.9792C7.03575 10.1737 3.31611 13.5653 0.156363 18.0598C-0.0521211 18.3563 -0.0521211 18.7518 0.156363 19.0484C1.51641 20.9827 2.99892 22.7242 4.57905 24.2556C4.62047 24.306 4.66739 24.3518 4.71947 24.3917C7.49921 27.0539 10.578 29.0658 13.8287 30.3207C16.494 31.3496 19.2456 31.865 21.9988 31.8649C23.8611 31.8648 25.7243 31.6284 27.5615 31.1562C27.272 32.006 27.0905 32.8151 27.0905 33.4922C27.0905 35.1086 27.6773 36.4749 28.7876 37.4434C29.7581 38.29 31.0547 38.7563 32.4381 38.7563C35.0956 38.7563 37.7858 36.9481 37.7858 33.4922C37.7858 31.8206 36.6813 29.3452 35.5699 27.4381C38.6368 25.3168 41.4174 22.4987 43.8436 19.0484C44.052 18.7518 44.052 18.3562 43.8435 18.0597ZM32.4381 37.0375C30.6318 37.0375 28.8092 35.9413 28.8092 33.4922C28.8092 31.731 30.7466 28.0381 32.0527 26.4081C32.0527 26.4081 32.0527 26.4081 32.0528 26.408C32.2569 26.1532 32.3826 26.0573 32.4388 26.023C32.4947 26.0574 32.6199 26.1534 32.8234 26.4081C34.1295 28.038 36.067 31.7309 36.067 33.4922C36.067 35.9413 34.2444 37.0375 32.4381 37.0375Z" fill="#44AF5C"/>
<path d="M21.9985 22.6889C24.2763 22.6889 26.1294 20.834 26.1294 18.5541C26.1294 16.2742 24.2764 14.4193 21.9985 14.4193C19.7207 14.4193 17.8677 16.2742 17.8677 18.5541C17.8677 20.834 19.7207 22.6889 21.9985 22.6889ZM21.9985 16.138C23.3286 16.138 24.4107 17.2219 24.4107 18.5541C24.4107 19.8863 23.3286 20.9701 21.9985 20.9701C20.6685 20.9701 19.5864 19.8863 19.5864 18.5541C19.5864 17.2219 20.6685 16.138 21.9985 16.138Z" fill="#44AF5C"/>
<path d="M21.999 27.5691C26.9645 27.5691 31.0043 23.525 31.0043 18.5541C31.0043 13.5832 26.9645 9.53906 21.999 9.53906C17.0334 9.53906 12.9937 13.5832 12.9937 18.5541C12.9937 23.525 17.0334 27.5691 21.999 27.5691ZM21.999 11.2578C26.0167 11.2578 29.2855 14.5309 29.2855 18.5541C29.2855 22.5772 26.0168 25.8503 21.999 25.8503C17.9811 25.8503 14.7124 22.5772 14.7124 18.5541C14.7124 14.5309 17.9811 11.2578 21.999 11.2578Z" fill="#44AF5C"/>
<path d="M15.1245 8.09215H15.1269C15.6016 8.09215 15.9851 7.70732 15.9851 7.23277C15.9851 6.75823 15.5991 6.3734 15.1245 6.3734C14.6499 6.3734 14.2651 6.75823 14.2651 7.23277C14.2651 7.70732 14.6499 8.09215 15.1245 8.09215Z" fill="#44AF5C"/>
</svg>
