<svg width="36" height="37" viewBox="0 0 36 37" fill="none" xmlns="http://www.w3.org/2000/svg">
<g clip-path="url(#clip0)">
<path d="M14.8593 5.95051C11.9386 7.10627 10.0217 9.9549 10.0207 13.0761C10.0207 14.2092 10.9373 15.1336 12.0797 15.1336C13.2201 15.1336 14.1386 14.2109 14.1386 13.0761C14.1414 11.124 15.7126 9.53465 17.68 9.53321C19.6108 9.53321 21.2263 11.1608 21.2263 13.0727C21.2256 14.5539 20.3327 15.8534 18.9532 16.3843C17.9635 16.7637 17.1262 17.4176 16.5318 18.2765C15.4448 19.8458 15.6238 21.1698 15.6238 23.2266C15.6238 23.3898 15.643 23.5525 15.6808 23.7109C15.737 23.9428 15.943 24.1047 16.1811 24.1047C16.5169 24.1047 16.7596 23.7904 16.6821 23.4694C16.6418 23.3027 16.6526 23.4204 16.6526 21.1965C16.6553 19.4813 17.7027 17.9699 19.3224 17.3448C22.3797 16.1738 23.2792 12.2241 20.9071 9.85293C18.0183 6.96731 13.1047 9.02347 13.1092 13.076C13.1078 13.642 12.6466 14.1038 12.0797 14.1051C11.5128 14.1037 11.0509 13.642 11.0502 13.076C11.0488 9.36625 14.167 6.2071 18.1036 6.45881C21.5188 6.6712 24.3148 9.53705 24.3148 13.0767C24.3141 15.8429 22.6443 18.273 20.0616 19.2664C19.6635 19.418 19.3252 19.6801 19.0829 20.0238C18.6163 20.6893 18.7123 21.0756 18.7123 23.2264C18.7109 23.7924 18.249 24.2541 17.6828 24.2549C17.3987 24.2549 17.168 24.486 17.168 24.7694C17.168 25.85 19.7394 25.1917 19.7418 23.2264V21.1963C19.7431 20.7642 20.0073 20.3924 20.4308 20.2271C23.4234 19.0776 25.3469 16.2323 25.3442 13.0768C25.3442 7.70165 19.8819 3.95693 14.8593 5.95051Z" fill="#DFF3A1"/>
<path d="M19.4389 28.3631C18.6366 27.0342 16.7857 27.0618 15.969 28.2909C15.0721 29.6411 16.0128 31.4865 17.6992 31.4865C19.2531 31.4865 20.2884 29.7704 19.4389 28.3631ZM17.4368 30.425C17.0377 30.3266 16.7524 30.0299 16.6737 29.6313C16.4629 28.4934 17.9667 27.9163 18.5575 28.8949C19.0364 29.6882 18.3361 30.6468 17.4368 30.425Z" fill="#DFF3A1"/>
<path d="M26.3781 3.2518C17.2358 -2.05266 5.489 1.89916 1.38174 11.6157C-0.289652 15.5631 -0.428889 19.9842 0.880722 23.9534C1.7917 26.7141 3.28852 28.7227 3.40909 28.8294L3.41115 28.8266L3.40977 28.8301C3.41115 28.8314 3.41252 28.8321 3.41458 28.8342C3.41526 28.8342 3.41526 28.8349 3.41595 28.8356C3.41664 28.8356 3.41664 28.8363 3.41732 28.837C3.61084 28.9994 3.77492 28.953 3.84354 28.953L3.84492 28.9523C3.85143 28.9523 3.89824 28.9418 3.94236 28.9241C3.94305 28.9241 3.94373 28.9241 3.94373 28.9241C3.94373 28.9241 3.95526 28.9187 3.9554 28.9187H3.95677C4.28953 28.7758 4.34834 28.3535 4.16813 28.1427C-3.7749 17.1811 4.16449 1.9181 17.5707 1.9181C26.823 1.9181 34.1109 9.46347 34.1109 18.4525C34.1109 27.5894 26.7127 34.9868 17.5707 34.9868C14.0622 34.9868 10.7095 33.9014 7.87572 31.8487C7.71789 31.7341 7.50035 31.7198 7.32873 31.8131L1.55124 34.9402C1.27654 35.0871 1.02861 34.8472 1.03032 34.6362C1.03176 34.513 0.905495 34.7828 3.22449 30.5006C3.41094 30.1572 3.15902 29.7411 2.77288 29.7411C2.58348 29.7411 2.40979 29.8447 2.31996 30.0107C-0.014472 34.3199 -0.000541263 34.1755 0.000899831 34.6362C0.00275267 35.6449 1.09551 36.3581 2.04135 35.8458L7.53672 32.8703C13.4776 37.0125 21.3893 37.0708 27.394 33.0164C38.1443 25.7576 37.599 9.76067 26.3781 3.2518Z" fill="#DFF3A1"/>
</g>
<defs>
<clipPath id="clip0">
<rect width="35.1353" height="35.1353" fill="white" transform="translate(0 0.881836)"/>
</clipPath>
</defs>
</svg>
