<svg width="36" height="36" viewBox="0 0 36 36" fill="none" xmlns="http://www.w3.org/2000/svg">
<path d="M18.0007 35.9999C27.9414 35.9999 35.9999 27.9414 35.9999 18.0007C35.9999 8.05999 27.9414 0.00146484 18.0007 0.00146484C8.06002 0.00146484 0.00149536 8.05999 0.00149536 18.0007C0.00149536 27.9414 8.06002 35.9999 18.0007 35.9999Z" fill="#E73B36"/>
<path d="M34.971 11.9988H23.8809C24.3623 15.8439 24.3654 20.0806 23.89 23.9305H34.9949C35.6429 22.0729 35.9995 20.0786 35.9995 18.0002C35.9999 15.895 35.6349 13.876 34.971 11.9988Z" fill="#2B479D"/>
<path d="M23.8809 11.9987H34.9711C34.9691 11.993 34.9673 11.9882 34.9654 11.983C32.6615 5.48747 26.736 0.708474 19.6162 0.0740967C22.3714 1.58438 23.176 6.36938 23.8809 11.9987Z" fill="#EFECEC"/>
<path d="M19 35.9951C26.1325 35.3596 32.0666 30.5641 34.3613 24.0511C34.3673 24.0338 34.3723 24.0168 34.3786 24H23.2734C22.5746 29.6598 21.7665 34.4785 19 35.9951Z" fill="#E63026"/>
<path d="M9.15527e-05 18.0002C9.15527e-05 20.0786 0.356763 22.0729 1.00474 23.9305H24.8167C25.2922 20.0803 25.2891 15.8439 24.8076 11.9988H1.02861C0.364667 13.876 9.15527e-05 15.895 9.15527e-05 18.0002Z" fill="#3757A6"/>
<path d="M1.03387 11.9832C1.03189 11.9883 1.03014 11.9931 1.02817 11.9988H24.8075C24.1027 6.36947 22.3712 1.58454 19.6164 0.0742527C19.0836 0.0269802 18.5447 0 17.9996 0C10.1694 0 3.51005 5.00122 1.03387 11.9832Z" fill="white"/>
</svg>
