<svg width="189" height="110" viewBox="0 0 189 110" fill="none" xmlns="http://www.w3.org/2000/svg">
<path d="M187.995 100.255C187.98 99.8489 187.966 99.4403 187.952 99.0304C187.937 98.6204 187.922 98.2092 187.907 97.7961L187.895 97.487L187.889 97.332L187.888 97.2932L187.884 96.9466L187.882 96.9305L187.878 96.8663L187.838 96.353C187.785 95.6679 187.731 94.9799 187.678 94.2919L187.637 93.771L187.576 93.0956C187.533 92.6465 187.491 92.1975 187.448 91.7495C187.405 91.3024 187.36 90.8558 187.317 90.4107C187.294 90.1884 187.272 89.9665 187.249 89.745C187.222 89.54 187.195 89.3354 187.168 89.1308C186.943 87.5079 186.743 85.9129 186.457 84.3795C186.322 83.6123 186.197 82.858 186.057 82.1227C185.904 81.3892 185.755 80.672 185.609 79.9736C185.333 78.5759 184.986 77.2706 184.694 76.0639C184.619 75.7628 184.546 75.4674 184.474 75.1794C184.395 74.8925 184.317 74.6129 184.241 74.3397C184.087 73.7951 183.941 73.2782 183.804 72.793C183.664 72.3084 183.541 71.8535 183.412 71.4365C183.279 71.0208 183.157 70.6388 183.047 70.2938C182.884 69.7869 182.746 69.36 182.638 69.0227C182.477 68.5247 181.951 68.2447 181.448 68.3881L149.821 77.4009C149.339 77.5382 149.041 78.0183 149.133 78.5109C149.167 78.6948 149.206 78.9055 149.25 79.1412C149.295 79.3785 149.345 79.6416 149.399 79.9277C149.451 80.2146 149.491 80.5289 149.543 80.8611C149.593 81.1937 149.647 81.5479 149.704 81.9211C149.732 82.1075 149.765 82.2975 149.791 82.4941C149.813 82.691 149.836 82.8928 149.86 83.0986C149.948 83.9225 150.079 84.8058 150.138 85.753C150.177 86.2242 150.217 86.7084 150.258 87.2024C150.289 87.6983 150.304 88.2063 150.33 88.7204C150.399 89.7469 150.386 90.8158 150.406 91.8937L150.41 92.2952L150.396 92.6506C150.388 92.8875 150.38 93.1248 150.371 93.3628C150.365 93.5997 150.359 93.8374 150.352 94.0755L150.345 94.4313L150.323 94.9436C150.294 95.6332 150.264 96.3224 150.235 97.0093L150.213 97.5238L150.21 97.588L150.209 97.6037C150.21 97.6811 150.204 96.9911 150.206 97.2891L150.203 97.3145L150.193 97.4161L150.175 97.6191C150.15 97.8895 150.126 98.1582 150.102 98.4268C150.078 98.6944 150.055 98.9615 150.032 99.2267C150 99.4909 149.969 99.754 149.938 100.015C149.87 100.537 149.829 101.054 149.746 101.557C149.673 102.061 149.601 102.556 149.531 103.041C149.447 103.523 149.365 103.994 149.286 104.452C149.214 104.911 149.117 105.353 149.032 105.781C148.942 106.207 148.87 106.622 148.777 107.015C148.686 107.409 148.599 107.785 148.516 108.144C148.475 108.32 148.436 108.493 148.397 108.661C148.357 108.804 148.319 108.944 148.281 109.079C148.259 109.162 148.238 109.239 148.217 109.319H186.898C187.417 109.319 187.848 108.913 187.868 108.395C187.868 108.391 187.868 108.388 187.868 108.385C187.901 107.665 187.934 106.925 187.968 106.169C187.982 105.414 187.996 104.642 188.012 103.857C188.034 103.073 188.01 102.276 188.008 101.47C188.003 101.068 187.999 100.663 187.995 100.255Z" fill="#CC202D"/>
<path d="M177.937 59.6564C178.456 59.4475 178.692 58.8465 178.453 58.341C178.347 58.1163 178.222 57.8537 178.082 57.5565C177.949 57.2773 177.802 56.9681 177.642 56.6316C177.436 56.2108 177.213 55.756 176.974 55.2698C176.733 54.7856 176.477 54.2703 176.207 53.7272C176.07 53.4448 175.936 53.2118 175.795 52.9468C175.655 52.6877 175.511 52.4226 175.365 52.1519C175.07 51.6115 174.768 51.0466 174.445 50.4681C174.111 49.8958 173.765 49.3039 173.41 48.6955C173.232 48.392 173.052 48.0842 172.869 47.7731C172.678 47.4667 172.484 47.1566 172.289 46.8431C171.895 46.2187 171.493 45.5805 171.085 44.9319C170.223 43.6618 169.365 42.3334 168.408 41.0407C168.172 40.7152 167.936 40.3885 167.699 40.0609L167.343 39.5698L166.972 39.0867C166.475 38.4442 165.977 37.7995 165.479 37.1546C164.972 36.5172 164.447 35.8932 163.933 35.2668C163.673 34.9557 163.422 34.6401 163.156 34.336C162.89 34.033 162.625 33.7307 162.361 33.4296C162.096 33.1297 161.833 32.8304 161.571 32.5329C161.31 32.2342 161.048 31.9406 160.777 31.6566C160.24 31.0854 159.711 30.5212 159.19 29.9662C158.668 29.4128 158.128 28.8928 157.613 28.3729C157.096 27.8558 156.592 27.348 156.078 26.8764C155.57 26.4007 155.075 25.9379 154.597 25.4901C154.121 25.0414 153.635 24.6338 153.182 24.2301C152.725 23.8308 152.288 23.4482 151.871 23.0843C151.445 22.7324 151.04 22.3988 150.659 22.0853C150.278 21.773 149.922 21.4808 149.593 21.2106C149.263 20.9415 148.947 20.7081 148.669 20.4905C148.263 20.1796 147.921 19.9169 147.649 19.7082C147.235 19.39 146.644 19.4579 146.311 19.861L129.336 40.408C129.016 40.7955 129.043 41.3619 129.4 41.7155C129.542 41.8557 129.706 42.018 129.891 42.2005C130.067 42.3779 130.27 42.5658 130.477 42.7851C130.685 43.0043 130.909 43.2416 131.148 43.4948C131.388 43.7469 131.644 44.0151 131.912 44.2978C132.172 44.5896 132.445 44.897 132.729 45.2174C133.01 45.5407 133.317 45.8617 133.609 46.2197C133.904 46.5741 134.209 46.9404 134.522 47.3171C134.842 47.6869 135.146 48.0884 135.462 48.494C135.774 48.9024 136.107 49.3051 136.421 49.7369C136.734 50.1674 137.053 50.6049 137.376 51.048C137.541 51.266 137.697 51.4934 137.851 51.7242C138.006 51.9534 138.162 52.1834 138.319 52.4145C138.477 52.6445 138.635 52.8757 138.793 53.1077C138.951 53.3396 139.095 53.5822 139.248 53.8195C139.548 54.2984 139.858 54.7702 140.153 55.2524C140.44 55.7394 140.727 56.2266 141.013 56.7116L141.228 57.0735L141.429 57.4431C141.563 57.6884 141.697 57.9334 141.83 58.177C142.381 59.1397 142.845 60.1323 143.331 61.0649C143.554 61.543 143.773 62.0128 143.987 62.4732C144.094 62.7024 144.2 62.9293 144.305 63.1532C144.402 63.3812 144.498 63.6063 144.592 63.8286C144.782 64.2708 144.967 64.7017 145.146 65.1178C145.311 65.5397 145.47 65.9473 145.624 66.3384C145.7 66.5337 145.775 66.7249 145.849 66.9118C145.918 67.0942 146.004 67.2915 146.05 67.4433C146.159 67.7621 146.262 68.0647 146.36 68.3491C146.459 68.6315 146.552 68.8955 146.638 69.1399C146.751 69.4768 146.854 69.7856 146.948 70.0648C147.052 70.3767 147.144 70.6524 147.223 70.8887C147.399 71.4189 147.987 71.6893 148.505 71.481L177.937 59.6564Z" fill="#FFE713"/>
<path d="M91.4957 22.9556C91.7529 22.9906 92.0372 23.0294 92.3472 23.0718C92.6551 23.1253 92.9883 23.1834 93.3441 23.2454C93.6994 23.3065 94.0774 23.3713 94.4758 23.4398C94.822 23.4973 95.1805 23.5808 95.5533 23.6587L106.266 1.74593C105.735 1.66303 105.208 1.58072 104.692 1.50018C104.339 1.4476 103.99 1.38715 103.644 1.34383C103.297 1.30189 102.954 1.26034 102.616 1.21938C101.941 1.13924 101.284 1.06106 100.649 0.985645C100.012 0.9311 99.397 0.878327 98.8065 0.827721C98.2157 0.782431 97.6524 0.722768 97.113 0.697169C96.5747 0.670783 96.0639 0.645577 95.584 0.621948C95.1045 0.599303 94.656 0.578235 94.2415 0.558544C93.8266 0.551849 93.4453 0.545744 93.1009 0.54023C92.6165 0.534323 92.2054 0.529401 91.8758 0.525463C91.353 0.519161 90.9203 0.927753 90.8953 1.44997L89.9185 21.8456C89.8944 22.3481 90.2569 22.7856 90.7553 22.854C90.9676 22.8831 91.2151 22.9172 91.4957 22.9556Z" fill="#277D2A"/>
<path d="M120.288 34.1866C120.576 34.3959 120.849 34.5944 121.105 34.7813C121.362 34.9652 121.602 35.1373 121.825 35.2966C121.921 35.3627 122.08 35.4833 122.21 35.5797C122.343 35.6796 122.471 35.7747 122.591 35.8649C122.855 36.0616 123.088 36.2353 123.287 36.3839C123.735 36.7183 124.371 36.6053 124.678 36.1378L138.665 14.8326C138.972 14.3652 138.823 13.7364 138.338 13.4582C138.122 13.3345 137.87 13.19 137.585 13.0264C137.454 12.9511 137.316 12.8722 137.171 12.7891C137.014 12.6999 136.849 12.6066 136.677 12.5093C136.279 12.2899 135.849 12.053 135.389 11.7996C134.929 11.5489 134.439 11.2823 133.923 11.0009C133.431 10.7546 132.915 10.4956 132.375 10.2253C131.834 9.96103 131.281 9.66704 130.689 9.40022C130.099 9.13006 129.49 8.85064 128.863 8.56335C128.24 8.26955 127.584 8.00274 126.917 7.72273C126.247 7.44862 125.574 7.14893 124.87 6.88447C124.692 6.81693 102.658 0.717546 102.478 0.649414L95.1174 22.878C71.4362 12.9352 118.945 33.3011 119.255 33.5015C119.615 33.7404 119.96 33.969 120.288 34.1866Z" fill="#277D2A"/>
<path d="M72.7154 22.8494C72.9855 22.8137 73.2508 22.7696 73.5156 22.7416C73.7805 22.7149 74.0422 22.6883 74.3001 22.6619C74.815 22.6085 75.3158 22.5566 75.8004 22.5061C76.2864 22.4737 76.756 22.4422 77.2067 22.4118C77.4316 22.3965 77.6518 22.3815 77.867 22.3667C78.0816 22.3524 78.2967 22.334 78.481 22.3338C78.8608 22.3238 79.2214 22.3146 79.5598 22.3057C79.8974 22.2951 80.2128 22.285 80.505 22.2758C80.8652 22.2734 81.196 22.2712 81.4945 22.2693C81.8234 22.2675 82.114 22.2659 82.3625 22.2645C82.9217 22.2616 83.3612 21.788 83.3246 21.23L82.0656 2.01724C82.0287 1.45919 81.5313 1.04705 80.9766 1.11715C80.7299 1.14826 80.4418 1.18469 80.1155 1.22585C79.8131 1.26425 79.4781 1.30697 79.1134 1.35345C78.6826 1.41744 78.2167 1.48636 77.7187 1.5602C77.2223 1.63582 76.6938 1.71636 76.1367 1.80122C75.8516 1.84139 75.5891 1.89476 75.3136 1.94674C75.0389 1.99912 74.7579 2.05288 74.471 2.10762C73.8982 2.21828 73.3018 2.33367 72.6839 2.453C72.0709 2.59261 71.4368 2.73715 70.7852 2.88542C70.4601 2.96005 70.1305 3.03586 69.7969 3.11266C69.4638 3.19064 69.1296 3.28594 68.7907 3.37357C68.1143 3.55374 67.4237 3.73786 66.7212 3.92492C66.0257 4.13463 65.3186 4.34769 64.603 4.56351C64.2462 4.67398 63.8856 4.77814 63.5272 4.8961C63.1704 5.01798 62.8111 5.14026 62.4507 5.26333C62.091 5.3866 61.7298 5.51026 61.3677 5.63452C61.0054 5.75778 60.6425 5.88164 60.2845 6.02282C59.5667 6.29673 58.8462 6.57181 58.1257 6.8469C57.4084 7.1277 56.7029 7.43882 55.9957 7.7332C55.6433 7.88345 55.2898 8.02837 54.9415 8.18255C54.5955 8.34225 54.2507 8.50136 53.9071 8.66007C53.5643 8.81878 53.2226 8.9771 52.883 9.13443C52.5433 9.29156 52.205 9.44634 51.8761 9.61706C51.2161 9.95023 50.5641 10.2795 49.923 10.6032C49.2816 10.9248 48.6704 11.2796 48.0633 11.6063C47.459 11.9391 46.8647 12.2565 46.3041 12.5985C45.7404 12.9329 45.192 13.2584 44.6615 13.573C44.1294 13.8834 43.6359 14.2185 43.1523 14.5214C42.6721 14.8291 42.2119 15.1243 41.7741 15.4049C41.3459 15.6989 40.9394 15.9777 40.5576 16.2398C40.1768 16.5021 39.8204 16.7474 39.4907 16.9745C39.1615 17.2015 38.8703 17.4266 38.6019 17.6211C38.2382 17.8897 37.9277 18.1189 37.6764 18.3044C37.2568 18.6142 37.1583 19.1992 37.4517 19.6306L45.4296 31.3599C45.7136 31.7774 46.2687 31.9083 46.7084 31.66C46.911 31.5458 47.1504 31.4105 47.4236 31.2565C47.6616 31.1248 47.9192 30.9692 48.21 30.8178C48.5007 30.6662 48.8149 30.5027 49.1507 30.3279C49.4854 30.1528 49.8418 29.9666 50.2174 29.7702C50.5994 29.5871 51.0009 29.3945 51.4199 29.1937C51.8409 28.9975 52.268 28.7729 52.7286 28.5769C53.1856 28.3763 53.6582 28.1689 54.1442 27.9557C54.6252 27.7342 55.1348 27.5406 55.6504 27.3338C56.1686 27.133 56.6877 26.9058 57.2314 26.7138C57.7727 26.5186 58.3232 26.3203 58.8803 26.1195C59.1566 26.0145 59.4409 25.9257 59.7259 25.8347C60.0102 25.7432 60.2961 25.6512 60.583 25.5589C60.8693 25.4663 61.1568 25.3734 61.4451 25.28C61.735 25.192 62.0289 25.1133 62.321 25.029C62.9076 24.8667 63.4902 24.6867 64.081 24.5359C64.6721 24.3896 65.2632 24.2433 65.852 24.0978C66.1442 24.02 66.4408 23.9592 66.7359 23.8983C67.0305 23.8363 67.3243 23.7745 67.6171 23.7128C67.9089 23.6508 68.1998 23.5892 68.4892 23.5277C68.7793 23.4698 69.0709 23.4251 69.3586 23.3733C69.934 23.2735 70.5023 23.1747 71.0615 23.0778C71.6227 23.0004 72.1746 22.924 72.7154 22.8494Z" fill="#045BAC"/>
<path d="M18.3166 38.0139C18.1075 38.3097 17.8976 38.6068 17.6867 38.9052C17.4764 39.2033 17.2653 39.5026 17.0534 39.8029C16.8425 40.1036 16.6452 40.4155 16.44 40.7223C16.0356 41.34 15.6217 41.953 15.2255 42.5776C14.8385 43.2075 14.4516 43.8374 14.0662 44.465L13.7788 44.9348L13.5058 45.4123C13.3245 45.7297 13.1437 46.0466 12.9635 46.3618C12.2271 47.6128 11.5873 48.8916 10.9371 50.1061C10.6345 50.7254 10.3367 51.3344 10.0453 51.9307C9.90076 52.2284 9.75761 52.5234 9.61642 52.8144C9.48351 53.1094 9.35236 53.401 9.2228 53.6889C8.96484 54.2635 8.71397 54.8227 8.47118 55.3635C8.24473 55.9111 8.02577 56.44 7.81566 56.9476C7.60969 57.4568 7.40155 57.9387 7.22414 58.4063C7.04908 58.8744 6.88289 59.3186 6.72654 59.7359C6.57098 60.1528 6.42546 60.5428 6.29097 60.9036C6.16672 61.2679 6.0527 61.6024 5.94952 61.9047C5.81562 62.302 5.70063 62.6431 5.6067 62.9223C5.44031 63.4158 5.69334 63.9512 6.17971 64.1377L13.6053 66.9844C14.0779 67.1656 14.6101 66.9541 14.8285 66.4974C14.9368 66.2714 15.0662 66.0006 15.2148 65.6897C15.3381 65.4335 15.4744 65.1498 15.623 64.8408C15.781 64.5362 15.9517 64.2074 16.1342 63.8555C16.3162 63.5048 16.5095 63.1308 16.7135 62.737C16.9191 62.3444 17.1558 61.9417 17.3907 61.5164C17.6286 61.0934 17.8765 60.6525 18.1331 60.1961C18.4034 59.7485 18.6829 59.2854 18.9703 58.8092C19.1135 58.5716 19.2586 58.3307 19.4055 58.0869C19.5601 57.8477 19.7166 57.6059 19.8748 57.3607C20.191 56.8724 20.5141 56.3738 20.8428 55.8662C21.541 54.8777 22.2239 53.8366 22.9956 52.8325C23.1841 52.5787 23.3733 52.3241 23.5631 52.0687L23.8477 51.6853L24.1458 51.3104C24.5428 50.8105 24.9413 50.3089 25.3399 49.8074C25.7457 49.312 26.1669 48.8293 26.5763 48.3426C26.7838 48.101 26.9831 47.8544 27.1956 47.6195C27.4082 47.385 27.6201 47.151 27.8312 46.9181C28.0419 46.6853 28.2516 46.4536 28.4603 46.2228C28.6671 45.9908 28.8758 45.763 29.0926 45.5446C29.5191 45.103 29.9405 44.6666 30.355 44.2371C30.7687 43.8085 31.2006 43.4107 31.6082 43.0086C32.0189 42.6095 32.4163 42.2156 32.8255 41.8547C33.228 41.4884 33.6194 41.1322 33.9983 40.7874C34.374 40.4407 34.7611 40.1311 35.1187 39.8204C35.4787 39.5138 35.8237 39.22 36.1517 38.9406C36.4739 38.6856 36.7795 38.4438 37.0666 38.2162C37.3521 37.9889 37.6193 37.7761 37.8664 37.5792C37.9799 37.4854 38.1335 37.3732 38.2632 37.2745C38.3963 37.1739 38.5233 37.0782 38.6439 36.9874C38.9063 36.7891 39.1381 36.6143 39.3366 36.4646C39.783 36.1277 39.8521 35.4854 39.489 35.0601L31.0346 25.1556C30.6715 24.7303 30.0262 24.6978 29.6235 25.0857C29.4445 25.2582 29.2352 25.4596 28.9985 25.6878C28.8898 25.7924 28.7752 25.9029 28.6551 26.0184C28.5328 26.1372 28.4164 26.2453 28.2648 26.4003C27.9749 26.6927 27.6617 27.0091 27.3267 27.347C26.9935 27.6851 26.6389 28.0449 26.265 28.4241C25.9174 28.8006 25.5519 29.1964 25.1707 29.6093C24.7942 30.0254 24.3882 30.4446 23.9954 30.9042C23.6009 31.3615 23.1933 31.8342 22.7741 32.32C22.3498 32.8001 21.9392 33.3158 21.5168 33.839C21.0976 34.365 20.6557 34.8897 20.2341 35.4458C19.8137 36.0019 19.3864 36.5672 18.954 37.1398C18.7342 37.4236 18.5241 37.7166 18.3166 38.0139Z" fill="#962CCF"/>
<path d="M2.9535 72.7405C2.90408 72.9839 2.84618 73.269 2.78061 73.5911C2.72055 73.8869 2.654 74.2146 2.58153 74.5712C2.51045 74.9359 2.44094 75.3665 2.36336 75.806C2.28695 76.2498 2.20583 76.722 2.12037 77.2198C2.07901 77.4679 2.03176 77.7243 1.99257 77.9829C1.95772 78.2398 1.92227 78.5025 1.88584 78.7705C1.74722 79.8443 1.56468 80.9996 1.45953 82.2338C1.39849 82.8488 1.33587 83.4803 1.27187 84.126C1.2191 84.7724 1.18385 85.4344 1.13836 86.1055C1.03203 87.4467 1.01254 88.8377 0.968232 90.2448L0.953857 90.7737L0.956417 91.3048C0.958386 91.6594 0.960356 92.0147 0.962325 92.3709C0.964491 92.7267 0.966657 93.0831 0.968626 93.4397L0.971973 93.9747L0.992452 94.5101C1.0214 95.2224 1.05034 95.935 1.07929 96.6447L1.10115 97.1753L1.10784 97.3472L1.11729 97.4752L1.1362 97.731C1.1614 98.0721 1.18641 98.4121 1.21142 98.751C1.23643 99.0899 1.26143 99.4272 1.28605 99.763C1.32011 100.113 1.35379 100.462 1.38766 100.808C1.42172 101.155 1.45559 101.498 1.48926 101.84C1.5062 102.011 1.52313 102.181 1.54007 102.35C1.56113 102.516 1.5822 102.682 1.60308 102.848C1.68696 103.507 1.76947 104.156 1.8502 104.792C1.94767 105.424 2.04298 106.043 2.13553 106.645C2.22217 107.247 2.33382 107.829 2.43641 108.392C2.44488 108.437 2.45334 108.482 2.46161 108.526C2.54727 108.987 2.94779 109.32 3.41585 109.32H6.03301C6.59185 109.32 7.0353 108.85 7.00241 108.292C6.99355 108.143 6.98449 107.993 6.97445 107.841C6.94176 107.298 6.90238 106.739 6.88978 106.161C6.87087 105.584 6.85158 104.992 6.83169 104.387C6.82795 103.782 6.82421 103.164 6.82047 102.535C6.81948 102.378 6.8185 102.22 6.81751 102.063C6.82086 101.907 6.8244 101.75 6.82795 101.593C6.83484 101.279 6.84173 100.963 6.84882 100.645C6.85571 100.328 6.8628 100.009 6.86989 99.6874C6.88564 99.3512 6.9012 99.0131 6.91715 98.674C6.9329 98.3348 6.94885 97.9941 6.9646 97.6525L6.97662 97.3959L6.98252 97.2675L6.98331 97.2513C6.98331 97.2106 6.9841 97.289 6.98449 97.2756L6.98686 97.2445L6.99178 97.1826L7.03156 96.6858C7.08433 96.0232 7.1373 95.3586 7.19046 94.6937L7.23103 94.1961L7.28833 93.6996C7.32653 93.3692 7.36453 93.0392 7.40254 92.7098C7.44035 92.3805 7.47815 92.0521 7.51576 91.7248L7.57188 91.2349L7.64454 90.7483C7.84382 89.4546 8.01316 88.182 8.26127 86.9635C8.37765 86.353 8.48181 85.7524 8.60134 85.1678C8.7315 84.5855 8.8587 84.0159 8.98256 83.4614C9.21177 82.3506 9.50891 81.318 9.75072 80.3608C9.81274 80.1219 9.87339 79.8878 9.93266 79.6594C9.99528 79.4343 10.0628 79.2213 10.125 79.0102C10.2505 78.5901 10.3696 78.1918 10.4815 77.8171C10.5959 77.4394 10.6898 77.1017 10.7993 76.7628C10.9141 76.417 11.0192 76.1002 11.1145 75.8137C11.2181 75.5014 11.3097 75.2257 11.388 74.9894C11.5643 74.4591 11.2565 73.8906 10.7162 73.7467L4.15526 71.9971C3.61473 71.8528 3.06495 72.1925 2.9535 72.7405Z" fill="black"/>
<g filter="url(#filter0_d)">
<path d="M83.5623 88.5709C84.8012 89.1765 86.1135 89.4636 87.4055 89.4636C90.6487 89.4636 93.7655 87.6566 95.2859 84.5467C95.5787 83.948 95.8053 83.2871 95.9527 82.6647L104.819 44.1829L108.195 29.5277L110.287 20.4492C110.53 19.3926 109.69 18.6729 108.847 18.6729C108.353 18.6729 107.858 18.9196 107.58 19.4898L103.323 28.1964L97.0437 41.0405L79.538 76.8474C77.412 81.196 79.2138 86.445 83.5623 88.5709ZM87.7306 76.1785C90.103 76.1785 92.0263 78.1017 92.0263 80.4742C92.0263 82.8466 90.103 84.77 87.7306 84.77C85.3581 84.77 83.4348 82.8466 83.4348 80.4742C83.4348 78.1014 85.3581 76.1785 87.7306 76.1785Z" fill="#FFE713"/>
</g>
<defs>
<filter id="filter0_d" x="74.6454" y="18.6729" width="39.6842" height="78.7907" filterUnits="userSpaceOnUse" color-interpolation-filters="sRGB">
<feFlood flood-opacity="0" result="BackgroundImageFix"/>
<feColorMatrix in="SourceAlpha" type="matrix" values="0 0 0 0 0 0 0 0 0 0 0 0 0 0 0 0 0 0 127 0"/>
<feOffset dy="4"/>
<feGaussianBlur stdDeviation="2"/>
<feColorMatrix type="matrix" values="0 0 0 0 0 0 0 0 0 0 0 0 0 0 0 0 0 0 0.25 0"/>
<feBlend mode="normal" in2="BackgroundImageFix" result="effect1_dropShadow"/>
<feBlend mode="normal" in="SourceGraphic" in2="effect1_dropShadow" result="shape"/>
</filter>
</defs>
</svg>
