<svg width="30" height="30" viewBox="0 0 30 30" fill="none" xmlns="http://www.w3.org/2000/svg">
<g clip-path="url(#clip0)">
<path d="M6.21198 9.827C5.76548 11.174 4.52448 14.432 4.54298 14.3815C2.93148 18.8265 3.47998 24.616 6.43398 29.5105C6.61715 29.8103 6.94312 29.9933 7.29448 29.9935H22.707C23.0583 29.9931 23.3842 29.8102 23.5675 29.5105C26.6175 24.458 27.047 18.5635 25.3975 14.203C24.815 12.6725 24.2555 11.2335 23.7895 9.8265C25.581 9.209 26.5 8.429 26.5 7.5C26.5 6.457 25.311 5.5755 23.058 4.94C23.1595 3.72403 23.49 2.53821 24.032 1.445C24.1859 1.13519 24.1688 0.76781 23.9867 0.473655C23.8046 0.1795 23.4834 0.00035644 23.1375 0H6.86398C6.51794 0.000183575 6.19659 0.179258 6.01438 0.473443C5.83216 0.767628 5.815 1.13511 5.96898 1.445C6.51125 2.53794 6.84173 3.72364 6.94298 4.9395C4.68898 5.5755 3.49998 6.4565 3.49998 7.5C3.49998 8.429 4.41898 9.2095 6.21198 9.827ZM24.7455 15.3905C24.9178 15.9627 25.053 16.5454 25.1505 17.135C24.143 17.711 22.8505 18.3515 21.297 19.043C18.8717 20.0862 16.7177 21.6711 15 23.676C13.2824 21.6712 11.1285 20.0864 8.70348 19.043C7.14998 18.35 5.85798 17.7115 4.84998 17.1355C4.9476 16.5461 5.08288 15.9636 5.25498 15.3915C6.76848 16.5315 9.73798 18 15 18C20.262 18 23.233 16.531 24.7455 15.3905ZM7.28998 28.9935C5.3169 25.7588 4.41604 21.9836 4.71598 18.2065C5.69348 18.745 6.89148 19.3315 8.29698 19.9565C10.7207 20.9898 12.8515 22.6061 14.5 24.6615V28.9935H7.28998ZM22.707 28.9935H15.5V24.6615C17.1486 22.6061 19.2796 20.9901 21.7035 19.957C23.109 19.3315 24.307 18.7445 25.285 18.207C25.5847 21.9844 24.6824 25.7598 22.707 28.9935ZM25.5 7.5C25.5 7.827 24.9545 8.3645 23.486 8.875C23.1986 7.93433 23.043 6.95839 23.0235 5.975C24.723 6.488 25.5 7.0935 25.5 7.5ZM6.86198 1H23.139C21.892 3.5429 21.6738 6.4688 22.53 9.1685C21.6577 9.39263 20.7728 9.56411 19.88 9.682L21.336 8.3715C21.5347 8.18534 21.5479 7.8744 21.3657 7.67204C21.1835 7.46969 20.8729 7.45033 20.667 7.6285L18.167 9.8785C18.0412 9.99966 17.9826 10.1746 18.0097 10.347C18.0369 10.5195 18.1466 10.6679 18.3035 10.7445C20.9 13.084 20.739 13 21 13C21.2069 12.9999 21.3925 12.8724 21.4666 12.6792C21.5408 12.486 21.4883 12.267 21.3345 12.1285L19.7545 10.7065C20.7928 10.5798 21.8215 10.3845 22.834 10.122C23.3025 11.538 23.8395 12.922 24.3985 14.3895C20.127 17.8895 9.87298 17.8895 5.60248 14.3895C6.15648 12.9335 6.69748 11.542 7.16698 10.122C8.17921 10.3841 9.20761 10.5792 10.2455 10.706L8.66548 12.128C8.51133 12.2664 8.45853 12.4856 8.53274 12.6791C8.60695 12.8725 8.79279 13.0002 8.99998 13C9.26648 13 9.16098 13.0275 11.8345 10.6215C11.9397 10.5267 11.9998 10.3917 11.9998 10.25C11.9998 10.1083 11.9397 9.97332 11.8345 9.8785L9.33448 7.6285C9.12857 7.45033 8.81795 7.46969 8.63575 7.67204C8.45355 7.8744 8.46677 8.18534 8.66548 8.3715L10.1215 9.682C9.22858 9.56459 8.34362 9.39311 7.47148 9.1685C8.32848 6.46885 8.11013 3.54257 6.86198 1ZM6.97798 5.976C6.95831 6.95941 6.8025 7.93535 6.51498 8.876C5.04598 8.365 4.49998 7.827 4.49998 7.5C4.49998 7.0935 5.27748 6.488 6.97798 5.9735V5.976Z" fill="#536354"/>
<path d="M15 12.5C15.8943 12.4248 16.5625 11.6453 16.5 10.75C16.5625 9.85469 15.8943 9.07519 15 9C14.1057 9.07519 13.4375 9.85469 13.5 10.75C13.4375 11.6453 14.1057 12.4248 15 12.5ZM15 10C15.2665 10 15.5 10.35 15.5 10.75C15.5 11.15 15.2665 11.5 15 11.5C14.7335 11.5 14.5 11.15 14.5 10.75C14.5 10.35 14.7335 10 15 10Z" fill="#536354"/>
</g>
<defs>
<clipPath id="clip0">
<rect width="30" height="30" fill="white"/>
</clipPath>
</defs>
</svg>
