<svg width="40" height="43" viewBox="0 0 40 43" fill="none" xmlns="http://www.w3.org/2000/svg">
<path d="M31.2629 0.5H8.73709C3.82965 0.5 0.0009242 4.7429 0.508123 9.61917L3.15749 35.0894C3.59562 39.3005 7.14839 42.5 11.3865 42.5H18.7695V32.6133C18.7695 31.9345 19.3204 31.3841 20 31.3841C20.6795 31.3841 21.2304 31.9345 21.2304 32.6133V42.5H28.6134C32.8516 42.5 36.4043 39.3005 36.8424 35.0894L39.4918 9.61917C39.999 4.7429 36.1703 0.5 31.2629 0.5V0.5ZM33.9584 13.9682L27.2538 21.6673C27.02 21.9356 26.6814 22.0897 26.3254 22.0897H13.6745C13.3185 22.0897 12.9799 21.9357 12.7462 21.6673L6.04154 13.9682C5.63869 13.5056 5.63869 12.8172 6.04154 12.3546C9.7592 8.08551 14.7164 5.7345 20 5.7345C25.2835 5.7345 30.2408 8.08559 33.9584 12.3547C34.3613 12.8172 34.3613 13.5056 33.9584 13.9682Z" fill="#C4C4C4"/>
<path d="M29.1621 11.2536L28.0945 12.5172C27.8511 12.8089 27.5012 12.9594 27.1488 12.9594C26.8709 12.9594 26.5916 12.8659 26.3614 12.6743C25.8396 12.2396 25.7691 11.4645 26.2043 10.9431L27.034 9.92939C25.2151 8.98284 23.2567 8.40911 21.2305 8.24365V9.75754C21.2305 10.4364 20.6796 10.9868 20 10.9868C19.3205 10.9868 18.7695 10.4364 18.7695 9.75754V8.24365C16.7433 8.40911 14.7849 8.98284 12.9659 9.92931L13.7957 10.943C14.2308 11.4644 14.1604 12.2396 13.6385 12.6742C13.4084 12.8658 13.129 12.9593 12.8511 12.9593C12.4987 12.9593 12.1488 12.8088 11.9054 12.5172L10.8338 11.2565C10.0586 11.8251 9.31838 12.4684 8.62054 13.1841L14.2349 19.6313H17.5117L19.4441 15.4499C19.6629 14.9762 20.3368 14.9762 20.5557 15.4499L22.4881 19.6313H25.7648L31.3792 13.1841C30.6805 12.4673 29.9389 11.8229 29.1621 11.2536Z" fill="#C4C4C4"/>
</svg>
