<svg width="290" height="176" viewBox="0 0 290 176" fill="none" xmlns="http://www.w3.org/2000/svg">
<path d="M24.1737 124C24.1737 124 60.8337 112.933 84.2633 108.25C108.261 103.454 130.104 87.0895 156.802 79.75C209.753 65.193 263.574 59 263.574 59V159H24.1737V124Z" fill="url(#paint0_linear)"/>
<path d="M183.18 158.014H184.116C184.472 158.014 184.731 157.891 184.896 157.645C185.064 157.394 185.148 157.061 185.148 156.646C185.148 156.25 185.062 155.942 184.889 155.724C184.72 155.5 184.492 155.389 184.205 155.389C183.936 155.389 183.715 155.493 183.542 155.703C183.373 155.913 183.289 156.177 183.289 156.496H181.354C181.354 155.977 181.473 155.512 181.71 155.102C181.951 154.687 182.286 154.363 182.715 154.131C183.148 153.898 183.626 153.782 184.15 153.782C185.066 153.782 185.784 154.035 186.304 154.541C186.823 155.047 187.083 155.74 187.083 156.619C187.083 157.07 186.965 157.49 186.728 157.877C186.495 158.26 186.188 158.554 185.805 158.759C186.274 158.959 186.623 159.26 186.851 159.661C187.083 160.062 187.199 160.536 187.199 161.083C187.199 161.967 186.917 162.676 186.352 163.209C185.791 163.742 185.053 164.009 184.137 164.009C183.285 164.009 182.592 163.747 182.059 163.223C181.53 162.694 181.266 162.001 181.266 161.145H183.2C183.2 161.5 183.294 161.799 183.48 162.04C183.667 162.282 183.904 162.402 184.191 162.402C184.524 162.402 184.786 162.279 184.978 162.033C185.174 161.787 185.271 161.459 185.271 161.049C185.271 160.069 184.891 159.577 184.13 159.572H183.18V158.014ZM173.334 173.872H172.303V171.165H170.018V173.872H168.975V167.532H170.018V170.28H172.303V167.532H173.334V173.872ZM177.254 173.989C176.465 173.989 175.859 173.755 175.438 173.286C175.016 172.813 174.801 172.122 174.793 171.212V170.444C174.793 169.499 174.998 168.759 175.408 168.224C175.822 167.685 176.398 167.415 177.137 167.415C177.879 167.415 178.434 167.651 178.801 168.124C179.168 168.597 179.355 169.333 179.363 170.333V171.013H175.824V171.159C175.824 171.839 175.951 172.333 176.205 172.642C176.463 172.95 176.832 173.104 177.312 173.104C177.617 173.104 177.885 173.048 178.115 172.935C178.35 172.817 178.568 172.634 178.771 172.384L179.311 173.04C178.861 173.673 178.176 173.989 177.254 173.989ZM177.137 168.306C176.707 168.306 176.389 168.454 176.182 168.751C175.975 169.044 175.857 169.501 175.83 170.122H178.326V169.981C178.299 169.38 178.189 168.95 177.998 168.692C177.811 168.435 177.523 168.306 177.137 168.306ZM180.6 172.987L180.91 172.542C181.246 172.026 181.439 171.267 181.49 170.263L181.578 167.532H185.117V172.987H185.855V175.735H184.818V173.872H181.215V175.735H180.172L180.178 172.987H180.6ZM181.754 172.987H184.086V168.534H182.586L182.533 170.081C182.479 171.315 182.219 172.284 181.754 172.987ZM189.312 173.989C188.523 173.989 187.918 173.755 187.496 173.286C187.074 172.813 186.859 172.122 186.852 171.212V170.444C186.852 169.499 187.057 168.759 187.467 168.224C187.881 167.685 188.457 167.415 189.195 167.415C189.938 167.415 190.492 167.651 190.859 168.124C191.227 168.597 191.414 169.333 191.422 170.333V171.013H187.883V171.159C187.883 171.839 188.01 172.333 188.264 172.642C188.521 172.95 188.891 173.104 189.371 173.104C189.676 173.104 189.943 173.048 190.174 172.935C190.408 172.817 190.627 172.634 190.83 172.384L191.369 173.04C190.92 173.673 190.234 173.989 189.312 173.989ZM189.195 168.306C188.766 168.306 188.447 168.454 188.24 168.751C188.033 169.044 187.916 169.501 187.889 170.122H190.385V169.981C190.357 169.38 190.248 168.95 190.057 168.692C189.869 168.435 189.582 168.306 189.195 168.306ZM197.141 167.532V173.872H196.104V168.429H194.434L194.334 170.579C194.279 171.771 194.119 172.616 193.854 173.116C193.588 173.612 193.162 173.864 192.576 173.872H192.23V172.917L192.494 172.894C192.783 172.854 192.986 172.661 193.104 172.313C193.225 171.962 193.305 171.272 193.344 170.245L193.443 167.532H197.141ZM202.93 167.532V173.872H201.893V171.405H200.668L199.391 173.872H198.277L199.648 171.224C199.305 171.075 199.043 170.847 198.863 170.538C198.684 170.229 198.594 169.872 198.594 169.466C198.594 168.884 198.781 168.417 199.156 168.065C199.531 167.71 200.035 167.532 200.668 167.532H202.93ZM199.631 169.478C199.631 169.79 199.715 170.042 199.883 170.233C200.051 170.421 200.277 170.515 200.562 170.515H201.893V168.411H200.656C200.348 168.411 200.1 168.511 199.912 168.71C199.725 168.905 199.631 169.161 199.631 169.478Z" fill="#898989"/>
<path d="M26.4276 163.872H24.4862V156.271L22.5927 157.002V155.389L26.2225 153.905H26.4276V163.872ZM14.0526 173.872H13.0214V171.165H10.7362V173.872H9.69324V167.532H10.7362V170.28H13.0214V167.532H14.0526V173.872ZM17.9725 173.989C17.1835 173.989 16.578 173.755 16.1561 173.286C15.7343 172.813 15.5194 172.122 15.5116 171.212V170.444C15.5116 169.499 15.7167 168.759 16.1268 168.224C16.5409 167.685 17.1171 167.415 17.8553 167.415C18.5975 167.415 19.1522 167.651 19.5194 168.124C19.8866 168.597 20.0741 169.333 20.0819 170.333V171.013H16.5428V171.159C16.5428 171.839 16.6698 172.333 16.9237 172.642C17.1815 172.95 17.5507 173.104 18.0311 173.104C18.3358 173.104 18.6034 173.048 18.8339 172.935C19.0682 172.817 19.287 172.634 19.4901 172.384L20.0292 173.04C19.58 173.673 18.8944 173.989 17.9725 173.989ZM17.8553 168.306C17.4257 168.306 17.1073 168.454 16.9003 168.751C16.6932 169.044 16.576 169.501 16.5487 170.122H19.0448V169.981C19.0175 169.38 18.9081 168.95 18.7167 168.692C18.5292 168.435 18.2421 168.306 17.8553 168.306ZM21.3182 172.987L21.6288 172.542C21.9647 172.026 22.1581 171.267 22.2089 170.263L22.2968 167.532H25.8358V172.987H26.5741V175.735H25.537V173.872H21.9335V175.735H20.8905L20.8964 172.987H21.3182ZM22.4725 172.987H24.8046V168.534H23.3046L23.2518 170.081C23.1971 171.315 22.9374 172.284 22.4725 172.987ZM30.0311 173.989C29.2421 173.989 28.6366 173.755 28.2147 173.286C27.7928 172.813 27.578 172.122 27.5702 171.212V170.444C27.5702 169.499 27.7753 168.759 28.1854 168.224C28.5995 167.685 29.1757 167.415 29.9139 167.415C30.6561 167.415 31.2108 167.651 31.578 168.124C31.9452 168.597 32.1327 169.333 32.1405 170.333V171.013H28.6014V171.159C28.6014 171.839 28.7284 172.333 28.9823 172.642C29.2401 172.95 29.6093 173.104 30.0897 173.104C30.3944 173.104 30.662 173.048 30.8925 172.935C31.1268 172.817 31.3456 172.634 31.5487 172.384L32.0878 173.04C31.6385 173.673 30.953 173.989 30.0311 173.989ZM29.9139 168.306C29.4843 168.306 29.1659 168.454 28.9589 168.751C28.7518 169.044 28.6346 169.501 28.6073 170.122H31.1034V169.981C31.076 169.38 30.9667 168.95 30.7753 168.692C30.5878 168.435 30.3007 168.306 29.9139 168.306ZM37.8593 167.532V173.872H36.8221V168.429H35.1522L35.0526 170.579C34.9979 171.771 34.8378 172.616 34.5721 173.116C34.3065 173.612 33.8807 173.864 33.2948 173.872H32.9491V172.917L33.2128 172.894C33.5018 172.854 33.705 172.661 33.8221 172.313C33.9432 171.962 34.0233 171.272 34.0624 170.245L34.162 167.532H37.8593ZM43.6483 167.532V173.872H42.6112V171.405H41.3866L40.1093 173.872H38.996L40.3671 171.224C40.0233 171.075 39.7616 170.847 39.5819 170.538C39.4022 170.229 39.3124 169.872 39.3124 169.466C39.3124 168.884 39.4999 168.417 39.8749 168.065C40.2499 167.71 40.7538 167.532 41.3866 167.532H43.6483ZM40.3495 169.478C40.3495 169.79 40.4335 170.042 40.6014 170.233C40.7694 170.421 40.996 170.515 41.2811 170.515H42.6112V168.411H41.3749C41.0663 168.411 40.8182 168.511 40.6307 168.71C40.4432 168.905 40.3495 169.161 40.3495 169.478Z" fill="#898989"/>
<path d="M103.457 163.872H97.5914V162.505L100.285 159.08C100.627 158.606 100.877 158.191 101.037 157.836C101.201 157.476 101.283 157.132 101.283 156.804C101.283 156.362 101.205 156.015 101.05 155.765C100.9 155.514 100.681 155.389 100.394 155.389C100.08 155.389 99.8291 155.535 99.6422 155.826C99.4599 156.118 99.3688 156.528 99.3688 157.057H97.4274C97.4274 156.446 97.5527 155.888 97.8033 155.382C98.0586 154.876 98.414 154.484 98.8698 154.206C99.33 153.924 99.8496 153.782 100.428 153.782C101.317 153.782 102.005 154.028 102.493 154.521C102.985 155.008 103.231 155.703 103.231 156.605C103.231 157.166 103.094 157.736 102.821 158.314C102.552 158.889 102.062 159.597 101.351 160.44L100.073 162.266H103.457V163.872ZM87.8619 173.872H86.8307V171.165H84.5455V173.872H83.5026V167.532H84.5455V170.28H86.8307V167.532H87.8619V173.872ZM91.7819 173.989C90.9928 173.989 90.3873 173.755 89.9655 173.286C89.5436 172.813 89.3287 172.122 89.3209 171.212V170.444C89.3209 169.499 89.526 168.759 89.9362 168.224C90.3502 167.685 90.9264 167.415 91.6647 167.415C92.4069 167.415 92.9615 167.651 93.3287 168.124C93.6959 168.597 93.8834 169.333 93.8912 170.333V171.013H90.3522V171.159C90.3522 171.839 90.4791 172.333 90.733 172.642C90.9908 172.95 91.36 173.104 91.8405 173.104C92.1451 173.104 92.4127 173.048 92.6432 172.935C92.8776 172.817 93.0963 172.634 93.2994 172.384L93.8385 173.04C93.3893 173.673 92.7037 173.989 91.7819 173.989ZM91.6647 168.306C91.235 168.306 90.9166 168.454 90.7096 168.751C90.5026 169.044 90.3854 169.501 90.358 170.122H92.8541V169.981C92.8268 169.38 92.7174 168.95 92.526 168.692C92.3385 168.435 92.0514 168.306 91.6647 168.306ZM95.1276 172.987L95.4381 172.542C95.774 172.026 95.9674 171.267 96.0182 170.263L96.1061 167.532H99.6451V172.987H100.383V175.735H99.3463V173.872H95.7428V175.735H94.6998L94.7057 172.987H95.1276ZM96.2819 172.987H98.6139V168.534H97.1139L97.0612 170.081C97.0065 171.315 96.7467 172.284 96.2819 172.987ZM103.84 173.989C103.051 173.989 102.446 173.755 102.024 173.286C101.602 172.813 101.387 172.122 101.38 171.212V170.444C101.38 169.499 101.585 168.759 101.995 168.224C102.409 167.685 102.985 167.415 103.723 167.415C104.465 167.415 105.02 167.651 105.387 168.124C105.755 168.597 105.942 169.333 105.95 170.333V171.013H102.411V171.159C102.411 171.839 102.538 172.333 102.792 172.642C103.049 172.95 103.419 173.104 103.899 173.104C104.204 173.104 104.471 173.048 104.702 172.935C104.936 172.817 105.155 172.634 105.358 172.384L105.897 173.04C105.448 173.673 104.762 173.989 103.84 173.989ZM103.723 168.306C103.294 168.306 102.975 168.454 102.768 168.751C102.561 169.044 102.444 169.501 102.417 170.122H104.913V169.981C104.885 169.38 104.776 168.95 104.585 168.692C104.397 168.435 104.11 168.306 103.723 168.306ZM111.669 167.532V173.872H110.631V168.429H108.962L108.862 170.579C108.807 171.771 108.647 172.616 108.381 173.116C108.116 173.612 107.69 173.864 107.104 173.872H106.758V172.917L107.022 172.894C107.311 172.854 107.514 172.661 107.631 172.313C107.753 171.962 107.833 171.272 107.872 170.245L107.971 167.532H111.669ZM117.458 167.532V173.872H116.421V171.405H115.196L113.919 173.872H112.805L114.176 171.224C113.833 171.075 113.571 170.847 113.391 170.538C113.212 170.229 113.122 169.872 113.122 169.466C113.122 168.884 113.309 168.417 113.684 168.065C114.059 167.71 114.563 167.532 115.196 167.532H117.458ZM114.159 169.478C114.159 169.79 114.243 170.042 114.411 170.233C114.579 170.421 114.805 170.515 115.09 170.515H116.421V168.411H115.184C114.876 168.411 114.628 168.511 114.44 168.71C114.253 168.905 114.159 169.161 114.159 169.478Z" fill="#898989"/>
<path d="M264.176 160.112H265.024V161.719H264.176V163.872H262.241V161.719H258.947L258.858 160.468L262.235 153.919H264.176V160.112ZM260.738 160.112H262.241V156.783L262.2 156.858L260.738 160.112ZM250.953 173.872H249.922V171.165H247.637V173.872H246.594V167.532H247.637V170.28H249.922V167.532H250.953V173.872ZM254.873 173.989C254.084 173.989 253.479 173.755 253.057 173.286C252.635 172.813 252.42 172.122 252.412 171.212V170.444C252.412 169.499 252.617 168.759 253.028 168.224C253.442 167.685 254.018 167.415 254.756 167.415C255.498 167.415 256.053 167.651 256.42 168.124C256.787 168.597 256.975 169.333 256.983 170.333V171.013H253.444V171.159C253.444 171.839 253.571 172.333 253.824 172.642C254.082 172.95 254.451 173.104 254.932 173.104C255.237 173.104 255.504 173.048 255.735 172.935C255.969 172.817 256.188 172.634 256.391 172.384L256.93 173.04C256.481 173.673 255.795 173.989 254.873 173.989ZM254.756 168.306C254.326 168.306 254.008 168.454 253.801 168.751C253.594 169.044 253.477 169.501 253.449 170.122H255.946V169.981C255.918 169.38 255.809 168.95 255.617 168.692C255.43 168.435 255.143 168.306 254.756 168.306ZM258.219 172.987L258.53 172.542C258.865 172.026 259.059 171.267 259.11 170.263L259.198 167.532H262.737V172.987H263.475V175.735H262.438V173.872H258.834V175.735H257.791L257.797 172.987H258.219ZM259.373 172.987H261.705V168.534H260.205L260.153 170.081C260.098 171.315 259.838 172.284 259.373 172.987ZM266.932 173.989C266.143 173.989 265.537 173.755 265.115 173.286C264.694 172.813 264.479 172.122 264.471 171.212V170.444C264.471 169.499 264.676 168.759 265.086 168.224C265.5 167.685 266.076 167.415 266.815 167.415C267.557 167.415 268.112 167.651 268.479 168.124C268.846 168.597 269.033 169.333 269.041 170.333V171.013H265.502V171.159C265.502 171.839 265.629 172.333 265.883 172.642C266.141 172.95 266.51 173.104 266.99 173.104C267.295 173.104 267.563 173.048 267.793 172.935C268.028 172.817 268.246 172.634 268.449 172.384L268.989 173.04C268.539 173.673 267.854 173.989 266.932 173.989ZM266.815 168.306C266.385 168.306 266.067 168.454 265.86 168.751C265.653 169.044 265.535 169.501 265.508 170.122H268.004V169.981C267.977 169.38 267.867 168.95 267.676 168.692C267.489 168.435 267.201 168.306 266.815 168.306ZM274.76 167.532V173.872H273.723V168.429H272.053L271.953 170.579C271.899 171.771 271.739 172.616 271.473 173.116C271.207 173.612 270.781 173.864 270.196 173.872H269.85V172.917L270.114 172.894C270.403 172.854 270.606 172.661 270.723 172.313C270.844 171.962 270.924 171.272 270.963 170.245L271.063 167.532H274.76ZM280.549 167.532V173.872H279.512V171.405H278.287L277.01 173.872H275.897L277.268 171.224C276.924 171.075 276.662 170.847 276.483 170.538C276.303 170.229 276.213 169.872 276.213 169.466C276.213 168.884 276.401 168.417 276.776 168.065C277.151 167.71 277.655 167.532 278.287 167.532H280.549ZM277.25 169.478C277.25 169.79 277.334 170.042 277.502 170.233C277.67 170.421 277.897 170.515 278.182 170.515H279.512V168.411H278.276C277.967 168.411 277.719 168.511 277.531 168.71C277.344 168.905 277.25 169.161 277.25 169.478Z" fill="#898989"/>
<path d="M18.4292 115.501C20.1367 116.088 26.6742 123.13 26.6742 123.13C26.6742 123.13 33.1792 116.104 34.8705 115.517C44.9369 112.094 52.1737 102.557 52.1737 91.3081C52.1737 76.7827 40.0907 65.0939 25.4708 65.7786C12.3145 66.3818 1.6789 77.1577 1.19103 90.3626C0.768205 101.986 8.10255 111.963 18.4292 115.501Z" fill="white"/>
<g filter="url(#filter0_d)">
<ellipse cx="26.6737" cy="125.844" rx="4.3" ry="4.3359" fill="#FFE713"/>
</g>
<g filter="url(#filter1_d)">
<ellipse cx="26.4053" cy="91.192" rx="21.4737" ry="21.653" fill="white"/>
</g>
<path d="M22.4628 88.8926C21.8182 89.5514 21.1128 89.8809 20.3466 89.8809C19.1578 89.8809 18.2196 89.4046 17.5321 88.4521C16.8518 87.4925 16.5116 86.2142 16.5116 84.6172C16.5116 83.5859 16.705 82.6442 17.0917 81.792C17.4784 80.9326 18.0155 80.2666 18.703 79.7939C19.3977 79.3213 20.1711 79.085 21.0233 79.085C21.9042 79.085 22.6884 79.3464 23.3759 79.8691C24.0634 80.3919 24.5969 81.1439 24.9764 82.125C25.356 83.099 25.5458 84.209 25.5458 85.4551V86.5615C25.5458 89.2256 24.9585 91.3096 23.7841 92.8135C22.6167 94.3102 20.9589 95.0729 18.8104 95.1016H18.4989V92.4805H18.703C19.8918 92.4733 20.7834 92.1654 21.3778 91.5566C21.9794 90.9479 22.341 90.0599 22.4628 88.8926ZM21.12 87.4961C21.7072 87.4961 22.1691 87.0951 22.5057 86.293V84.8965C22.5057 83.8724 22.3661 83.0703 22.0868 82.4902C21.8075 81.903 21.4458 81.6094 21.0018 81.6094C20.565 81.6094 20.2105 81.8994 19.9384 82.4795C19.6734 83.0524 19.5409 83.7542 19.5409 84.585C19.5409 85.4873 19.6805 86.1999 19.9598 86.7227C20.2391 87.2383 20.6259 87.4961 21.12 87.4961ZM36.7821 88.4736C36.7821 90.6364 36.3882 92.2907 35.6005 93.4365C34.8199 94.5824 33.7027 95.1553 32.2489 95.1553C30.8094 95.1553 29.6958 94.6003 28.9081 93.4902C28.1275 92.373 27.7229 90.776 27.6942 88.6992V85.7451C27.6942 83.5895 28.0845 81.9424 28.8651 80.8037C29.6457 79.6579 30.7665 79.085 32.2274 79.085C33.6884 79.085 34.8091 79.6507 35.5897 80.7822C36.3703 81.9137 36.7678 83.5286 36.7821 85.627V88.4736ZM33.7313 85.3047C33.7313 84.0729 33.6096 83.1491 33.3661 82.5332C33.1226 81.9173 32.743 81.6094 32.2274 81.6094C31.2606 81.6094 30.7593 82.7373 30.7235 84.9932V88.8926C30.7235 90.153 30.8453 91.0911 31.0887 91.707C31.3394 92.3229 31.7261 92.6309 32.2489 92.6309C32.743 92.6309 33.1083 92.3444 33.3446 91.7715C33.5881 91.1914 33.717 90.307 33.7313 89.1182V85.3047ZM22.6249 102.239H22.0389V104.94H21.0018V98.6006H22.0389V101.284H22.5546L24.2831 98.6006H25.5194L23.4042 101.618L25.6718 104.94H24.371L22.6249 102.239ZM30.1542 99.4971H27.7928V104.94H26.7499V98.6006H30.1542V99.4971ZM31.1971 104.513C31.1971 104.372 31.2401 104.255 31.326 104.161C31.4159 104.063 31.5389 104.015 31.6952 104.015C31.8514 104.015 31.9745 104.063 32.0643 104.161C32.1542 104.255 32.1991 104.372 32.1991 104.513C32.1991 104.649 32.1542 104.763 32.0643 104.853C31.9745 104.942 31.8514 104.987 31.6952 104.987C31.5389 104.987 31.4159 104.942 31.326 104.853C31.2401 104.763 31.1971 104.649 31.1971 104.513Z" fill="#44AF5C"/>
<path d="M92.2385 93.4413C93.9461 94.0282 100.484 101.071 100.484 101.071C100.484 101.071 106.989 94.0445 108.68 93.4576C118.746 90.0341 125.983 80.4972 125.983 69.2486C125.983 54.7232 113.9 43.0344 99.2801 43.7191C86.1238 44.3222 75.4882 55.0981 75.0004 68.303C74.5775 79.9266 81.9119 89.9037 92.2385 93.4413Z" fill="white"/>
<g filter="url(#filter2_d)">
<ellipse cx="100.483" cy="103.784" rx="4.3" ry="4.3359" fill="#FFE713"/>
</g>
<g filter="url(#filter3_d)">
<ellipse cx="100.215" cy="69.1325" rx="21.4737" ry="21.653" fill="white"/>
</g>
<path d="M96.2721 66.833C95.6276 67.4919 94.9222 67.8213 94.1559 67.8213C92.9671 67.8213 92.0289 67.3451 91.3414 66.3926C90.6611 65.4329 90.3209 64.1546 90.3209 62.5576C90.3209 61.5264 90.5143 60.5846 90.901 59.7324C91.2877 58.873 91.8248 58.207 92.5123 57.7344C93.207 57.2617 93.9804 57.0254 94.8326 57.0254C95.7135 57.0254 96.4977 57.2868 97.1852 57.8096C97.8727 58.3324 98.4062 59.0843 98.7858 60.0654C99.1653 61.0394 99.3551 62.1494 99.3551 63.3955V64.502C99.3551 67.166 98.7679 69.25 97.5934 70.7539C96.4261 72.2507 94.7682 73.0133 92.6198 73.042H92.3082V70.4209H92.5123C93.7011 70.4137 94.5927 70.1058 95.1871 69.4971C95.7887 68.8883 96.1503 68.0003 96.2721 66.833ZM94.9293 65.4365C95.5166 65.4365 95.9785 65.0355 96.3151 64.2334V62.8369C96.3151 61.8128 96.1754 61.0107 95.8961 60.4307C95.6168 59.8434 95.2552 59.5498 94.8112 59.5498C94.3743 59.5498 94.0198 59.8398 93.7477 60.4199C93.4827 60.9928 93.3502 61.6947 93.3502 62.5254C93.3502 63.4277 93.4899 64.1403 93.7692 64.6631C94.0485 65.1787 94.4352 65.4365 94.9293 65.4365ZM110.72 72.8809H101.504V70.7324L105.736 65.3506C106.273 64.6058 106.667 63.9541 106.918 63.3955C107.175 62.8298 107.304 62.2891 107.304 61.7734C107.304 61.0788 107.183 60.5345 106.939 60.1406C106.703 59.7467 106.359 59.5498 105.908 59.5498C105.414 59.5498 105.02 59.779 104.726 60.2373C104.44 60.6956 104.297 61.3402 104.297 62.1709H101.246C101.246 61.2113 101.443 60.334 101.837 59.5391C102.238 58.7441 102.796 58.1283 103.512 57.6914C104.236 57.2474 105.052 57.0254 105.962 57.0254C107.358 57.0254 108.439 57.4121 109.206 58.1855C109.979 58.9518 110.366 60.0439 110.366 61.4619C110.366 62.3428 110.151 63.238 109.721 64.1475C109.299 65.0498 108.529 66.1634 107.412 67.4883L105.403 70.3564H110.72V72.8809ZM96.4342 80.1797H95.8483V82.8809H94.8112V76.541H95.8483V79.2246H96.3639L98.0924 76.541H99.3287L97.2135 79.5586L99.4811 82.8809H98.1803L96.4342 80.1797ZM103.964 77.4375H101.602V82.8809H100.559V76.541H103.964V77.4375ZM105.006 82.4531C105.006 82.3125 105.049 82.1953 105.135 82.1016C105.225 82.0039 105.348 81.9551 105.505 81.9551C105.661 81.9551 105.784 82.0039 105.874 82.1016C105.964 82.1953 106.008 82.3125 106.008 82.4531C106.008 82.5898 105.964 82.7031 105.874 82.793C105.784 82.8828 105.661 82.9277 105.505 82.9277C105.348 82.9277 105.225 82.8828 105.135 82.793C105.049 82.7031 105.006 82.5898 105.006 82.4531Z" fill="#44AF5C"/>
<path d="M177.711 66.0009C179.418 66.5878 185.956 73.6304 185.956 73.6304C185.956 73.6304 192.461 66.6041 194.152 66.0172C204.218 62.5937 211.455 53.0568 211.455 41.8081C211.455 27.2827 199.372 15.5939 184.752 16.2786C171.596 16.8818 160.96 27.6577 160.472 40.8626C160.05 52.4862 167.384 62.4633 177.711 66.0009Z" fill="white"/>
<g filter="url(#filter4_d)">
<ellipse cx="185.955" cy="76.3437" rx="4.3" ry="4.3359" fill="#FFE713"/>
</g>
<g filter="url(#filter5_d)">
<ellipse cx="185.687" cy="41.692" rx="21.4737" ry="21.653" fill="white"/>
</g>
<path d="M181.744 39.3926C181.1 40.0514 180.394 40.3809 179.628 40.3809C178.439 40.3809 177.501 39.9046 176.813 38.9521C176.133 37.9925 175.793 36.7142 175.793 35.1172C175.793 34.0859 175.986 33.1442 176.373 32.292C176.76 31.4326 177.297 30.7666 177.984 30.2939C178.679 29.8213 179.452 29.585 180.305 29.585C181.186 29.585 181.97 29.8464 182.657 30.3691C183.345 30.8919 183.878 31.6439 184.258 32.625C184.637 33.599 184.827 34.709 184.827 35.9551V37.0615C184.827 39.7256 184.24 41.8096 183.065 43.3135C181.898 44.8102 180.24 45.5729 178.092 45.6016H177.78V42.9805H177.984C179.173 42.9733 180.065 42.6654 180.659 42.0566C181.261 41.4479 181.622 40.5599 181.744 39.3926ZM180.401 37.9961C180.989 37.9961 181.451 37.5951 181.787 36.793V35.3965C181.787 34.3724 181.647 33.5703 181.368 32.9902C181.089 32.403 180.727 32.1094 180.283 32.1094C179.846 32.1094 179.492 32.3994 179.22 32.9795C178.955 33.5524 178.822 34.2542 178.822 35.085C178.822 35.9873 178.962 36.6999 179.241 37.2227C179.521 37.7383 179.907 37.9961 180.401 37.9961ZM194.989 39.5322H196.321V42.0566H194.989V45.4404H191.949V42.0566H186.771L186.632 40.0908L191.938 29.7998H194.989V39.5322ZM189.586 39.5322H191.949V34.3008L191.885 34.4189L189.586 39.5322ZM181.906 52.7393H181.32V55.4404H180.283V49.1006H181.32V51.7842H181.836L183.564 49.1006H184.801L182.686 52.1182L184.953 55.4404H183.652L181.906 52.7393ZM189.436 49.9971H187.074V55.4404H186.031V49.1006H189.436V49.9971ZM190.479 55.0127C190.479 54.8721 190.521 54.7549 190.607 54.6611C190.697 54.5635 190.82 54.5146 190.977 54.5146C191.133 54.5146 191.256 54.5635 191.346 54.6611C191.436 54.7549 191.48 54.8721 191.48 55.0127C191.48 55.1494 191.436 55.2627 191.346 55.3525C191.256 55.4424 191.133 55.4873 190.977 55.4873C190.82 55.4873 190.697 55.4424 190.607 55.3525C190.521 55.2627 190.479 55.1494 190.479 55.0127Z" fill="#44AF5C"/>
<path d="M255.33 51.5009C257.038 52.0878 263.575 59.1304 263.575 59.1304C263.575 59.1304 270.08 52.1041 271.771 51.5172C281.838 48.0937 289.074 38.5568 289.074 27.3081C289.074 12.7827 276.991 1.09392 262.372 1.77862C249.215 2.38181 238.58 13.1577 238.092 26.3626C237.669 37.9862 245.003 47.9633 255.33 51.5009Z" fill="white"/>
<g filter="url(#filter6_d)">
<ellipse cx="263.574" cy="61.8437" rx="4.3" ry="4.3359" fill="#FFE713"/>
</g>
<g filter="url(#filter7_d)">
<ellipse cx="263.306" cy="27.192" rx="21.4737" ry="21.653" fill="white"/>
</g>
<path d="M259.364 24.8926C258.719 25.5514 258.014 25.8809 257.247 25.8809C256.059 25.8809 255.12 25.4046 254.433 24.4521C253.753 23.4925 253.412 22.2142 253.412 20.6172C253.412 19.5859 253.606 18.6442 253.992 17.792C254.379 16.9326 254.916 16.2666 255.604 15.7939C256.298 15.3213 257.072 15.085 257.924 15.085C258.805 15.085 259.589 15.3464 260.277 15.8691C260.964 16.3919 261.498 17.1439 261.877 18.125C262.257 19.099 262.447 20.209 262.447 21.4551V22.5615C262.447 25.2256 261.859 27.3096 260.685 28.8135C259.517 30.3102 257.86 31.0729 255.711 31.1016H255.4V28.4805H255.604C256.793 28.4733 257.684 28.1654 258.279 27.5566C258.88 26.9479 259.242 26.0599 259.364 24.8926ZM258.021 23.4961C258.608 23.4961 259.07 23.0951 259.406 22.293V20.8965C259.406 19.8724 259.267 19.0703 258.988 18.4902C258.708 17.903 258.347 17.6094 257.903 17.6094C257.466 17.6094 257.111 17.8994 256.839 18.4795C256.574 19.0524 256.442 19.7542 256.442 20.585C256.442 21.4873 256.581 22.1999 256.861 22.7227C257.14 23.2383 257.527 23.4961 258.021 23.4961ZM264.906 23.249L265.68 15.2998H273.253V17.8994H268.172L267.893 21.251C268.48 20.8571 269.085 20.6602 269.708 20.6602C270.997 20.6602 271.989 21.1185 272.684 22.0352C273.386 22.9518 273.737 24.248 273.737 25.9238C273.737 27.4922 273.321 28.7562 272.49 29.7158C271.66 30.6755 270.55 31.1553 269.16 31.1553C268.337 31.1553 267.574 30.9619 266.872 30.5752C266.17 30.1813 265.615 29.637 265.207 28.9424C264.806 28.2477 264.602 27.46 264.595 26.5791H267.603C267.653 27.2308 267.814 27.7357 268.086 28.0938C268.358 28.4518 268.709 28.6309 269.139 28.6309C269.64 28.6309 270.027 28.391 270.299 27.9111C270.571 27.4242 270.707 26.7008 270.707 25.7412C270.707 24.8389 270.543 24.1585 270.213 23.7002C269.891 23.2419 269.436 23.0127 268.849 23.0127C268.276 23.0127 267.832 23.2096 267.517 23.6035L267.323 23.8721L264.906 23.249ZM259.526 38.2393H258.94V40.9404H257.903V34.6006H258.94V37.2842H259.455L261.184 34.6006H262.42L260.305 37.6182L262.573 40.9404H261.272L259.526 38.2393ZM267.055 35.4971H264.694V40.9404H263.651V34.6006H267.055V35.4971ZM268.098 40.5127C268.098 40.3721 268.141 40.2549 268.227 40.1611C268.317 40.0635 268.44 40.0146 268.596 40.0146C268.752 40.0146 268.875 40.0635 268.965 40.1611C269.055 40.2549 269.1 40.3721 269.1 40.5127C269.1 40.6494 269.055 40.7627 268.965 40.8525C268.875 40.9424 268.752 40.9873 268.596 40.9873C268.44 40.9873 268.317 40.9424 268.227 40.8525C268.141 40.7627 268.098 40.6494 268.098 40.5127Z" fill="#44AF5C"/>
<path d="M26.4239 150L26.4053 129" stroke="#C4C4C4" stroke-width="0.5" stroke-dasharray="5 5"/>
<line x1="99.9646" y1="153" x2="99.9646" y2="109" stroke="#C4C4C4" stroke-width="0.5" stroke-dasharray="5 5"/>
<line x1="185.365" y1="149" x2="185.365" y2="85" stroke="#C4C4C4" stroke-width="0.5" stroke-dasharray="5 5"/>
<line x1="263.056" y1="148.999" x2="263.324" y2="69.5382" stroke="#C4C4C4" stroke-width="0.5" stroke-dasharray="5 5"/>
<defs>
<filter id="filter0_d" x="18.3737" y="121.508" width="16.6" height="16.6718" filterUnits="userSpaceOnUse" color-interpolation-filters="sRGB">
<feFlood flood-opacity="0" result="BackgroundImageFix"/>
<feColorMatrix in="SourceAlpha" type="matrix" values="0 0 0 0 0 0 0 0 0 0 0 0 0 0 0 0 0 0 127 0"/>
<feOffset dy="4"/>
<feGaussianBlur stdDeviation="2"/>
<feColorMatrix type="matrix" values="0 0 0 0 0 0 0 0 0 0 0 0 0 0 0 0 0 0 0.25 0"/>
<feBlend mode="normal" in2="BackgroundImageFix" result="effect1_dropShadow"/>
<feBlend mode="normal" in="SourceGraphic" in2="effect1_dropShadow" result="shape"/>
</filter>
<filter id="filter1_d" x="0.931549" y="69.5391" width="50.9474" height="51.306" filterUnits="userSpaceOnUse" color-interpolation-filters="sRGB">
<feFlood flood-opacity="0" result="BackgroundImageFix"/>
<feColorMatrix in="SourceAlpha" type="matrix" values="0 0 0 0 0 0 0 0 0 0 0 0 0 0 0 0 0 0 127 0"/>
<feOffset dy="4"/>
<feGaussianBlur stdDeviation="2"/>
<feColorMatrix type="matrix" values="0 0 0 0 0 0 0 0 0 0 0 0 0 0 0 0 0 0 0.25 0"/>
<feBlend mode="normal" in2="BackgroundImageFix" result="effect1_dropShadow"/>
<feBlend mode="normal" in="SourceGraphic" in2="effect1_dropShadow" result="shape"/>
</filter>
<filter id="filter2_d" x="92.183" y="99.4482" width="16.6" height="16.6718" filterUnits="userSpaceOnUse" color-interpolation-filters="sRGB">
<feFlood flood-opacity="0" result="BackgroundImageFix"/>
<feColorMatrix in="SourceAlpha" type="matrix" values="0 0 0 0 0 0 0 0 0 0 0 0 0 0 0 0 0 0 127 0"/>
<feOffset dy="4"/>
<feGaussianBlur stdDeviation="2"/>
<feColorMatrix type="matrix" values="0 0 0 0 0 0 0 0 0 0 0 0 0 0 0 0 0 0 0.25 0"/>
<feBlend mode="normal" in2="BackgroundImageFix" result="effect1_dropShadow"/>
<feBlend mode="normal" in="SourceGraphic" in2="effect1_dropShadow" result="shape"/>
</filter>
<filter id="filter3_d" x="74.7409" y="47.4795" width="50.9474" height="51.306" filterUnits="userSpaceOnUse" color-interpolation-filters="sRGB">
<feFlood flood-opacity="0" result="BackgroundImageFix"/>
<feColorMatrix in="SourceAlpha" type="matrix" values="0 0 0 0 0 0 0 0 0 0 0 0 0 0 0 0 0 0 127 0"/>
<feOffset dy="4"/>
<feGaussianBlur stdDeviation="2"/>
<feColorMatrix type="matrix" values="0 0 0 0 0 0 0 0 0 0 0 0 0 0 0 0 0 0 0.25 0"/>
<feBlend mode="normal" in2="BackgroundImageFix" result="effect1_dropShadow"/>
<feBlend mode="normal" in="SourceGraphic" in2="effect1_dropShadow" result="shape"/>
</filter>
<filter id="filter4_d" x="177.655" y="72.0078" width="16.6" height="16.6718" filterUnits="userSpaceOnUse" color-interpolation-filters="sRGB">
<feFlood flood-opacity="0" result="BackgroundImageFix"/>
<feColorMatrix in="SourceAlpha" type="matrix" values="0 0 0 0 0 0 0 0 0 0 0 0 0 0 0 0 0 0 127 0"/>
<feOffset dy="4"/>
<feGaussianBlur stdDeviation="2"/>
<feColorMatrix type="matrix" values="0 0 0 0 0 0 0 0 0 0 0 0 0 0 0 0 0 0 0.25 0"/>
<feBlend mode="normal" in2="BackgroundImageFix" result="effect1_dropShadow"/>
<feBlend mode="normal" in="SourceGraphic" in2="effect1_dropShadow" result="shape"/>
</filter>
<filter id="filter5_d" x="160.213" y="20.0391" width="50.9474" height="51.306" filterUnits="userSpaceOnUse" color-interpolation-filters="sRGB">
<feFlood flood-opacity="0" result="BackgroundImageFix"/>
<feColorMatrix in="SourceAlpha" type="matrix" values="0 0 0 0 0 0 0 0 0 0 0 0 0 0 0 0 0 0 127 0"/>
<feOffset dy="4"/>
<feGaussianBlur stdDeviation="2"/>
<feColorMatrix type="matrix" values="0 0 0 0 0 0 0 0 0 0 0 0 0 0 0 0 0 0 0.25 0"/>
<feBlend mode="normal" in2="BackgroundImageFix" result="effect1_dropShadow"/>
<feBlend mode="normal" in="SourceGraphic" in2="effect1_dropShadow" result="shape"/>
</filter>
<filter id="filter6_d" x="255.274" y="57.5078" width="16.6" height="16.6718" filterUnits="userSpaceOnUse" color-interpolation-filters="sRGB">
<feFlood flood-opacity="0" result="BackgroundImageFix"/>
<feColorMatrix in="SourceAlpha" type="matrix" values="0 0 0 0 0 0 0 0 0 0 0 0 0 0 0 0 0 0 127 0"/>
<feOffset dy="4"/>
<feGaussianBlur stdDeviation="2"/>
<feColorMatrix type="matrix" values="0 0 0 0 0 0 0 0 0 0 0 0 0 0 0 0 0 0 0.25 0"/>
<feBlend mode="normal" in2="BackgroundImageFix" result="effect1_dropShadow"/>
<feBlend mode="normal" in="SourceGraphic" in2="effect1_dropShadow" result="shape"/>
</filter>
<filter id="filter7_d" x="237.832" y="5.53906" width="50.9474" height="51.306" filterUnits="userSpaceOnUse" color-interpolation-filters="sRGB">
<feFlood flood-opacity="0" result="BackgroundImageFix"/>
<feColorMatrix in="SourceAlpha" type="matrix" values="0 0 0 0 0 0 0 0 0 0 0 0 0 0 0 0 0 0 127 0"/>
<feOffset dy="4"/>
<feGaussianBlur stdDeviation="2"/>
<feColorMatrix type="matrix" values="0 0 0 0 0 0 0 0 0 0 0 0 0 0 0 0 0 0 0.25 0"/>
<feBlend mode="normal" in2="BackgroundImageFix" result="effect1_dropShadow"/>
<feBlend mode="normal" in="SourceGraphic" in2="effect1_dropShadow" result="shape"/>
</filter>
<linearGradient id="paint0_linear" x1="143.874" y1="59" x2="143.874" y2="159" gradientUnits="userSpaceOnUse">
<stop stop-color="#44AF5C"/>
<stop offset="1" stop-color="#ECE6E6"/>
</linearGradient>
</defs>
</svg>
