<svg width="17" height="32" viewBox="0 0 17 32" fill="none" xmlns="http://www.w3.org/2000/svg">
<path d="M16.0145 10.3489C16.1905 9.14453 15.496 8.51314 15.1497 7.99658C14.6435 7.24032 13.8421 6.62406 13.8421 6.62406C13.5921 5.27917 12.4329 4.9861 11.9016 4.99779C10.7763 5.02708 9.43375 4.2986 9.43375 4.2986C9.43375 3.45871 9.58137 3.01065 9.58137 3.01065C10.1395 2.08687 9.69982 1.94632 9.69982 1.94632C9.9343 0.320875 8.73043 0.0411431 8.73043 0.0411431C8.73043 0.0411431 8.43626 -0.0133179 8.22016 0.00346047H8.20964C7.9942 -0.0141431 7.70016 0.0411431 7.70016 0.0411431C7.70016 0.0411431 6.4959 0.320875 6.73078 1.94632C6.73078 1.94632 6.28979 2.08687 6.84882 3.01065C6.84882 3.01065 6.99524 3.45775 6.99524 4.2986C6.99524 4.2986 5.65348 5.02956 4.52782 4.99779C3.9969 4.98348 2.83633 5.27834 2.58733 6.62406C2.58733 6.62406 1.78741 7.24032 1.28034 7.99658C0.93394 8.51493 0.239545 9.14467 0.415542 10.3489C0.415542 10.3489 0.780992 11.9868 1.06224 12.5346C1.17256 12.7497 1.03306 13.2061 0.944998 13.4859C0.944998 13.4859 0.914888 14.0185 1.09182 14.3251C1.09182 14.3251 1.09182 14.8149 1.47312 14.8024C1.47312 14.8024 1.57611 14.9699 1.85483 14.928C1.85483 14.928 1.98673 15.0243 2.22188 14.9556C2.22188 14.9556 2.38295 15.0101 2.63276 14.9137C2.63276 14.9137 2.97103 15.0384 2.89722 14.4933C2.89722 14.4933 3.17634 14.5076 3.07322 13.9029C3.07322 13.9029 2.69111 13.2321 2.25065 12.98C2.25065 12.98 2.15206 12.1703 2.20522 11.9282C2.32326 11.3964 2.45663 10.585 2.13381 10.0239C2.13381 10.0239 2.9593 9.7425 3.24761 9.47707C3.62732 9.12789 3.8317 8.91183 4.06818 8.53239C3.95054 8.83138 3.92709 9.59095 5.59859 10.9325C5.59859 10.9325 5.41074 12.9959 5.83175 14.098C5.83175 14.098 3.67875 18.4812 5.00026 21.1995C5.00026 21.1995 5.31948 21.6868 5.23141 22.5275C5.23141 22.5275 4.45148 25.2727 5.50813 28.2699C5.50813 28.2699 6.34695 30.2873 4.14399 31.0417C4.14399 31.0417 3.64464 31.8683 4.33504 31.9947C4.33504 31.9947 4.93737 32.1195 5.72956 31.1405C5.72956 31.1405 6.06783 30.902 6.84629 30.747C6.84629 30.747 7.40439 30.6633 6.96354 29.6702C6.96354 29.6702 6.8439 29.4658 6.85122 29.0747C6.85815 28.7021 6.88773 28.5647 6.91451 28.5028C6.98352 28.3403 7.98941 24.0259 7.19123 22.9472C7.19123 22.9472 7.03428 22.7229 7.26903 22.1627C7.26903 22.1627 8.09413 20.9677 8.21137 18.8724C8.32941 20.9675 9.15411 22.1627 9.15411 22.1627C9.38939 22.7229 9.23244 22.9472 9.23244 22.9472C8.43493 24.0268 9.44015 28.3396 9.50903 28.5028C9.53528 28.5647 9.56539 28.7021 9.57191 29.0747C9.57924 29.4658 9.45987 29.6702 9.45987 29.6702C9.01861 30.6633 9.57764 30.747 9.57764 30.747C10.3564 30.902 10.6938 31.1405 10.6938 31.1405C11.4872 32.1204 12.09 31.9947 12.09 31.9947C12.7805 31.8683 12.2808 31.0417 12.2808 31.0417C10.0782 30.2863 10.9162 28.2699 10.9162 28.2699C11.9733 25.2727 11.1928 22.5275 11.1928 22.5275C11.1053 21.6876 11.4231 21.1995 11.4231 21.1995C12.7455 18.4812 10.5917 14.098 10.5917 14.098C11.0135 12.996 10.8252 10.9325 10.8252 10.9325C12.4972 9.59177 12.4729 8.83138 12.356 8.53239C12.5937 8.91101 12.7982 9.12706 13.1771 9.47707C13.465 9.7425 14.2909 10.0239 14.2909 10.0239C13.9672 10.5832 14.1011 11.3964 14.2195 11.9282C14.2715 12.1678 14.1733 12.98 14.1733 12.98C13.7327 13.2321 13.3514 13.9029 13.3514 13.9029C13.2484 14.5059 13.5274 14.4933 13.5274 14.4933C13.4544 15.0393 13.791 14.9137 13.791 14.9137C14.0417 15.01 14.2023 14.9556 14.2023 14.9556C14.4376 15.0243 14.569 14.928 14.569 14.928C14.8481 14.9699 14.9511 14.8024 14.9511 14.8024C15.3324 14.8174 15.3324 14.3251 15.3324 14.3251C15.5092 14.0185 15.48 13.4859 15.48 13.4859C15.3923 13.2061 15.2519 12.7497 15.3614 12.5346C15.6487 11.9886 16.0145 10.3489 16.0145 10.3489Z" fill="#FFE713"/>
</svg>
