<svg width="44" height="44" viewBox="0 0 44 44" fill="none" xmlns="http://www.w3.org/2000/svg">
<g clip-path="url(#clip0)">
<path fill-rule="evenodd" clip-rule="evenodd" d="M31.8857 23.2343C31.6734 21.0288 31.1903 18.9958 30.6548 17.1032C30.6533 17.0981 30.652 17.0928 30.6505 17.0877C30.4299 16.3086 30.2004 15.5533 29.9776 14.8191C29.2507 12.4263 28.5643 10.1661 28.5108 8.10965C28.3887 3.43178 29.5229 1.58514 29.5677 1.51431C29.7256 1.28436 29.7815 0.907711 29.7131 0.565305C29.6448 0.223235 29.4592 0 29.2556 0H14.8139C14.6101 0 14.423 0.22055 14.3547 0.56262C14.2861 0.905026 14.3403 1.27865 14.4983 1.5086C14.5466 1.5848 15.6808 3.43178 15.5589 8.10931C15.5052 10.1658 14.8188 12.426 14.0921 14.8191C13.8691 15.5529 13.6396 16.3086 13.419 17.0877C13.4175 17.0928 13.4162 17.0978 13.4147 17.1028C12.8454 19.1153 12.3353 21.2862 12.1469 23.6549C12.1446 23.6787 12.1428 23.7029 12.1416 23.727C12.0746 24.6005 12.0509 25.5008 12.0852 26.4304C12.1435 28.0182 12.2954 29.8142 12.5365 31.7689C12.5937 32.2325 12.8506 32.5252 13.1106 32.4235C13.3705 32.3214 13.5348 31.8632 13.4776 31.3996C13.247 29.5292 13.1021 27.8195 13.0468 26.3179C13.036 26.0279 13.0324 25.7409 13.034 25.4565L19.8846 34.8452C20.3448 35.4759 20.9288 35.8677 21.5529 35.9721V42.2814H15.4087C15.2319 41.505 14.8832 39.9202 14.5084 37.9278C14.4237 37.478 14.1504 37.2356 13.8984 37.3867C13.646 37.5374 13.5101 38.0245 13.5948 38.4747C14.1427 41.3871 14.6234 43.3952 14.6436 43.4792C14.7196 43.7951 14.8937 44.0002 15.0864 44.0002H28.9831C29.1758 44.0002 29.3501 43.7951 29.4259 43.4792C29.5191 43.0918 31.7095 33.9029 31.9843 26.4307C32.0244 25.3421 31.9857 24.2937 31.89 23.2812C31.8889 23.2655 31.8874 23.25 31.8857 23.2343ZM16.5214 8.18954C16.6027 5.07432 16.1781 2.97893 15.7762 1.71908H28.2933C27.8912 2.97893 27.4668 5.07432 27.5481 8.18954C27.6119 10.6388 28.3495 13.0671 29.1301 15.6379C29.2927 16.173 29.456 16.7114 29.6153 17.2542C27.8638 19.545 25.069 20.8982 22.0347 20.8982C19.0005 20.8982 16.2057 19.545 14.4542 17.2542C14.6134 16.7114 14.7768 16.173 14.9392 15.6379C15.7202 13.0671 16.4576 10.6388 16.5214 8.18954ZM13.1405 23.435C13.301 21.822 13.6268 20.2922 14.0185 18.8102C15.9396 21.2073 18.8786 22.6169 22.0347 22.6169C25.1911 22.6169 28.1299 21.207 30.051 18.8102C30.4099 20.1684 30.7133 21.5669 30.8852 23.0328L23.2034 33.5605C22.4784 34.5541 21.2275 34.5182 20.4718 33.4826L13.1405 23.435ZM31.0227 26.3183C30.795 32.5121 29.1269 40.228 28.6608 42.2814H22.5166V35.9009C22.995 35.7455 23.4334 35.4125 23.7904 34.9234L31.0282 25.0044C31.0399 25.4357 31.0391 25.8731 31.0227 26.3183Z" fill="#FFE713"/>
<path fill-rule="evenodd" clip-rule="evenodd" d="M22.0347 16.8972C22.3008 16.8972 22.5165 16.5125 22.5165 16.0378V13.4214C22.5165 12.9467 22.3008 12.562 22.0347 12.562C21.7686 12.562 21.5529 12.9467 21.5529 13.4214V16.0378C21.5529 16.5125 21.7686 16.8972 22.0347 16.8972Z" fill="#FFE713"/>
<path fill-rule="evenodd" clip-rule="evenodd" d="M13.9621 34.917C13.9621 34.4437 13.7456 34.0576 13.4802 34.0576C13.2149 34.0576 12.9984 34.4437 12.9984 34.917C12.9984 35.3903 13.2149 35.7764 13.4802 35.7764C13.7456 35.7764 13.9621 35.3903 13.9621 34.917Z" fill="#FFE713"/>
<path d="M8.46501 15.1252H12V12.8748H8.46501L9.55305 11.2489L7.67494 10L5 14L7.67494 18L9.55305 16.7511L8.46501 15.1252Z" fill="#FFE713"/>
<path d="M37.3251 10L35.447 11.2489L36.535 12.8748H33V15.1252H36.535L35.447 16.7511L37.3251 18L40 14L37.3251 10Z" fill="#FFE713"/>
</g>
<defs>
<clipPath id="clip0">
<rect width="44" height="44" fill="white"/>
</clipPath>
</defs>
</svg>
