<svg width="165" height="103" viewBox="0 0 165 103" fill="none" xmlns="http://www.w3.org/2000/svg">
<path d="M8.2375 14.3228C8.35649 12.2109 9.99343 10.8585 13.0542 10.4309C15.2311 10.0332 17.6616 9.95116 20.3458 10.1849C26.0619 10.8027 31.8435 12.0668 37.6289 14.4658C38.6722 14.917 39.7156 15.3682 40.7589 15.8195C46.9863 18.2036 53.1809 20.2645 59.5312 21.6716C63.6065 22.5069 67.8086 23.5001 72.1703 24.9743C81.1145 27.9153 89.3671 31.6903 97.149 36.2919C105.152 40.8861 112.209 45.9985 118.637 51.4566C127.122 58.6287 134.723 65.8307 141.695 73.3782C143.818 75.7387 146.162 78.0917 148.159 80.2943C151.01 83.2787 154.619 86.0755 159.205 88.6771C160.375 89.2862 161.325 89.9027 162.274 90.5193C162.748 90.8275 163.35 91.2937 163.951 91.7598C164.68 92.3838 163.861 93.06 162.724 92.7741C162.155 92.6311 161.238 92.3378 160.543 92.037C158.108 90.9841 155.453 89.9388 152.924 89.0512C149.827 88.0208 146.824 86.825 143.726 85.7946C141.893 85.2078 140.155 84.4558 138.731 83.531C136.231 81.8318 133.702 80.9443 130.891 80.5528C126.059 79.9051 121.1 79.0997 116.047 78.4595C109.983 77.6913 103.919 76.9231 97.8547 76.1549C93.8121 75.6428 89.7695 75.1306 85.6942 74.2953C74.4789 71.9174 64.1109 68.0516 54.1155 62.3897C48.9276 59.322 44.2757 56.074 39.718 52.6607C31.8995 46.6011 25.1531 40.1809 18.9754 33.9038C14.8884 29.6639 12.1271 25.3793 9.84039 21.4029C8.78922 18.682 8.11851 16.4346 8.2375 14.3228ZM138.801 76.5566C134.935 72.3092 131.29 68.0544 126.888 63.9873C120.997 58.349 114.663 52.7257 108.015 47.2751C102.095 42.4485 95.7657 37.96 88.1433 33.8394C81.3433 30.1775 74.4818 27.0041 66.8346 24.8301C64.7806 24.2508 62.7266 23.6716 60.7994 23.2502C55.0179 21.986 49.4246 20.3912 43.7046 18.6386C41.3028 17.9089 38.9952 17.014 36.5607 15.9611C30.4275 13.4117 24.8996 12.4633 19.4371 12.1612C18.9952 12.1761 18.3323 12.1985 17.8904 12.2134C13.4712 12.3626 11.646 14.0456 12.5089 17.0972C12.9587 19.352 14.4191 21.7348 15.9736 23.9523C18.4486 27.598 21.6806 31.0561 25.4813 34.6571C32.0682 40.5961 38.7492 46.3699 45.9663 51.9634C50.0494 55.0685 54.2267 58.0082 58.719 60.7751C67.4501 65.9933 76.9343 69.8889 87.0448 72.304C91.4679 73.2898 95.6373 73.9598 100.028 74.6223C107.798 75.8193 115.441 76.8585 123.211 78.0555C125.801 78.4546 128.866 79.1618 131.583 79.7187C134.079 80.2831 136.513 81.3359 138.759 82.7194C140.531 83.7946 142.397 84.7044 144.324 85.1258C145.809 85.5621 147.515 85.991 149.001 86.4273C144.791 83.1644 141.907 79.8567 138.801 76.5566Z" fill="#277D2A" fill-opacity="0.25"/>
<path d="M83.6935 38.0615C83.197 38.5625 83.4802 39.1982 83.7634 39.8338C84.5806 41.4193 85.1796 43.0122 85.7787 44.6051C85.8112 44.9267 86.0619 45.2408 86.0944 45.5623C85.5654 45.7418 85.0965 45.4351 84.6277 45.1285C79.4102 42.2415 73.9144 39.8481 68.2329 37.7837C61.3028 35.278 54.3402 32.4507 47.5632 29.2944C44.0029 27.6415 40.4752 26.3101 37.0403 24.8142C36.3533 24.515 35.3228 24.0663 34.4828 24.4177C34.9516 24.7243 35.4205 25.031 36.1075 25.3301C41.167 27.7385 46.1013 29.9898 51.379 32.3907C55.6262 34.3428 60.0916 36.2875 64.4316 38.0751C67.8665 39.571 71.4268 41.2239 74.6761 43.0488C75.4884 43.5051 76.4261 44.1183 77.3638 44.7316C76.7094 44.754 76.3984 44.926 75.8368 44.7839C70.7543 44.3124 65.8901 43.8334 60.8076 43.3619C59.8097 43.2347 58.8118 43.1075 58.032 42.9729C57.9717 43.4589 58.3152 43.6085 58.8769 43.7507C59.782 44.0424 60.6871 44.3341 61.4669 44.4688C67.487 45.5535 73.2564 46.3242 78.9607 46.4517C79.397 46.4368 79.7405 46.5864 80.1768 46.5715C84.5217 49.4883 88.4628 52.7416 91.8749 56.1744C89.5681 56.0919 87.3866 56.1666 85.298 56.0767C81.4642 56.0465 77.505 55.8593 73.6712 55.8291C73.0168 55.8515 72.3623 55.8738 71.8332 56.0533C71.3969 56.0682 71.6802 56.7039 72.3672 57.0031C73.0541 57.3022 73.7411 57.6014 74.3956 57.579C75.3935 57.7062 76.3914 57.8334 77.1712 57.9681C82.7827 58.2602 88.8631 58.8588 93.8479 58.3656C94.066 58.3582 94.066 58.3582 94.6277 58.5003C95.2218 58.964 95.816 59.4277 96.4102 59.8914C106.042 67.4675 117.099 72.8975 130.082 76.8095C130.987 77.1013 131.892 77.393 132.672 77.5276C134.793 77.9391 135.568 76.9445 133.911 75.7105C133.191 75.0898 132.254 74.4765 131.223 74.0277C129.724 73.2723 128.007 72.5244 126.289 71.7764C122.854 70.2805 119.637 68.7772 116.295 67.1168C111.11 64.5514 106.547 61.642 102.732 58.5457C100.949 57.1547 99.3846 55.7561 97.6021 54.365C95.6942 52.8169 93.4428 51.1192 91.3168 49.5785C90.2537 48.8082 89.7523 48.18 89.4691 47.5443C88.7447 45.7943 87.895 43.8873 87.1706 42.1374C86.6367 41.1876 85.8846 40.2453 85.2579 39.46C85.0675 38.6598 85.0675 38.6598 83.6935 38.0615Z" fill="#277D2A" fill-opacity="0.25"/>
<path d="M34.4373 36.7005C34.5804 36.8742 34.8665 37.2214 35.26 37.3871C36.0471 37.7184 36.4406 37.884 37.0845 38.0417C39.0163 38.5146 41.1986 38.9796 42.9873 39.2789C43.8817 39.4285 44.7403 39.2229 45.4916 39.1989C45.742 39.191 45.7063 38.8357 45.5632 38.6621C45.4201 38.4884 45.0266 38.3228 44.8835 38.1492C44.49 37.9835 44.0965 37.8179 43.8461 37.8259C40.9126 37.3849 37.7286 36.9519 34.9382 36.6846C34.7951 36.5109 34.7951 36.5109 34.4373 36.7005Z" fill="#277D2A" fill-opacity="0.25"/>
<path d="M52.6403 53.7399C54.0803 53.8805 55.5202 54.0211 56.8121 53.9781C57.3289 53.9608 57.6975 53.7599 58.0661 53.559C58.4348 53.3581 57.7321 52.8156 57.3256 52.6405C56.9191 52.4655 56.6607 52.4741 56.4024 52.4827C53.9289 52.3765 51.4554 52.2703 48.982 52.1642L48.7236 52.1728C48.6133 52.3651 48.2447 52.566 48.3928 52.7497C48.5409 52.9334 49.0955 53.2921 49.502 53.4672C50.1668 53.6337 50.8317 53.8002 51.6068 53.7743C51.7171 53.582 52.3819 53.7485 52.6403 53.7399Z" fill="#277D2A" fill-opacity="0.25"/>
<path d="M111.3 53.7375C111.826 53.5584 112.134 53.3868 112.443 53.2153C112.996 52.2306 113.115 51.2609 112.768 49.9854C112.644 49.8288 112.519 49.6721 112.519 49.6721C112.395 49.5155 112.053 49.3663 111.712 49.2171C111.496 49.2246 111.279 49.2321 111.062 49.2395C110.97 49.4036 110.878 49.5678 111.003 49.7244C111.008 50.8507 111.014 51.9771 111.019 53.1034C110.927 53.2675 111.051 53.4242 111.3 53.7375Z" fill="#277D2A" fill-opacity="0.25"/>
</svg>
