<svg width="82" height="128" viewBox="0 0 82 128" fill="none" xmlns="http://www.w3.org/2000/svg">
<path d="M41.1968 6.47959C42.4597 5.761 43.7172 6.21521 44.8458 7.84877C45.7031 8.97565 46.4495 10.369 47.0852 12.0288C48.3691 15.6082 49.2956 19.4673 49.563 23.7522C49.6004 24.5319 49.6378 25.3116 49.6753 26.0912C50.0784 30.6295 50.6601 35.028 51.667 39.2736C52.3526 41.9729 52.9828 44.8055 53.3789 47.9111C54.2391 54.2489 54.4152 60.4929 53.975 66.7696C53.6027 73.1731 52.657 79.2161 51.3292 85.019C49.5956 92.6673 47.5906 99.809 45.2034 106.71C44.4404 108.836 43.7453 111.087 43.0378 113.079C42.1211 115.864 41.5313 119.022 41.3361 122.68C41.3181 123.593 41.2323 124.379 41.1465 125.165C41.1036 125.558 41.0052 126.085 40.9069 126.611C40.7532 127.271 40.1245 127.043 39.9639 126.27C39.8835 125.884 39.7907 125.237 39.7658 124.718C39.6785 122.898 39.5233 120.952 39.3128 119.14C39.0219 116.94 38.8543 114.735 38.5634 112.535C38.3778 111.243 38.3154 109.943 38.4442 108.764C38.7142 106.665 38.5036 104.852 37.9233 103.059C36.9109 99.9864 35.9539 96.7804 34.8737 93.5809C33.5774 89.7416 32.281 85.9022 30.9847 82.0629C30.1205 79.5033 29.2563 76.9437 28.5708 74.2444C26.7301 66.7862 25.9987 59.269 26.4194 51.2997C26.7129 47.1152 27.2653 43.1775 27.941 39.2332C29.219 32.3908 31.0149 26.0419 32.8911 20.0796C34.183 16.1025 35.8821 12.8854 37.5382 10.0615C38.8191 8.42998 39.9339 7.19817 41.1968 6.47959ZM42.5224 106.202C43.8822 102.351 45.3098 98.6276 46.4106 94.5304C47.9974 88.9743 49.4485 83.1649 50.7085 77.2354C51.8148 71.9654 52.6068 66.5819 52.8129 60.5781C52.9886 55.2274 52.8625 50.023 51.9289 44.7313C51.6755 43.3117 51.422 41.8922 51.1131 40.6058C50.1866 36.7468 49.5065 32.8746 48.8818 28.8693C48.6159 27.1898 48.4732 25.5038 48.3859 23.6846C48.1061 19.1397 47.0687 15.5472 45.6741 12.2341C45.5384 11.9808 45.3348 11.6008 45.1991 11.3475C43.8419 8.81413 42.338 8.37304 40.8106 10.0176C39.628 11.1228 38.6614 12.8678 37.8181 14.6063C36.4085 17.4171 35.3256 20.6014 34.3231 24.1722C32.7612 30.2481 31.3226 36.3174 30.1429 42.6335C29.5102 46.1847 29.0007 49.7293 28.6823 53.394C28.1563 60.457 28.6163 67.4675 30.1176 74.2924C30.8156 77.2516 31.6245 79.9444 32.5011 82.7639C34.0384 87.7629 35.6311 92.6287 37.1684 97.6277C37.6809 99.2941 38.1504 101.354 38.6074 103.153C38.9966 104.826 39.0839 106.645 38.9247 108.478C38.8084 109.917 38.8154 111.35 39.1243 112.636C39.2974 113.669 39.5384 114.829 39.7115 115.862C40.3997 112.177 41.495 109.253 42.5224 106.202Z" fill="#277D2A" fill-opacity="0.25"/>
<path d="M49.0945 59.5858C48.6603 59.4818 48.3721 59.8847 48.0839 60.2877C47.3968 61.3576 46.6427 62.3025 45.8886 63.2474C45.7109 63.3863 45.6003 63.6503 45.4227 63.7893C45.1662 63.5463 45.2097 63.1573 45.2532 62.7683C45.4319 58.6355 45.2434 54.5236 44.8102 50.4257C44.2746 45.4318 43.9167 40.299 43.8035 35.1522C43.741 32.4503 43.5009 29.8873 43.3831 27.3174C43.3595 26.8034 43.3242 26.0324 42.8783 25.6714C42.8348 26.0604 42.7912 26.4494 42.8148 26.9634C42.8691 30.8252 42.9787 34.5551 43.1001 38.542C43.1862 41.7579 43.3393 45.0987 43.5477 48.3077C43.6655 50.8776 43.728 53.5795 43.601 56.1634C43.5693 56.8093 43.4823 57.5873 43.3952 58.3653C43.194 57.9903 43.0046 57.8723 42.9257 57.4903C41.7384 54.3372 40.6182 51.3092 39.4309 48.1562C39.2179 47.5242 39.005 46.8922 38.859 46.3852C38.559 46.5312 38.5708 46.7882 38.6497 47.1702C38.7403 47.8092 38.8309 48.4482 38.9768 48.9552C40.0771 52.8861 41.2879 56.5531 42.8541 59.9422C42.9882 60.1922 43 60.4492 43.1342 60.6992C42.6872 64.332 41.9286 67.8538 40.9134 71.1325C40.298 69.7505 39.6273 68.5005 39.0789 67.2435C37.994 64.9865 36.9644 62.5974 35.8795 60.3404C35.6783 59.9654 35.4771 59.5904 35.2206 59.3474C35.0865 59.0974 34.7982 59.5003 34.8218 60.0143C34.8454 60.5283 34.8689 61.0423 35.0701 61.4173C35.2831 62.0493 35.4961 62.6813 35.642 63.1883C37.0858 66.5843 38.4861 70.3693 40.2063 73.1054C40.2734 73.2304 40.2734 73.2304 40.3523 73.6124C40.2535 74.1334 40.1547 74.6543 40.0559 75.1753C38.4197 83.6428 38.4413 92.1445 39.8995 101.208C39.9901 101.847 40.0808 102.486 40.2267 102.993C40.5974 104.389 41.3986 104.472 41.6397 103.041C41.7938 102.389 41.8808 101.611 41.8455 100.84C41.8537 99.6796 41.7948 98.3947 41.7359 97.1097C41.6181 94.5398 41.5674 92.0949 41.572 89.518C41.5729 85.5241 41.9528 81.7663 42.6562 78.3765C42.9526 76.8136 43.3161 75.3756 43.6125 73.8127C43.9642 72.1178 44.3041 70.1659 44.5888 68.346C44.7311 67.4361 44.9522 66.9081 45.2405 66.5052C46.0499 65.4283 46.9146 64.2194 47.724 63.1426C48.1228 62.4756 48.4546 61.6837 48.731 61.0237C49.1416 60.6138 49.1416 60.6138 49.0945 59.5858Z" fill="#277D2A" fill-opacity="0.25"/>
<path d="M35.4555 30.1006C35.3951 30.2504 35.2743 30.5499 35.2908 30.8439C35.3238 31.4318 35.3403 31.7258 35.4336 32.164C35.7138 33.4785 36.0709 34.9372 36.4114 36.1019C36.5817 36.6843 36.9497 37.1114 37.1804 37.544C37.2573 37.6882 37.455 37.5328 37.5154 37.3831C37.5758 37.2333 37.5593 36.9393 37.6197 36.7896C37.6032 36.4956 37.5867 36.2016 37.5098 36.0574C36.9221 34.1661 36.2575 32.1306 35.6093 30.389C35.6697 30.2392 35.6697 30.2392 35.4555 30.1006Z" fill="#277D2A" fill-opacity="0.25"/>
<path d="M30.8759 47.0174C31.2096 47.9184 31.5432 48.8194 31.942 49.5637C32.1015 49.8615 32.3261 50.0027 32.5507 50.1439C32.7753 50.285 32.8908 49.6664 32.8762 49.361C32.8616 49.0555 32.7818 48.9066 32.702 48.7578C32.0494 47.2613 31.3967 45.7648 30.7441 44.2684L30.6643 44.1195C30.5195 44.1272 30.2949 43.986 30.2298 44.1426C30.1647 44.2992 30.1142 44.7612 30.1289 45.0666C30.2233 45.521 30.3177 45.9753 30.5569 46.4219C30.7018 46.4142 30.7962 46.8686 30.8759 47.0174Z" fill="#277D2A" fill-opacity="0.25"/>
<path d="M48.0612 81.7618C48.3164 82.0028 48.5049 82.1197 48.6935 82.2366C49.4249 82.1933 50.023 81.9019 50.6651 81.2237C50.7204 81.0924 50.7756 80.9611 50.7756 80.9611C50.8309 80.8297 50.8195 80.5743 50.8081 80.3189C50.7415 80.1948 50.6749 80.0707 50.6082 79.9466C50.4863 79.9538 50.3644 79.961 50.3092 80.0923C49.6557 80.5151 49.0023 80.9379 48.3489 81.3606C48.227 81.3678 48.1717 81.4992 48.0612 81.7618Z" fill="#277D2A" fill-opacity="0.25"/>
</svg>
