<svg width="69" height="60" viewBox="0 0 69 60" fill="none" xmlns="http://www.w3.org/2000/svg">
<path d="M4.03611 3.05994C5.28928 1.63988 7.16904 0.765992 9.51873 0.54752C11.2418 0.329049 12.9649 0.329049 14.6881 0.54752C18.2909 1.0937 21.5805 2.07682 24.2435 3.82459C24.7134 4.1523 25.1833 4.48 25.6533 4.80771C28.6296 6.55548 31.7625 8.08478 35.3653 9.17713C37.715 9.83255 40.0647 10.5972 42.2578 11.6896C46.8005 13.8743 50.4034 16.6052 53.223 19.8822C56.1993 23.1593 58.2357 26.7641 59.6455 30.5873C61.5253 35.6122 62.7784 40.637 63.405 45.8803C63.5617 47.5188 63.875 49.1574 64.0316 50.6867C64.3449 52.7621 65.2848 54.7284 67.0079 56.5854C67.4778 57.0223 67.7911 57.4593 68.1044 57.8962C68.261 58.1147 68.4177 58.4424 68.5743 58.7701C68.731 59.207 67.7911 59.644 67.1645 59.4255C66.8512 59.3163 66.3813 59.0978 66.068 58.8793C64.9715 58.1147 63.7183 57.35 62.4651 56.6946C60.8987 55.93 59.4889 55.0561 57.9224 54.2914C56.9825 53.8545 56.1993 53.3083 55.7294 52.6529C54.9461 51.4513 53.693 50.7959 51.9698 50.4682C48.9936 49.922 46.0173 49.2666 42.8844 48.7204C39.1249 48.065 35.3653 47.4096 31.6058 46.7542C29.0995 46.3172 26.5932 45.8803 24.2435 45.2249C17.821 43.3679 12.8083 40.5278 9.04879 36.486C7.16903 34.3013 5.75922 32.0074 4.50605 29.6042C2.46965 25.344 1.37313 20.8653 0.589896 16.4959C0.119957 13.5466 0.589896 10.5972 1.21648 7.86631C1.99971 6.0093 2.78294 4.48 4.03611 3.05994ZM59.6455 47.9558C59.3322 45.0064 59.1756 42.0571 58.3923 39.2169C57.4525 35.2844 56.1993 31.352 54.6328 27.5287C53.223 24.1424 51.3433 20.9746 48.367 18.0252C45.704 15.4036 42.7277 13.1096 38.6549 11.4711C37.5584 11.0341 36.4619 10.5972 35.3653 10.2695C32.0758 9.28637 29.0995 8.08478 26.1232 6.77395C24.8701 6.22777 23.7735 5.57236 22.677 4.80771C19.8574 2.9507 16.5678 2.18605 12.9649 1.85835C12.6517 1.85835 12.1817 1.85835 11.8684 1.85835C8.7355 1.85835 6.54245 2.9507 5.44593 5.02618C4.50605 6.55548 4.19276 8.19401 4.03611 9.72331C3.72282 12.2357 4.03611 14.6389 4.6627 17.1513C5.91587 21.3023 7.32568 25.344 9.20543 29.2765C10.302 31.4612 11.5551 33.5367 13.1216 35.5029C16.2545 39.2169 20.6406 42.0571 26.2799 43.9141C28.7862 44.6787 31.2925 45.2249 33.9555 45.7711C38.6549 46.7542 43.3543 47.6281 48.0537 48.6112C49.6202 48.9389 51.3433 49.4851 52.9097 49.922C54.3195 50.359 55.4161 51.1236 56.1993 52.1067C56.8259 52.8714 57.6091 53.5268 58.7056 53.8545C59.4889 54.1822 60.4287 54.5099 61.212 54.8376C60.1154 52.5437 59.9588 50.2497 59.6455 47.9558Z" fill="#277D2A" fill-opacity="0.25"/>
<path d="M42.4144 20.7562C41.7879 21.0839 41.6312 21.5208 41.4746 21.9578C41.1613 23.0501 40.6913 24.1425 40.2214 25.2348C40.0647 25.4533 40.0647 25.6718 39.9081 25.8903C39.4382 25.9995 39.2815 25.781 39.1249 25.5626C37.0885 23.4871 34.5821 21.7393 31.7625 20.21C28.3163 18.353 25.0267 16.2775 22.0504 13.9836C20.484 12.782 18.7609 11.7989 17.1944 10.7065C16.8811 10.488 16.4112 10.1603 15.6279 10.3788C15.7846 10.5973 15.9412 10.8158 16.2545 11.0342C18.4476 12.782 20.6406 14.4205 22.9903 16.1683C24.8701 17.5884 26.9065 19.0084 28.9429 20.3192C30.5093 21.4116 32.0758 22.6132 33.329 23.924C33.6423 24.2517 33.9555 24.6887 34.2688 25.1256C33.7989 25.1256 33.4856 25.2348 33.1723 25.1256C29.8827 24.6887 26.7498 24.2517 23.4602 23.8148C22.8337 23.7055 22.2071 23.5963 21.7371 23.4871C21.4238 23.8148 21.5805 23.924 21.8938 24.0333C22.3637 24.2517 22.8337 24.4702 23.3036 24.5794C26.9065 25.4533 30.5093 26.1087 34.4255 26.3272C34.7388 26.3272 34.8954 26.4364 35.2087 26.4364C36.6185 28.5119 37.5584 30.8059 38.0283 33.209C36.4619 33.0998 34.8954 33.0998 33.4856 32.9906C30.8226 32.8813 28.1596 32.6629 25.4966 32.5536C25.0267 32.5536 24.5568 32.5536 24.0868 32.6629C23.7735 32.6629 23.6169 33.0998 23.9302 33.3183C24.2435 33.5367 24.5568 33.7552 25.0267 33.7552C25.6533 33.8645 26.2799 33.9737 26.7498 34.0829C30.5093 34.4106 34.4255 34.9568 38.185 34.7383C38.3416 34.7383 38.3416 34.7383 38.6549 34.8476C38.8116 35.1753 38.9682 35.503 39.1249 35.8307C41.6312 41.1832 46.3306 45.1157 53.223 48.0651C53.693 48.2835 54.1629 48.502 54.6328 48.6112C55.886 48.939 56.9825 48.2835 56.5126 47.4097C56.356 46.9727 56.0427 46.5358 55.5727 46.2081C54.9461 45.6619 54.1629 45.1157 53.3797 44.5695C51.8132 43.4772 50.4034 42.3848 48.9936 41.1832C46.8005 39.3262 45.2341 37.2508 44.2942 35.066C43.8243 34.0829 43.511 33.0998 43.041 32.1167C42.5711 31.0243 41.9445 29.8227 41.3179 28.7304C41.0046 28.1842 41.0046 27.7473 41.1613 27.3103C41.6312 26.1087 42.1011 24.7979 42.5711 23.5963C42.7277 22.9409 42.7277 22.2855 42.7277 21.7393C43.041 21.1931 43.041 21.1931 42.4144 20.7562Z" fill="#277D2A" fill-opacity="0.25"/>
<path d="M12.6517 16.9329C12.6517 17.0421 12.6517 17.2606 12.8083 17.3698C13.1216 17.5883 13.2783 17.6975 13.5915 17.8068C14.5314 18.1345 15.6279 18.4622 16.5678 18.6807C17.0378 18.7899 17.6643 18.6807 18.1343 18.6807C18.2909 18.6807 18.4476 18.4622 18.4476 18.353C18.4476 18.2437 18.2909 18.1345 18.2909 18.0252C18.1343 17.916 17.9776 17.8068 17.821 17.8068C16.2545 17.4791 14.5314 17.1514 12.965 16.9329C12.965 16.8236 12.965 16.8236 12.6517 16.9329Z" fill="#277D2A" fill-opacity="0.25"/>
<path d="M17.5077 29.8227C18.2909 29.9319 19.0742 30.0412 19.8574 30.0412C20.1707 30.0412 20.484 29.9319 20.7973 29.8227C21.1106 29.7135 20.9539 29.3858 20.7973 29.2765C20.6406 29.1673 20.484 29.1673 20.3273 29.1673C18.9175 29.0581 17.5077 28.9488 16.0979 28.8396H15.9412C15.7846 28.9488 15.4713 29.0581 15.4713 29.1673C15.4713 29.2765 15.628 29.495 15.7846 29.6042C16.0979 29.7135 16.4112 29.8227 16.8811 29.8227C17.0378 29.7135 17.3511 29.8227 17.5077 29.8227Z" fill="#277D2A" fill-opacity="0.25"/>
<path d="M48.9936 32.772C49.4635 32.6627 49.7768 32.5535 50.0901 32.4443C51.03 31.7889 51.6565 31.1334 52.1265 30.2596C52.1265 30.1503 52.1265 30.0411 52.1265 30.0411C52.1265 29.9319 51.9698 29.8226 51.8132 29.7134C51.6565 29.7134 51.4999 29.7134 51.3432 29.7134C51.1866 29.8226 51.03 29.9319 51.03 30.0411C50.4034 30.8057 49.7768 31.5704 49.1502 32.335C48.9936 32.4443 48.9936 32.5535 48.9936 32.772Z" fill="#277D2A" fill-opacity="0.25"/>
</svg>
