<svg width="51" height="39" viewBox="0 0 51 39" fill="none" xmlns="http://www.w3.org/2000/svg">
<path d="M50.6289 28.1697C50.9422 31.7745 46.7128 36.6901 39.507 38.0009C35.2776 38.7656 31.5181 38.1102 28.5418 35.9255C25.7222 34.0685 23.6858 31.7745 23.0592 29.0436C22.9025 28.6067 22.9025 28.279 22.9025 27.842C23.3725 24.8927 24.6256 22.1618 27.4453 19.8678C29.795 18.0108 32.7713 17.0277 36.3741 17.3554C36.6874 17.3554 37.0007 17.3554 37.314 17.4647C39.1938 18.1201 41.3868 18.4478 43.1099 19.2124C44.5197 19.8678 45.7729 20.5233 47.0261 21.2879C48.1226 21.8341 48.9058 22.5987 49.3758 23.4726C50.159 25.1111 50.6289 26.6404 50.6289 28.1697ZM41.7001 20.0863C41.0735 20.414 40.6036 20.7417 39.977 20.414C39.6637 20.1955 39.3504 20.0863 38.8805 19.9771C35.5909 18.6662 32.458 18.994 29.795 20.851C27.2886 22.5987 26.0355 24.6742 25.5655 27.0774C25.2522 28.279 25.4089 29.4806 26.1921 30.5729C27.2886 32.3207 28.8551 33.85 31.0481 35.0516C34.0244 36.7993 37.4706 36.9086 40.9169 35.9255C46.0862 34.3962 49.0625 30.4637 47.8093 26.5312C47.6526 25.985 47.496 25.5481 47.3394 25.0019C47.0261 24.3465 46.5561 23.6911 46.0862 23.1449C44.833 22.0525 43.4232 21.0694 41.7001 20.0863Z" fill="#277D2A" fill-opacity="0.25"/>
<path d="M24.7823 7.52441C26.6621 8.94448 26.6621 10.6922 25.8788 12.44C24.3124 15.8263 21.0228 18.1203 16.1668 19.3219C14.287 19.7588 12.5639 19.7588 10.6842 19.3219C8.8044 18.8849 6.92464 18.1203 5.35818 17.2464C4.88824 16.9187 4.4183 16.7002 3.94836 16.2633C1.28538 13.8601 0.18886 11.1292 1.28538 8.07059C2.06861 5.88588 3.94837 4.24735 6.61135 3.26423C8.96104 2.39035 11.3107 2.17187 13.9737 2.82729C14.287 2.93652 14.757 3.04575 15.2269 3.15499C15.2269 2.71805 15.2269 2.28111 15.3835 1.9534C15.5402 1.40722 16.1668 0.970276 16.95 0.970276C17.7332 0.970276 18.2032 1.29799 18.5165 1.73493C18.6731 1.9534 18.6731 2.28111 18.8298 2.49958C18.9864 2.71805 18.9864 2.93652 19.143 3.26423C19.7696 3.15499 20.3962 2.93652 21.0228 2.93652C22.1193 2.82728 22.5893 3.04576 22.9026 3.81041C22.9026 3.91964 22.9026 4.13812 23.0592 4.35659C23.6858 4.35659 24.3124 4.46582 24.939 4.46582C25.8788 4.57506 26.5054 5.12123 26.1921 5.77664C25.7222 6.43206 25.0956 6.97824 24.7823 7.52441ZM16.95 5.3397C17.5766 5.55817 18.3598 5.88588 18.9864 6.21359C19.7696 6.5413 20.5529 6.97824 21.3361 7.30595C21.4927 7.41518 21.4927 7.52441 21.6494 7.96136C20.2396 7.41518 19.143 7.08748 18.0465 6.65053C17.1066 6.32283 16.0101 5.99512 15.6968 5.012C15.6968 4.79353 15.3835 4.68429 15.0702 4.57505C13.3471 4.02888 11.624 3.81041 9.90093 4.02888C5.20154 4.68429 2.85184 8.0706 3.32178 10.9107C3.94837 14.1878 6.4547 16.3725 10.9974 17.5741C12.5639 18.011 13.9737 18.011 15.5402 17.6833C19.2997 16.9187 21.806 15.1709 23.2159 12.5493C23.5291 11.7846 23.8424 10.9107 23.6858 10.2553C23.2158 9.16295 23.3725 8.07059 23.0592 6.97824C23.5291 6.43206 25.0956 6.32282 24.6257 5.23047C23.8424 5.23047 23.2159 5.23047 22.4326 5.23047C21.9627 5.23047 21.4927 5.012 21.1794 4.68429C21.0228 4.46582 20.8662 4.24735 20.5529 3.91964C19.7696 4.24735 18.9864 4.57506 18.2032 4.35659C17.4199 4.35659 17.1067 4.79352 16.95 5.3397Z" fill="#277D2A" fill-opacity="0.25"/>
<path d="M35.5908 21.5064C35.5908 21.5064 35.7475 21.3972 35.9041 21.2879C37.3139 20.3048 38.8804 20.414 39.9769 21.5064C40.4469 22.0526 40.4469 22.5987 39.9769 23.1449C39.6636 23.4726 39.1937 23.9096 38.7238 24.3465C39.507 24.7834 40.1336 25.1111 40.7602 25.5481C41.5434 26.0943 41.8567 26.6404 41.3867 27.4051C41.0735 28.0605 40.2902 28.6067 39.1937 28.6067C38.5671 28.6067 37.9405 28.4974 37.3139 28.3882C36.6874 28.1697 36.2174 27.9513 35.5908 27.7328C35.1209 27.5143 34.651 27.6236 34.3377 27.9513C34.0244 28.279 33.7111 28.6067 33.3978 28.9344C32.1446 30.2452 29.9516 30.5729 28.0718 29.8082C26.5053 29.2621 25.7221 27.842 26.662 26.7497C27.7585 25.4389 28.5417 24.128 29.0117 22.708C29.325 21.9433 30.2649 21.3972 31.6747 21.3972C32.9279 21.2879 34.181 21.3972 35.5908 21.5064ZM33.7111 22.271C33.0845 22.271 32.3013 22.271 31.6747 22.271C31.0481 22.271 30.5782 22.5987 30.4215 22.9264C30.2649 23.3634 30.1082 23.8003 30.1082 24.2373C29.9516 24.8927 29.6383 25.5481 29.0117 26.0943C28.855 26.3127 28.5417 26.422 28.3851 26.6404C27.7585 27.4051 27.9152 28.1697 28.6984 28.6067C29.7949 29.1528 31.2047 29.1528 31.988 28.3882C32.3013 28.0605 32.6146 27.7328 32.9278 27.4051C33.8677 26.422 35.1209 26.0943 36.6874 26.7497C37.3139 26.9681 37.7839 27.2958 38.4105 27.5143C39.037 27.7328 39.6636 27.6236 39.8203 27.2958C40.1336 26.9681 39.9769 26.6404 39.6636 26.422C39.1937 26.0943 38.5671 25.7666 37.9405 25.4388C37.1573 25.0019 37.0006 24.3465 37.4706 23.6911C37.7839 23.2542 38.2538 22.8172 38.7238 22.4895C38.5671 22.271 38.5671 22.1618 38.4105 22.0526C37.7839 21.6156 37.1573 21.6156 37.0006 22.1618C37.0006 22.271 37.0006 22.3803 36.844 22.4895C36.6874 22.9264 36.6874 23.5819 35.9041 23.6911C34.8076 23.8003 34.8076 23.0357 34.3377 22.5987C34.181 22.5987 34.0244 22.4895 33.7111 22.271Z" fill="#277D2A" fill-opacity="0.25"/>
<path d="M33.2412 23.9096C33.8678 23.9096 34.4943 24.3465 34.4943 24.7835C34.4943 25.3297 33.8677 25.7666 33.0845 25.6574C32.3013 25.6574 31.8314 25.1112 31.8314 24.565C31.8314 24.2373 32.4579 23.9096 33.2412 23.9096Z" fill="#277D2A" fill-opacity="0.25"/>
</svg>
