<svg width="159" height="78" viewBox="0 0 159 78" fill="none" xmlns="http://www.w3.org/2000/svg">
<path d="M130.024 41.0297C127.408 42.9334 124.586 44.8793 120.831 46.6949C115.096 49.4393 109.305 52.0342 102.67 54.4402C98.9553 55.765 95.2126 57.015 91.1812 58.0828C83.5023 60.0595 75.8754 60.9798 68.5003 61.0843C65.7492 61.1256 63.1485 60.9751 60.5478 60.8246C56.6023 60.6282 52.7458 60.3732 48.8003 60.1768C45.6439 60.0196 42.4875 59.8624 39.1254 59.7474C37.3138 59.6362 35.4071 59.8663 33.4329 60.5124C32.2539 60.915 30.9919 61.0933 29.7024 61.1969C27.5347 61.3196 25.3332 61.6503 23.2208 61.9225C21.3141 62.1526 19.6407 62.4153 17.7616 62.7201C17.2335 62.7882 16.7054 62.8563 16.2664 62.8658C15.5049 62.9013 15.25 62.5112 15.9009 62.1766C16.2847 62.0175 16.6685 61.8584 17.1689 61.7156C17.9642 61.4721 18.787 61.3034 19.5822 61.0599C23.0241 60.1933 26.0606 59.1283 28.6642 57.7901C30.6169 56.7865 32.6863 55.7992 34.639 54.7955C40.9699 51.5671 47.7061 48.537 54.9367 45.6469C60.3374 43.4939 66.2324 41.4809 72.499 39.8742C78.5598 38.3098 84.7589 37.1192 91.0624 36.5105C94.053 36.219 96.8931 36.1193 99.6442 36.0781C103.829 36.0244 108.315 35.5872 112.718 34.9258C113.452 34.8155 114.302 34.7216 115.125 34.5529C119.5 33.8166 123.363 33.7888 126.897 34.0696C128.62 34.2393 130.047 34.5096 131.208 34.9553C132.863 35.541 133.517 36.4123 132.937 37.5367C132.563 38.6189 131.543 39.7529 130.024 41.0297ZM26.1683 60.916C27.2521 60.8547 28.425 60.7348 29.5089 60.6735C30.9151 60.5862 32.1771 60.4079 33.6785 59.9794C35.3579 59.434 37.148 59.1876 38.9042 59.1493C40.7772 59.1272 42.6502 59.1052 44.4341 59.1416C49.5801 59.293 54.6371 59.5028 59.6942 59.7127C62.5005 59.821 65.3069 59.9293 68.3528 59.7874C75.2336 59.5429 82.2494 58.4664 89.0778 56.5837C92.6978 55.6002 96.0567 54.5093 99.4771 53.2852C105.523 51.0804 111.396 48.7099 117.036 46.3067C120.374 44.8583 123.361 43.361 125.943 41.6653C127.546 40.6127 129.032 39.5439 130.051 38.41C131.371 36.8925 130.662 35.8717 128.129 35.3052C127.778 35.2563 127.517 35.149 127.167 35.1001C123.695 34.686 119.921 34.6554 115.518 35.3168C113.845 35.5795 112.055 35.8259 110.443 35.9553C106.458 36.2496 102.589 36.5602 98.7262 36.588C97.409 36.6168 96.0028 36.7041 94.5965 36.7913C89.4106 37.1307 84.1234 38.0941 79.0359 39.2981C73.2421 40.6871 68.1146 42.3819 62.9811 44.3594C57.258 46.5383 51.796 48.8245 46.5949 51.2181C42.8123 52.9589 39.2907 54.807 35.6524 56.6388C32.576 58.1946 29.7943 59.6497 26.1683 60.916Z" fill="#277D2A" fill-opacity="0.25"/>
<path d="M87.9167 19.2939C85.4733 21.2235 82.8166 23.1222 79.4944 24.8577C76.5228 26.4424 73.1295 27.6977 69.2588 28.7499C67.5927 29.1806 66.0078 29.5559 64.3163 29.9158C62.0609 30.3956 59.6989 30.8601 57.3622 31.3953C56.2345 31.6353 55.2135 31.8906 54.0858 32.1305C50.5148 32.8903 47.34 33.9087 44.4801 35.241C42.6463 36.0503 40.8938 36.8041 39.06 37.6134C38.359 37.9149 37.5768 38.2719 37.2212 38.6904C37.1653 38.8166 36.8961 38.912 36.7335 39.0228C36.2205 39.2843 35.2553 39.4135 34.8845 39.2257C34.6458 39.1241 34.4883 38.9671 34.3309 38.8101C34.2293 38.5269 34.1277 38.2437 34.2141 37.9206C34.3056 35.9199 35.4944 33.8764 37.6736 31.7745C38.4915 30.9528 39.6294 30.1773 40.9806 29.4326C42.4131 28.6326 43.7389 27.8171 45.0647 27.0016C47.8789 25.2599 50.0531 23.4258 51.826 21.6008C53.5989 19.7758 55.1584 17.9201 57.1446 16.1259C60.0554 13.5255 63.6062 11.0175 68.117 8.64809C69.0618 8.18037 70.088 7.65726 71.1395 7.20495C72.9732 6.3957 75.0965 5.82964 77.4027 5.49137C81.2378 4.90398 84.8241 4.75055 87.8921 5.12644C90.0001 5.36371 91.5138 5.91792 92.3265 6.77368C93.6624 8.242 94.2464 9.87027 93.7028 11.7385C93.2456 13.2835 92.1991 14.8777 90.7259 16.4103C89.8776 17.429 88.8971 18.3615 87.9167 19.2939ZM38.1762 37.6871C41.1174 36.2994 43.8147 35.0778 46.4866 33.7855C47.782 33.167 49.2094 32.6347 50.6876 32.244C53.1868 31.5979 55.8739 30.9119 58.3731 30.2659C61.0603 29.5799 63.8541 28.9092 66.5158 28.1524C70.5491 26.9895 74.1608 25.4972 77.0004 23.8263C82.1106 20.8721 85.7783 17.844 88.298 14.7172C89.3952 13.2646 90.1979 11.8365 90.4113 10.4577C90.6196 9.34657 90.3708 8.37085 89.6394 7.4597C89.0908 6.77634 88.1105 6.29915 86.5358 6.13889C83.7878 5.80921 80.8721 5.85808 77.5754 6.25471C75.7264 6.45761 73.979 6.94369 72.389 7.58676C71.3375 8.03908 70.286 8.49139 69.2599 9.0145C63.9668 11.7408 59.9537 14.652 57.0887 17.6618C55.6155 19.1944 54.4624 20.7732 53.0958 22.3212C51.5363 24.177 49.7634 26.0019 47.2692 27.7898C46.2939 28.4545 45.3999 29.0638 44.4245 29.7285C43.1241 30.6148 42.1183 31.4765 41.3258 32.369C39.8781 33.9724 38.9382 35.582 38.1864 37.1516C38.2118 37.2224 38.2626 37.364 38.1762 37.6871Z" fill="#277D2A" fill-opacity="0.25"/>
<path d="M80.3368 42.2696C80.5631 42.5839 80.1199 42.8752 79.7929 43.1829C78.9616 43.9146 78.0417 44.7047 77.2104 45.4365C76.9446 45.6113 76.8834 45.7441 76.8223 45.8769C77.1097 46.0584 77.4917 45.8998 77.9013 45.8157C81.9419 44.8259 85.9765 44.118 90.0936 43.6336C95.1461 42.9973 100.171 42.2864 105.318 41.31C107.892 40.8218 110.52 40.4826 113.121 40.0689C113.736 39.9428 114.378 39.8912 114.897 40.1052C114.399 40.2476 113.989 40.3316 113.58 40.4157C109.778 41.1561 106.064 41.8383 102.146 42.5625C98.8415 43.1605 95.6261 43.7004 92.4106 44.2402C89.8095 44.6538 87.236 45.1421 84.7175 45.7793C84.0145 45.9637 83.4276 46.1643 82.5199 46.3907C82.8958 46.5139 83.1282 46.5464 83.3605 46.5789C86.5577 46.8845 89.8435 47.1319 93.1294 47.3793C93.7102 47.4605 94.2634 47.4671 94.9328 47.4901C94.8106 47.7556 94.6058 47.7977 94.0801 47.8655C93.4382 47.9171 92.7963 47.9687 92.2431 47.962C88.2542 47.899 84.3265 47.7033 80.8419 47.2161C80.6096 47.1837 80.3773 47.1512 79.9402 47.1607C76.3642 48.2155 73.103 49.5262 69.8969 50.986C71.4069 51.1971 72.5959 51.4339 73.9898 51.6288C76.429 51.9698 78.8682 52.3108 81.3349 52.7263C81.7995 52.7913 82.1755 52.9145 82.4353 53.0215C82.6951 53.1285 82.4568 53.3778 81.931 53.4457C81.4053 53.5135 80.8796 53.5813 80.4425 53.5909C79.7731 53.568 79.1037 53.5451 78.6391 53.4801C75.0659 53.0512 71.1993 52.7227 68.1579 51.9442C68.0417 51.9279 67.9256 51.9117 67.6046 51.9375C67.1064 52.0798 66.6357 52.2967 66.0489 52.4973C58.0045 55.4713 49.4035 57.2369 40.5059 57.901C39.864 57.9526 39.2222 58.0042 38.6689 57.9975C37.3301 57.9516 37.2261 57.3718 38.4609 56.8377C39.1364 56.5788 39.8393 56.3945 40.6585 56.2263C41.8872 55.9741 43.0273 55.7801 44.1673 55.5862C46.7409 55.098 49.2258 54.6681 51.6832 54.1636C55.5741 53.3649 59.1502 52.3102 62.6436 51.0319C64.0832 50.4559 65.5228 49.8798 66.9899 49.3782C68.6342 48.7601 70.4833 48.1 72.2438 47.4981C73.1241 47.1972 73.5947 46.9803 73.8942 46.5982C74.7866 45.7336 75.7952 44.8853 76.8923 43.9787C77.3966 43.5545 78.1332 43.1628 78.8422 42.6966C79.3129 42.4798 79.5177 42.4377 80.3368 42.2696Z" fill="#277D2A" fill-opacity="0.25"/>
<path d="M112.119 46.8969C111.79 47.0104 111.592 47.1423 111.363 47.1898C110.905 47.285 110.317 47.3618 110.057 47.3251C108.72 47.376 107.383 47.427 106.115 47.3277C105.496 47.3202 105.075 47.1808 104.525 47.0231C104.395 47.0047 104.562 46.7886 104.63 46.6383C104.729 46.5724 105.057 46.4589 105.187 46.4772C105.416 46.4296 105.646 46.3821 105.905 46.4188C107.793 46.5256 109.78 46.5664 111.797 46.6915C111.828 46.7758 111.859 46.8601 112.119 46.8969Z" fill="#277D2A" fill-opacity="0.25"/>
<path d="M95.3243 53.2942C94.3919 53.1599 93.6245 53.1329 92.8254 53.0178C92.4258 52.9603 92.3624 52.7839 92.0643 52.6573C91.8994 52.5499 92.4385 52.2931 92.8064 52.2625C93.041 52.2126 93.3074 52.251 93.4406 52.2702C94.9057 52.4813 96.4722 52.6233 97.9373 52.8344L98.0705 52.8536C98.1022 52.9418 98.1656 53.1181 98.0641 53.1871C97.9627 53.2562 97.4933 53.3558 97.2587 53.4056C96.7576 53.417 96.3581 53.3595 95.9902 53.3901C95.7238 53.3517 95.4574 53.3134 95.3243 53.2942Z" fill="#277D2A" fill-opacity="0.25"/>
<path d="M58.5043 47.9062C58.341 47.746 58.0932 47.6423 57.9561 47.5544C57.8565 46.9924 58.1735 46.421 58.6013 45.8654C58.6858 45.8089 58.7702 45.7525 58.8547 45.696C59.0499 45.6552 59.2188 45.5422 59.3295 45.5579C59.4403 45.5737 59.6618 45.6051 59.6881 45.6773C59.7144 45.7496 59.7407 45.8218 59.767 45.894C59.4499 46.4653 59.2436 47.0524 58.9266 47.6237C58.8421 47.6802 58.7577 47.7367 58.5043 47.9062Z" fill="#277D2A" fill-opacity="0.25"/>
<path d="M46.1368 31.2281C46.2734 31.0469 46.2228 30.9056 46.3037 30.8503C46.6831 30.5032 47.1687 30.1715 47.7353 29.7846C51.079 27.5886 55.0855 25.5555 59.1982 23.5377C60.4072 22.9757 61.6416 22.4844 62.9821 22.0084C65.6632 21.0564 67.3882 19.9661 68.663 18.7437C67.0087 17.4994 67.0389 15.8959 67.5498 14.228C67.7774 13.4569 68.2174 12.7167 68.5513 11.9611C68.5816 11.7645 68.9054 11.5433 69.6237 11.5803C69.644 11.9182 69.3708 12.2806 69.3101 12.6738C69.2242 12.9963 69.0572 13.3742 69.0775 13.7121C69.0168 14.1052 68.9308 14.4278 68.8702 14.821C68.8095 15.2142 68.8297 15.5521 68.85 15.89C68.8702 16.2279 68.8905 16.5658 68.9917 16.8484C69.1182 17.2017 69.1384 17.5396 69.7455 17.8284C70.0693 17.6073 70.3121 17.4414 70.4487 17.2602C71.0456 16.6766 71.7487 16.1084 72.3456 15.5248C72.725 15.1777 73.2106 14.846 73.6153 14.5696C73.7772 14.459 74.02 14.2932 74.2881 14.198C74.9053 13.9523 75.7046 13.934 75.7248 14.2719C75.8007 14.4839 75.6894 14.7357 75.5782 14.9876C75.4669 15.2395 75.4366 15.4361 75.2696 15.8139C75.9677 15.5129 76.5849 15.2673 77.1211 15.0769C79.1345 14.2293 81.1731 13.4523 83.1865 12.6047C83.5355 12.4542 84.178 12.2792 84.5524 12.1994C84.7395 12.1595 85.0582 12.2056 85.1645 12.221C85.1898 12.2916 85.1341 12.4176 85.1594 12.4882C85.0785 12.5435 84.9166 12.6541 84.8357 12.7094C82.6857 13.7382 80.7483 14.7977 78.3353 15.6545C77.1009 16.1459 75.8413 16.5666 74.3136 17.0825C74.0961 17.319 73.8229 17.6814 73.4435 18.0285C72.7657 18.6673 72.1941 19.3216 71.5162 19.9604C70.9193 20.544 70.1099 21.0969 69.0881 21.619C68.9262 21.7295 68.7643 21.8401 68.2534 22.1011C68.9212 21.9968 69.2146 21.9722 69.5889 21.8924C70.631 21.7082 71.7794 21.5394 72.8215 21.3552C73.3021 21.2908 73.7827 21.2263 74.3695 21.1772C74.7691 21.168 75.275 21.1742 75.2447 21.3708C75.2953 21.5121 74.7843 21.7732 74.2228 21.8929C71.6833 22.3964 69.25 22.9153 66.6852 23.3481C66.0175 23.4525 65.3497 23.5569 64.8439 23.5507C64.2317 23.5291 63.5893 23.7041 63.0531 23.8945C62.0059 24.346 60.9588 24.7974 59.7244 25.2887C57.8729 26.0258 56.0468 26.8335 54.089 27.5551C51.7823 28.4273 49.7133 29.4008 47.9883 30.4911C47.5583 30.6969 47.2598 30.9887 46.1368 31.2281Z" fill="#277D2A" fill-opacity="0.25"/>
<path d="M72.7064 11.6305C72.4498 11.5245 72.1056 11.4762 72.1659 11.3446C72.0631 10.7698 71.9602 10.195 71.8574 9.62025C71.9177 9.48863 71.978 9.35701 72.2407 9.18371C72.5033 9.01041 73.1373 8.95925 73.2792 9.0492C73.394 9.0653 73.5087 9.08139 73.5359 9.15525C73.6659 9.80388 73.8232 10.5264 73.4339 11.2422C73.1713 11.4155 72.8815 11.515 72.7064 11.6305Z" fill="#277D2A" fill-opacity="0.25"/>
<path d="M56.2119 17.5944C57.3566 17.7545 58.18 18.0245 58.5851 18.4683C58.6152 18.5499 58.4212 18.6776 58.3241 18.7414C58.2271 18.8053 57.7786 18.8974 57.6514 18.8796C56.731 18.6735 55.8407 18.5489 55.0173 18.279C54.7629 18.2434 54.7997 18.0163 55.218 17.8425C55.5392 17.7326 55.8906 17.7043 56.2119 17.5944Z" fill="#277D2A" fill-opacity="0.25"/>
<path d="M82.6996 18.168C82.3457 18.4008 82.2847 18.5334 82.1963 18.5916C81.3451 18.9665 80.4391 19.1926 79.5055 19.3443C79.0967 19.4282 78.7489 19.3796 78.578 19.2146C78.4072 19.0495 78.6726 18.875 79.0539 18.7166C80.1644 18.4485 81.3908 18.1966 82.6996 18.168Z" fill="#277D2A" fill-opacity="0.25"/>
<path d="M77.3185 11.9616C77.2685 11.8212 77.1386 11.7357 77.2185 11.6807C77.7527 11.2257 78.3118 10.841 79.2655 10.4472C79.2655 10.4472 79.3454 10.3922 79.4503 10.4075C79.635 10.3678 79.9247 10.3434 79.9497 10.4136C80.0546 10.4289 80.1844 10.5144 80.1046 10.5694C80.0497 10.6945 79.8899 10.8045 79.7302 10.9144C79.0661 11.2838 78.532 11.7388 77.3185 11.9616Z" fill="#277D2A" fill-opacity="0.25"/>
<path d="M68.5387 27.3686C67.5876 27.6042 66.8223 27.7185 66.1786 27.8497C65.964 27.8935 65.7207 27.8597 65.6919 27.7821C65.6631 27.7046 65.6343 27.627 65.7271 27.5664C65.82 27.5057 66.0058 27.3845 66.2203 27.3407C66.928 27.0713 67.3859 27.0614 68.5387 27.3686Z" fill="#277D2A" fill-opacity="0.25"/>
</svg>
