<svg width="242" height="101" viewBox="0 0 242 101" fill="none" xmlns="http://www.w3.org/2000/svg">
<path d="M170.112 31.009C174.684 32.5893 179.235 34.2731 182.551 36.365C187.513 39.5545 191.9 42.7409 194.919 46.2827C196.53 48.2616 197.853 50.2388 198.292 52.3149C198.924 56.2585 195.86 59.9744 190.116 63.4165C187.981 64.7009 185.292 65.8785 182.603 67.0562C178.637 68.849 174.537 70.5893 170.57 72.3821C167.397 73.8164 164.224 75.2506 161.029 76.7884C159.134 77.6075 158.368 78.5365 159.019 79.577C159.467 80.2015 159.052 80.8214 158.349 81.4396C156.987 82.469 156.333 83.5542 155.545 84.5867C154.779 85.5157 154.322 86.3427 153.843 87.2732C153.647 87.5314 153.45 87.7895 153.12 87.9951C152.614 88.3552 151.021 88.3984 150.377 88.0319C150.131 87.8232 149.886 87.6145 149.795 87.3548C149.592 86.9389 149.677 86.5247 149.474 86.1088C149.259 84.345 148.006 82.731 145.426 81.2653C143.492 80.166 141.711 79.0157 139.777 77.9165C133.594 74.3573 128.45 70.6484 124.211 66.737C121.065 63.8166 118.825 60.6937 118.331 57.4768C117.817 54.3634 118.74 51.2579 121.811 48.2159C123.258 46.7723 125.26 45.4353 127.394 44.1509C130.674 42.1988 132.845 40.0333 134.153 37.863C134.371 37.5013 134.743 37.0886 134.828 36.6743C135.849 34.5025 138.952 32.705 142.877 31.1193C144.905 30.3527 147.046 29.7423 149.586 29.2896C153.032 28.6345 156.66 28.4988 160.16 28.9845C163.681 29.3667 166.851 30.058 170.112 31.009ZM154.425 83.0253C155.106 82.5106 155.654 81.9433 156.336 81.4286C157.193 80.7594 157.608 80.1395 157.335 79.3604C156.796 78.4761 157.408 77.5981 158.728 76.7758C160.203 75.9026 161.677 75.0293 163.285 74.2086C168.087 71.8501 173.023 69.5442 177.959 67.2382C180.669 65.957 183.379 64.6757 185.401 63.2352C190.24 59.9955 192.245 56.533 191.24 53.0022C190.758 51.1332 189.68 49.3647 188.182 47.542C185.387 44.3124 181.863 41.1307 178.03 38.0511C175.668 36.2236 172.843 34.5492 168.98 33.0247C166.582 32.0784 164.029 31.1831 160.859 30.4918C156.581 29.5871 152.378 29.7196 148.272 30.7859C147.809 30.9389 147.213 31.0393 146.749 31.1923C142.404 32.7238 139.167 34.4688 137.859 36.639C137.402 37.466 136.79 38.344 135.912 39.1169C133.65 41.0227 131.543 42.8775 128.439 44.675C127.449 45.2917 126.592 45.961 125.735 46.6303C122.637 49.1018 121.665 51.7405 121.711 54.3329C121.825 57.2885 123.575 59.9939 126.322 62.7566C129.292 65.8316 132.858 68.8061 137.021 71.6802C140.049 73.7705 143.674 75.7604 147.143 77.8012C150.101 79.5282 152.948 81.099 154.425 83.0253Z" fill="#277D2A" fill-opacity="0.25"/>
<path d="M70.3972 39.0605C75.3256 40.6749 79.9491 42.3901 83.374 44.4059C86.5569 46.2156 88.1467 48.1702 88.5588 50.3231C88.6543 51.2453 88.6183 52.1156 88.4298 53.0363C88.1786 54.2639 87.7749 55.5418 87.6551 56.8213C87.5295 57.4351 87.5563 57.9985 87.4306 58.6123C87.0328 60.556 87.9441 62.3532 90.2961 64.0559C91.6379 65.1386 92.8482 66.1694 94.1901 67.2521C94.6742 67.6644 95.2898 68.1286 96.5152 68.3914C96.9307 68.4449 97.0412 68.5991 97.3042 68.7029C97.8093 69.0129 97.4207 69.5229 96.3955 69.6709C95.8066 69.77 95.0863 69.8173 94.366 69.8646C93.2302 69.8583 92.0945 69.8521 90.9796 69.7436C83.6809 69.2939 77.2072 68.2854 71.4061 66.7686C69.1077 66.1927 67.2667 65.4657 65.7305 64.638C64.0629 63.7583 62.2428 62.929 60.4227 62.0998C56.5196 60.3373 51.7017 58.8771 46.5581 57.6199C41.4145 56.3628 35.966 55.2063 31.1272 53.8484C24.1426 51.8642 18.0725 49.5778 13.3745 46.8381C12.4959 46.27 11.4857 45.65 10.7595 45.0316C9.41771 43.9489 9.23258 42.7701 10.0517 41.5456C11.3223 39.5044 13.9707 37.6755 18.1076 36.2132C20.8724 35.2042 24.2738 34.5572 28.1594 34.3225C34.7738 33.9492 41.3045 33.985 47.7095 34.6346C52.9997 35.1757 57.9431 36.0221 62.2768 37.0701C65.2746 37.701 67.8359 38.3807 70.3972 39.0605ZM93.6699 67.7101C91.1865 65.9554 89.0975 64.3566 86.7246 62.7562C85.6039 61.9819 84.9196 61.1589 84.8032 60.3389C84.6599 58.9556 84.5376 57.4699 84.3944 56.0865C84.2721 54.6009 84.3022 53.0649 83.8959 51.5777C83.2208 49.3209 80.9526 47.209 77.3334 45.4481C71.0154 42.2898 63.1312 39.8399 53.8541 37.9456C49.4785 37.1022 44.9296 36.4116 40.0339 36.0263C36.1215 35.6976 32.2988 35.6254 28.2817 35.8082C25.2689 35.9453 22.6297 36.3404 20.627 37.0975C16.9475 38.4087 14.5144 39.8803 13.0226 41.6132C12.1139 42.5811 12.3409 43.5553 13.2882 44.4822C14.0144 45.1006 14.7406 45.7191 15.7507 46.3391C21.0644 49.5431 28.2074 52.1426 36.7432 54.1865C41.0769 55.2344 45.8679 56.1312 50.354 57.1287C55.8026 58.2851 60.9462 59.5423 65.3067 61.1536C66.8847 61.7768 68.3312 62.348 69.9092 62.9711C72.0133 63.802 74.2907 64.4801 76.873 65.0576C81.4906 66.107 86.5865 66.9031 91.7033 67.5969C91.9872 67.5984 92.5551 67.6015 93.6699 67.7101Z" fill="#277D2A" fill-opacity="0.25"/>
<path d="M133.533 54.2104C134.837 54.1658 135.502 54.4284 136.322 54.6401C138.229 55.1686 140.268 55.7497 142.174 56.2782C142.573 56.4358 142.994 56.4899 143.415 56.544C144.298 56.4452 144.053 56.2366 144.095 56.0296C143.944 53.9565 144.789 51.9407 146.495 49.9295C148.441 47.4534 150.099 44.9757 150.916 42.3899C151.325 41.0969 152.308 39.8071 153.004 38.5157C153.068 38.2052 153.419 37.8963 154.611 37.6956C154.702 37.9551 154.659 38.1621 154.617 38.3691C154.081 40.2831 153.413 42.1445 152.723 44.1094C152.096 45.7638 151.337 47.3656 150.577 48.9675C149.881 50.2589 149.472 51.5518 149.639 52.8479C149.708 53.2109 149.932 53.523 149.981 53.9895C150.731 53.8382 151.04 53.7363 151.348 53.6344C155.094 52.2042 158.707 50.7216 162.32 49.2389C163.092 48.9841 163.576 48.7277 164.214 48.4204C165.055 48.5286 165.034 48.6321 164.837 48.8901C164.486 49.199 164.135 49.5079 163.651 49.7643C160.108 51.61 156.144 53.4015 151.515 54.9304C151.206 55.0324 150.897 55.1343 150.568 55.3397C151.336 57.209 153.275 58.981 155.79 60.7562C157.796 60.0937 159.626 59.5856 161.478 58.9741C164.719 57.9038 167.96 56.8336 171.488 55.7649C172.105 55.5611 172.855 55.4098 173.451 55.3094C174.047 55.2091 174.734 55.3682 174.538 55.6262C174.341 55.8842 174.144 56.1421 173.814 56.3476C173.176 56.6549 172.537 56.9623 171.92 57.1661C167.424 58.7475 163.039 60.485 157.744 61.7512C157.59 61.8022 157.436 61.8532 157.26 62.0076C157.351 62.2672 157.729 62.5283 157.953 62.8403C161.817 67.1614 160.927 71.5084 155.88 75.7808C155.529 76.0897 155.178 76.3986 154.693 76.655C153.417 77.2697 151.271 77.2062 150.403 76.5279C150.046 76.1633 149.976 75.8003 150.061 75.3863C150.188 74.7653 150.448 74.1969 150.709 73.6284C151.117 72.3355 151.659 71.095 151.913 69.8531C152.316 67.8866 151.547 66.0173 149.917 64.1434C149.069 63.3616 148.222 62.5799 147.662 61.7997C146.836 60.9145 146.032 59.9258 145.36 58.9896C145.024 58.5215 144.646 58.2604 143.539 58.0471C141.212 57.4645 139.039 56.8309 136.734 56.1448C135.648 55.828 134.87 55.4093 133.805 54.989C133.427 54.7279 133.448 54.6244 133.533 54.2104Z" fill="#277D2A" fill-opacity="0.25"/>
<path d="M169.006 40.7128C169.12 40.872 169.392 40.9792 169.37 41.0848C169.327 41.2959 169.126 41.5591 168.812 41.6631C167.96 42.2397 167.109 42.8164 165.829 43.3379C165.335 43.5994 164.57 43.7538 163.648 43.9601C163.491 44.0121 162.926 43.9033 162.498 43.8481C162.362 43.7945 162.248 43.6353 162.405 43.5833C162.427 43.4778 162.448 43.3722 162.763 43.2682C164.537 42.4852 166.175 41.6486 168.106 40.8136C168.399 40.8152 168.692 40.8168 169.006 40.7128Z" fill="#277D2A" fill-opacity="0.25"/>
<path d="M179.035 50.7067C177.928 51.0725 177.274 51.3877 176.326 51.7013C175.852 51.8581 175.263 51.8548 174.652 51.9577C174.2 52.0084 173.812 51.7406 173.992 51.5822C174.014 51.476 174.33 51.3715 174.488 51.3192C176.227 50.7444 177.829 50.1156 179.568 49.5407L179.726 49.4885C180.02 49.4901 180.609 49.4933 180.746 49.5472C180.882 49.6011 180.838 49.8134 180.817 49.9195C180.479 50.1302 180.005 50.287 179.825 50.4454C179.509 50.5499 179.193 50.6544 179.035 50.7067Z" fill="#277D2A" fill-opacity="0.25"/>
<path d="M140.315 64.5878C139.591 64.6352 138.999 64.7349 138.56 64.784C136.43 64.7208 134.627 64.4537 132.978 64.1359C132.846 64.0838 132.714 64.0316 132.581 63.9794C132.602 63.8766 132.338 63.7723 132.491 63.7216C132.645 63.671 132.951 63.5698 133.236 63.5714C133.522 63.5729 133.807 63.5745 134.093 63.576C135.895 63.8432 137.851 64.0597 139.654 64.3269C139.786 64.379 139.918 64.4312 140.315 64.5878Z" fill="#277D2A" fill-opacity="0.25"/>
<path d="M77.5774 62.1835C77.0308 62.0782 76.4632 62.075 76.3318 62.0231C75.3909 61.7621 74.6023 61.4507 73.6823 61.0874C68.5774 58.9609 64.6705 56.534 60.916 54.0567C59.9274 53.3348 59.2225 52.6144 58.67 51.8436C57.565 50.3021 55.0887 49.2138 51.7193 48.3252C45.6342 48.906 39.7375 48.5665 34.0349 47.9722C31.3913 47.7018 29.0523 47.3307 26.561 47.0099C25.862 46.9549 25.3363 46.7473 26.119 46.3934C27.3856 46.4515 28.4789 46.6622 29.8769 46.7722C30.9911 46.8807 32.2368 47.0411 33.5033 47.0992C34.9014 47.2093 36.0156 47.3177 37.4136 47.4278C38.8116 47.5378 40.0782 47.5959 41.3447 47.6541C42.6113 47.7122 43.8779 47.7703 45.013 47.7766C46.432 47.7844 47.6986 47.8425 49.3117 47.5955C48.786 47.3878 48.3917 47.2321 47.845 47.1268C46.226 46.7084 44.7594 46.2398 43.1404 45.8214C42.1994 45.5604 41.4109 45.249 40.7537 44.9894C40.4908 44.8856 40.0966 44.7299 39.9861 44.5758C39.6336 44.2156 40.2849 43.8097 41.5515 43.8679C42.4029 43.8725 43.2333 43.9794 44.0637 44.0864C44.8941 44.1933 45.5932 44.2483 46.8388 44.4087C46.3549 43.9966 46.0025 43.6364 45.7815 43.3281C44.4613 42.1437 43.425 40.9608 42.1048 39.7764C41.8629 39.5704 41.7942 39.2118 41.8361 39.0073C41.857 38.905 42.3141 38.754 42.4664 38.7036C42.7502 38.7052 43.1654 38.7587 43.4492 38.7602C43.5807 38.8121 43.8435 38.9159 43.9749 38.9678C45.8417 40.2576 48.0133 41.4467 49.0078 42.834C49.7127 43.5544 50.1337 44.2732 50.6653 45.1462C51.3434 45.3035 52.4367 45.5142 53.3776 45.7753C55.1281 46.2455 57.0309 46.6654 58.7813 47.1356C60.4003 47.554 61.7146 48.073 62.7242 48.6927C62.987 48.7965 63.2499 48.9003 63.7547 49.2102C63.9698 48.8531 64.1431 48.7005 64.185 48.496C64.442 47.9344 64.8513 47.3225 65.1083 46.7609C65.3025 46.5061 65.4967 46.2512 65.8433 45.9461C66.1689 45.7431 66.6469 45.4898 67.3459 45.5449C67.9135 45.548 68.4183 45.8578 68.3555 46.1646C67.9311 47.5441 67.659 48.8733 66.9508 50.2513C66.7357 50.6084 66.5206 50.9655 66.0426 51.2188C65.4122 51.5224 65.4809 51.881 65.7019 52.1893C66.4277 52.8075 67.1535 53.4256 67.8583 54.146C68.9156 55.2266 70.2567 56.3088 71.1616 57.4397C72.3085 58.7767 74.0439 60.0145 76.5201 61.1029C76.8935 61.3609 77.703 61.57 77.5774 62.1835Z" fill="#277D2A" fill-opacity="0.25"/>
<path d="M31.7241 42.7971C31.1292 42.8973 30.6671 43.0499 30.2473 42.9959C28.1061 42.9325 25.9648 42.869 23.8236 42.8056C23.4038 42.7516 22.984 42.6976 22.5854 42.5403C22.1867 42.383 22.5371 42.0746 22.978 42.0253C23.132 41.9744 23.2861 41.9236 23.573 41.9251C26.0011 41.9901 28.7162 42.0567 30.948 42.3792C31.3466 42.5365 31.4584 42.6922 31.7241 42.7971Z" fill="#277D2A" fill-opacity="0.25"/>
<path d="M40.5989 53.1093C42.009 52.6434 43.5328 52.3361 45.3053 52.2405C45.5972 52.2421 45.8675 52.3489 46.0027 52.4022C46.1378 52.4556 46.0948 52.6658 45.9381 52.7176C44.5495 53.0784 43.4527 53.4407 41.929 53.7481C41.6156 53.8516 40.8968 53.795 40.6479 53.5832C40.5343 53.4247 40.7125 53.2678 40.5989 53.1093Z" fill="#277D2A" fill-opacity="0.25"/>
<path d="M58.6167 41.5336C59.149 41.7436 59.5695 41.7977 59.7026 41.8502C60.3257 42.3198 60.3741 42.7862 60.1351 43.251C60.0927 43.458 59.6299 43.6108 58.9009 43.6586C58.1719 43.7064 57.7726 43.5489 57.5276 43.3403C57.5004 42.7705 57.6275 42.1497 58.6167 41.5336Z" fill="#277D2A" fill-opacity="0.25"/>
<path d="M35.0218 41.1106C34.4552 41.1075 34.0198 41.1562 33.8886 41.1044C32.6869 40.7401 31.7685 40.3773 31.1751 39.812C31.1751 39.812 31.0439 39.7601 31.196 39.7099C31.2169 39.6078 31.3899 39.4554 31.6732 39.457C31.8253 39.4067 32.2607 39.358 32.3919 39.4098C32.8064 39.4632 33.0688 39.5669 33.3312 39.6705C34.0976 40.0835 35.2993 40.4478 35.0218 41.1106Z" fill="#277D2A" fill-opacity="0.25"/>
<path d="M79.8592 51.6904C79.908 52.1605 79.6885 52.5246 79.6244 52.8375C79.6031 52.9418 79.2921 53.0445 79.0025 53.0429C78.7129 53.0413 78.4233 53.0397 78.2892 52.9868C78.1551 52.9338 77.8868 52.828 77.9082 52.7237C77.5485 52.3564 77.8808 52.1494 79.8592 51.6904Z" fill="#277D2A" fill-opacity="0.25"/>
</svg>
