<svg width="64" height="61" viewBox="0 0 64 61" fill="none" xmlns="http://www.w3.org/2000/svg">
<path d="M62.9264 29.3228C63.1058 31.2115 63.1954 33.1592 62.5677 35.107C61.5813 38.0581 60.4156 40.8911 58.5324 43.6651C57.4564 45.1997 56.2906 46.6752 54.7662 48.0327C51.807 50.5707 47.8614 52.2233 43.288 53.1676C41.5842 53.5218 39.7908 53.6988 37.9973 53.8759C35.3071 54.171 32.6169 54.4071 29.9267 54.7022C27.7746 54.9383 25.6224 55.1744 23.3806 55.4695C22.1252 55.5875 21.1388 56.0007 20.5111 56.768C20.1524 57.2401 19.5247 57.5353 18.8073 57.7713C17.5519 58.1255 16.4758 58.6567 15.3997 59.1288C14.4133 59.542 13.6062 59.9552 12.7095 60.4273C12.4405 60.5454 12.1715 60.6634 11.9025 60.7224C11.4541 60.8405 10.9161 60.5454 11.0057 60.1912C11.0954 60.0142 11.1851 59.8371 11.3644 59.66C11.6334 59.3649 11.9921 59.1288 12.2612 58.8337C13.6062 57.7123 14.503 56.4729 14.8617 55.0563C15.1307 53.9939 15.4894 52.9316 15.7584 51.8692C16.6551 48.4459 18.0002 45.1407 19.7937 41.8945C21.1388 39.4746 22.9322 37.1137 25.3534 35.0479C27.6849 33.0412 30.4648 31.3296 33.8724 30.0901C35.4865 29.4999 37.1903 29.0867 38.894 28.7326C41.4946 28.2014 43.9157 27.3161 46.0679 26.2537C46.4266 26.0766 46.8749 25.8996 47.2336 25.6635C49.2961 24.542 51.7173 24.0699 54.2281 23.8928C55.4836 23.8338 56.6493 23.8928 57.8151 24.1289C59.4292 24.424 60.6846 25.0732 61.402 26.0766C62.209 27.021 62.6574 28.0834 62.9264 29.3228ZM16.2964 57.9484C16.9242 57.7713 17.5519 57.5353 18.1796 57.3582C18.9866 57.1221 19.6143 56.827 20.1524 56.2958C20.6904 55.6466 21.5872 55.2334 22.6632 54.9973C23.829 54.7612 24.9947 54.5251 26.1605 54.3481C29.568 53.8759 32.9756 53.4627 36.3832 53.0496C38.2663 52.8135 40.1495 52.5774 41.9429 52.1052C46.0679 51.1019 49.4755 49.3902 51.9863 47.0294C53.3314 45.7899 54.4075 44.4914 55.3939 43.0749C57.0977 40.537 58.5324 37.881 59.7879 35.225C60.5052 33.6314 60.9536 32.0378 60.9536 30.3262C60.9536 29.2638 60.8639 28.2014 60.4156 27.139C59.7879 25.7225 58.3531 24.9552 56.2009 24.7781C55.9319 24.7781 55.6629 24.7191 55.3939 24.7191C52.7934 24.7781 50.3722 25.1913 48.22 26.2537C47.413 26.6668 46.5163 27.08 45.6195 27.3751C43.3777 28.0834 41.2255 28.7916 38.8044 29.2638C37.9973 29.4409 37.1903 29.6769 36.3832 29.913C33.424 30.7984 31.0028 32.2149 28.9403 33.8085C26.6088 35.6382 24.9947 37.6449 23.6496 39.8877C22.1252 42.3666 20.8698 44.9046 19.8834 47.5015C19.166 49.3902 18.7176 51.338 18.1796 53.2857C17.7312 54.9383 17.3725 56.4729 16.2964 57.9484Z" fill="#277D2A" fill-opacity="0.25"/>
<path d="M25.9811 13.2099C26.2502 15.2166 26.3398 17.2234 25.8018 19.1711C25.3534 20.9417 24.2774 22.4763 22.6632 23.8928C21.9459 24.483 21.2285 25.0142 20.4214 25.5454C19.3453 26.2537 18.1796 26.962 17.1035 27.7292C16.5655 28.0834 16.1171 28.4375 15.5791 28.7916C13.8753 29.913 12.7095 31.2115 12.0818 32.7461C11.6335 33.6904 11.1851 34.5758 10.7367 35.5201C10.5574 35.8742 10.378 36.2874 10.5574 36.7006C10.6471 36.8186 10.5574 36.9366 10.5574 37.0547C10.4677 37.3498 9.92967 37.5859 9.48131 37.4678C9.21229 37.4088 8.94327 37.2908 8.67425 37.1727C8.31556 36.9366 7.95686 36.7006 7.68785 36.4054C5.71504 34.6348 4.45962 32.6871 3.83191 30.5623C3.56289 29.736 3.56288 28.9097 3.74223 28.0834C3.92158 27.198 4.01125 26.3127 4.10092 25.4274C4.28027 23.5387 3.92158 21.65 3.29386 19.8203C2.66615 17.9906 1.8591 16.161 1.41073 14.3313C0.783021 11.6753 0.693347 9.01933 1.41073 6.36335C1.59008 5.83215 1.76943 5.24193 2.03845 4.71074C2.48681 3.76639 3.38354 2.99911 4.63896 2.40889C6.70144 1.40552 9.03294 0.815301 11.5438 0.756279C13.2476 0.697257 14.8617 0.992366 16.2965 1.64161C18.7176 2.76302 20.7801 4.12052 22.3046 5.83215C23.56 7.24868 24.4567 8.78324 24.9947 10.3178C25.4431 11.3212 25.7121 12.2655 25.9811 13.2099ZM10.1987 35.6972C10.8264 34.1036 11.4541 32.6871 11.9922 31.2115C12.2612 30.5033 12.7095 29.854 13.3373 29.3228C14.4133 28.4375 15.5791 27.4931 16.6552 26.6078C17.8209 25.6635 19.0763 24.7191 20.1524 23.7158C21.7665 22.1812 22.7529 20.4105 23.0219 18.5809C23.56 15.3347 23.0219 12.2065 21.5872 9.13737C20.8698 7.72085 19.9731 6.36335 18.7176 5.12389C17.7312 4.12052 16.5655 3.29422 15.1307 2.58595C14.0546 2.05476 12.8889 1.75965 11.6335 1.81867C9.39163 1.87769 7.41883 2.29085 5.53569 3.05813C4.45961 3.47128 3.74223 4.12052 3.29386 4.8878C3.02485 5.419 2.75583 5.9502 2.57648 6.54041C1.67975 9.60955 1.8591 12.6787 2.93518 15.6888C3.47322 17.2234 4.28027 18.7579 4.90798 20.2925C5.71504 22.1222 6.34275 23.9518 6.43242 25.8405C6.43242 26.5488 6.43242 27.198 6.43242 27.9063C6.43242 28.8507 6.61177 29.736 6.97047 30.6213C7.59818 32.2149 8.58458 33.7495 9.66066 35.225C9.75033 35.284 9.92968 35.4021 10.1987 35.6972Z" fill="#277D2A" fill-opacity="0.25"/>
<path d="M32.7963 36.1103C33.2446 36.3464 33.2446 36.6415 33.3343 36.9366C33.5136 37.6449 33.693 38.4122 33.8723 39.1205C33.8723 39.2975 33.962 39.4156 34.0517 39.5336C34.4104 39.6517 34.5 39.4746 34.6794 39.3565C36.2935 38.0581 38.1766 36.9957 40.3288 36.1103C42.9293 34.9889 45.4402 33.8085 47.7717 32.392C48.9374 31.6837 50.2825 31.0935 51.5379 30.4442C51.8069 30.2672 52.1656 30.1491 52.7037 30.2672C52.5243 30.4442 52.345 30.5623 52.1656 30.6803C50.4618 31.7427 48.7581 32.7461 46.9646 33.8085C45.4401 34.6938 43.9157 35.5201 42.3913 36.3464C41.1359 36.9957 39.9701 37.7039 38.9837 38.5302C38.7147 38.7663 38.5353 39.0024 38.1766 39.2975C38.5353 39.3565 38.7147 39.3565 38.894 39.3565C41.2255 39.2385 43.557 39.0614 45.8885 38.8844C46.3369 38.8844 46.6956 38.8253 47.1439 38.7663C47.3233 39.0024 47.2336 39.0614 46.9646 39.1795C46.6059 39.2975 46.2472 39.4156 45.8885 39.4746C43.288 39.8877 40.5978 40.1829 37.9076 40.1829C37.7283 40.1829 37.5489 40.1828 37.2799 40.2419C36.0245 41.5404 35.2174 43.0159 34.5897 44.6095C35.7555 44.6095 36.7419 44.6685 37.8179 44.6685C39.7011 44.6685 41.5842 44.6685 43.557 44.7275C43.9157 44.7275 44.2744 44.7865 44.5434 44.8456C44.8124 44.9046 44.9021 45.1407 44.6331 45.2587C44.3641 45.3768 44.0951 45.4948 43.826 45.5538C43.3777 45.6129 42.9293 45.6719 42.5706 45.6719C39.8804 45.7309 37.1006 45.908 34.4104 45.6129C34.3207 45.6129 34.231 45.6129 34.0517 45.6719C33.8723 45.8489 33.7827 46.085 33.6033 46.3211C31.3615 49.7444 27.5952 52.2233 22.5735 53.8169C22.2148 53.9349 21.8561 54.053 21.4975 54.112C20.6007 54.23 19.973 53.7579 20.242 53.1677C20.4214 52.8725 20.6904 52.6365 21.0491 52.4004C21.5871 52.0462 22.1252 51.7511 22.6632 51.456C23.829 50.7478 24.9947 50.0985 26.0708 49.3903C27.7746 48.2688 29.03 46.9704 30.0164 45.4948C30.3751 44.8456 30.7338 44.1963 31.1821 43.6061C31.6305 42.8979 32.1685 42.1306 32.7066 41.4223C32.9756 41.0682 33.0653 40.8321 32.8859 40.478C32.6169 39.6517 32.4376 38.8253 32.2582 37.94C32.1685 37.5269 32.2582 37.1137 32.2582 36.6415C32.3479 36.4055 32.4376 36.3464 32.7963 36.1103Z" fill="#277D2A" fill-opacity="0.25"/>
<path d="M54.1385 34.8119C54.0488 34.9299 54.0488 35.048 53.9591 35.107C53.7798 35.225 53.5108 35.3431 53.3314 35.3431C52.614 35.5202 51.8966 35.6972 51.0896 35.7562C50.7309 35.8153 50.3722 35.7562 49.9238 35.6972C49.8341 35.6972 49.7445 35.5202 49.6548 35.4021C49.6548 35.3431 49.7445 35.225 49.8341 35.225C49.9238 35.166 50.0135 35.107 50.1928 35.107C51.3586 34.989 52.5244 34.8119 53.7798 34.6938C53.8695 34.7529 53.9591 34.8119 54.1385 34.8119Z" fill="#277D2A" fill-opacity="0.25"/>
<path d="M49.4755 43.1929C48.8478 43.1929 48.3994 43.2519 47.8614 43.2519C47.5924 43.2519 47.413 43.1339 47.144 43.0748C46.9647 43.0158 47.0543 42.7797 47.2337 42.7207C47.3234 42.6617 47.5027 42.6617 47.5924 42.6617C48.5788 42.6617 49.5651 42.6027 50.5515 42.6027H50.6412C50.7309 42.6617 50.9102 42.7797 50.9102 42.8387C50.9102 42.8978 50.7309 43.0158 50.6412 43.0748C50.3722 43.1339 50.1032 43.1339 49.9238 43.1929C49.7445 43.1929 49.5651 43.1929 49.4755 43.1929Z" fill="#277D2A" fill-opacity="0.25"/>
<path d="M27.0572 43.8421C26.7882 43.7241 26.5192 43.6651 26.3398 43.606C25.7121 43.1339 25.3534 42.6027 25.0844 42.0715C25.0844 42.0125 25.0844 41.9534 25.0844 41.8944C25.1741 41.8354 25.1741 41.7173 25.2638 41.7173C25.3534 41.7173 25.5328 41.7173 25.6224 41.7764C25.7121 41.8354 25.8018 41.8944 25.8915 41.9534C26.2501 42.4846 26.6985 43.0158 27.0572 43.547C27.0572 43.606 27.0572 43.6651 27.0572 43.8421Z" fill="#277D2A" fill-opacity="0.25"/>
<path d="M9.57096 28.9686C9.48129 28.7916 9.30195 28.6735 9.30195 28.6145C9.21228 28.2604 9.21228 27.9062 9.21228 27.4931C9.30195 25.1322 10.0193 22.8304 10.8264 20.5285C11.0954 19.8793 11.4541 19.289 11.9025 18.6988C12.7992 17.5184 12.8889 16.338 12.5302 15.0985C10.109 14.2132 8.49489 12.7966 7.14979 11.2621C6.52208 10.5538 6.07371 9.84556 5.53567 9.13729C5.35632 8.96023 5.35632 8.72414 5.89436 8.66512C6.25306 8.96023 6.4324 9.31436 6.7911 9.66849C7.06011 9.9636 7.32913 10.3177 7.68783 10.6128C8.04652 10.967 8.31554 11.2621 8.67423 11.6162C9.03293 11.9703 9.39162 12.2655 9.75032 12.5606C10.109 12.8557 10.4677 13.1508 10.8264 13.3869C11.2748 13.682 11.6335 13.9771 12.3508 14.1541C12.3508 13.9181 12.3508 13.741 12.2612 13.5639C12.0818 12.9737 11.9921 12.3835 11.8128 11.7933C11.7231 11.4391 11.7231 11.085 11.7231 10.7899C11.7231 10.6719 11.7231 10.4948 11.8128 10.3768C11.9921 10.0816 12.5302 9.9636 12.8889 10.2587C13.1579 10.4358 13.3372 10.6719 13.5166 10.9079C13.6959 11.144 13.8753 11.3211 14.1443 11.6752C14.3237 11.3211 14.503 11.026 14.6823 10.7899C15.2204 9.78653 15.8481 8.84219 16.3861 7.83881C16.4758 7.66175 16.7448 7.42566 16.9242 7.30762C17.0138 7.2486 17.2829 7.2486 17.3725 7.2486C17.4622 7.30762 17.5519 7.42566 17.6416 7.48468C17.6416 7.54371 17.6416 7.66175 17.6416 7.72077C17.1932 8.90121 16.9242 10.0816 16.1171 11.144C15.7584 11.7343 15.3101 12.2655 14.772 12.9147C14.8617 13.1508 15.041 13.5049 15.1307 13.859C15.3101 14.5083 15.5791 15.1575 15.7584 15.8068C15.9378 16.397 15.9378 16.9872 15.7584 17.5774C15.7584 17.6955 15.7584 17.8135 15.6687 18.1086C16.0274 17.9315 16.2068 17.8725 16.3861 17.7545C16.9242 17.4594 17.5519 17.1643 18.0899 16.8692C18.3589 16.7511 18.628 16.6331 18.9867 16.515C19.2557 16.456 19.6144 16.397 19.7937 16.574C19.9731 16.6921 19.8834 16.9872 19.6144 17.1643C18.3589 17.9315 17.1932 18.6988 15.8481 19.4071C15.4894 19.5842 15.1307 19.7612 14.772 19.8202C14.3236 19.8793 14.0546 20.1154 13.8753 20.3514C13.6063 20.8826 13.3372 21.4138 12.9786 22.0041C12.4405 22.8894 11.9921 23.8337 11.3644 24.7191C10.647 25.7814 10.1987 26.9029 10.109 28.0833C10.0193 28.3194 10.109 28.6145 9.57096 28.9686Z" fill="#277D2A" fill-opacity="0.25"/>
<path d="M10.7367 7.30768C10.4677 7.24866 10.1987 7.24866 10.109 7.13061C9.48133 6.65844 8.85362 6.18626 8.22591 5.71409C8.13624 5.59605 8.04657 5.478 8.04657 5.30094C8.04657 5.12387 8.40526 5.00583 8.5846 5.06485C8.67428 5.06485 8.76395 5.06485 8.85362 5.12387C9.571 5.65507 10.3781 6.24529 10.8264 6.89452C10.8264 7.07159 10.7367 7.18963 10.7367 7.30768Z" fill="#277D2A" fill-opacity="0.25"/>
<path d="M5.44602 15.7478C6.25309 15.7478 6.97048 15.8658 7.59819 16.161C7.68787 16.22 7.68787 16.338 7.68787 16.397C7.68787 16.4561 7.50852 16.5741 7.41885 16.5741C6.70146 16.5151 6.07374 16.5151 5.35635 16.397C5.177 16.397 4.99765 16.22 5.08733 16.0429C5.177 15.9249 5.35635 15.8658 5.44602 15.7478Z" fill="#277D2A" fill-opacity="0.25"/>
<path d="M19.8833 12.2065C19.8833 12.4426 19.973 12.5606 19.973 12.6196C19.7937 13.0328 19.435 13.3279 18.9866 13.564C18.8073 13.682 18.5383 13.682 18.2692 13.564C18.0002 13.4459 18.0002 13.2689 18.0899 13.0918C18.5382 12.7377 19.0763 12.3835 19.8833 12.2065Z" fill="#277D2A" fill-opacity="0.25"/>
<path d="M12.9785 6.9536C12.7992 6.83556 12.6199 6.77654 12.6199 6.71752C12.5302 6.24534 12.5302 5.83219 12.7992 5.36002C12.7992 5.36002 12.7992 5.301 12.8889 5.301C12.9786 5.24198 13.1579 5.18296 13.2476 5.24198C13.3372 5.24198 13.5166 5.301 13.5166 5.36002C13.6063 5.47806 13.6063 5.59611 13.6063 5.71415C13.5166 6.1273 13.6063 6.59947 12.9785 6.9536Z" fill="#277D2A" fill-opacity="0.25"/>
<path d="M18.5383 23.0665C18.1796 23.3616 17.8209 23.5387 17.5519 23.7158C17.4622 23.7748 17.2829 23.7748 17.1932 23.7158C17.1035 23.6567 17.0139 23.5977 17.0139 23.5387C17.0139 23.4797 17.0139 23.3616 17.1035 23.3026C17.2829 23.0075 17.5519 22.9485 18.5383 23.0665Z" fill="#277D2A" fill-opacity="0.25"/>
</svg>
