<svg width="83" height="123" viewBox="0 0 83 123" fill="none" xmlns="http://www.w3.org/2000/svg">
<g opacity="0.25" clip-path="url(#clip0)">
<path d="M82.8267 58.6184C83.0866 62.4445 83.2599 66.4445 82.3935 70.3576C81.094 76.2706 79.5345 82.1837 77.0219 87.7489C75.6357 90.8793 74.0762 93.9228 71.9969 96.6184C68.0115 101.749 62.8132 105.14 56.6618 107.053C54.3226 107.749 51.8967 108.184 49.5574 108.531C46.0052 109.14 42.3664 109.575 38.7276 110.184C35.7818 110.618 32.9228 111.227 30.0637 111.749C28.4175 112.01 27.0313 112.792 26.1649 114.358C25.6451 115.314 24.8654 115.923 23.9123 116.445C22.2662 117.227 20.88 118.271 19.3205 119.227C18.0209 120.01 16.8946 120.966 15.6816 121.836C15.3351 122.097 14.9885 122.271 14.642 122.445C14.0355 122.705 13.2557 122.01 13.429 121.401C13.5157 121.053 13.6889 120.618 13.9489 120.271C14.2954 119.662 14.7286 119.14 15.1618 118.618C16.8946 116.358 18.1075 113.749 18.6274 110.966C19.0605 108.792 19.4071 106.618 19.8403 104.445C21.0532 97.488 22.786 90.7054 25.2119 84.1836C27.0313 79.2271 29.3706 74.4445 32.6628 70.2706C35.8685 66.1837 39.5073 62.7054 44.0125 60.2706C46.1785 59.0532 48.4311 58.2706 50.7704 57.488C54.2359 56.3576 57.4416 54.6184 60.3873 52.4445C60.9071 52.0967 61.4269 51.6619 61.8601 51.3141C64.6326 49.0532 67.8382 48.0097 71.2171 47.6619C72.8633 47.488 74.4228 47.6619 75.9823 48.0967C78.1482 48.7054 79.7944 50.0097 80.834 52.0097C81.8737 54.0097 82.4802 56.1837 82.8267 58.6184ZM20.62 116.879C21.3998 116.445 22.2662 116.01 23.0459 115.662C24.1722 115.227 25.0386 114.531 25.6451 113.488C26.4248 112.184 27.5512 111.314 28.9374 110.879C30.4969 110.358 32.0564 109.836 33.6159 109.575C38.1211 108.618 42.713 107.836 47.2182 106.966C49.7307 106.531 52.2432 106.01 54.5825 105.14C60.1274 103.14 64.5459 99.6619 68.0115 94.8793C69.8309 92.3576 71.2171 89.6619 72.5167 86.8793C74.856 81.6619 76.6754 76.3576 78.3215 70.8793C79.2745 67.6619 79.7944 64.3576 79.881 60.9663C79.881 58.7924 79.7944 56.6184 79.1879 54.4445C78.3215 51.488 76.5021 49.9228 73.5564 49.6619C73.2098 49.6619 72.8633 49.575 72.5167 49.575C69.0512 49.6619 65.7589 50.5315 62.9864 52.7054C61.8601 53.575 60.7338 54.4445 59.5209 55.0532C56.5752 56.5315 53.6294 57.9228 50.4238 58.9663C49.2975 59.3141 48.2578 59.7489 47.2182 60.2706C43.2328 62.0967 40.0271 64.8793 37.2547 68.2706C34.2223 71.9228 31.9697 76.0967 30.237 80.6184C28.2443 85.6619 26.5981 90.8793 25.2119 96.1836C24.1722 100.097 23.6524 104.01 22.9593 107.923C22.5261 110.792 21.9196 113.923 20.62 116.879Z" fill="#277D2A"/>
<path d="M33.5292 25.9228C33.9624 30.0097 33.9624 34.0097 33.2693 38.0967C32.6629 41.6619 31.2766 44.8793 29.024 47.6619C28.071 48.8793 27.118 49.9228 25.9917 51.0532C24.5188 52.5315 23.0459 54.0097 21.5731 55.401C20.88 56.0967 20.1869 56.7923 19.4937 57.488C17.1545 59.7489 15.6816 62.4445 14.8152 65.488C14.2088 67.401 13.6023 69.2271 12.9958 71.1402C12.7359 71.9228 12.5626 72.7054 12.8226 73.488C12.9092 73.6619 12.9092 73.9228 12.8226 74.1836C12.7359 74.8793 12.0428 75.3141 11.4363 75.0532C11.0898 74.8793 10.6566 74.7054 10.3967 74.4445C9.87684 73.9228 9.44364 73.401 9.01045 72.8793C6.41128 69.3141 4.76514 65.3141 3.81212 61.0532C3.46556 59.401 3.46556 57.7489 3.63884 56.0097C3.81212 54.1836 3.98539 52.4445 4.15867 50.6184C4.41859 46.7923 3.89876 42.9663 3.03237 39.2271C2.16598 35.488 1.12631 31.8358 0.60648 28.0097C-0.259908 22.6184 -0.346547 17.1402 0.60648 11.7489C0.779758 10.6184 1.12631 9.48799 1.47287 8.35755C2.07934 6.44451 3.20565 4.87929 4.93842 3.74886C7.7975 1.83582 10.8299 0.705381 14.2088 0.531468C16.548 0.444511 18.714 1.05321 20.6201 2.35755C23.9123 4.61842 26.5981 7.40103 28.5908 10.8793C30.237 13.7489 31.4499 16.8793 32.2297 20.0967C32.7495 22.0097 33.096 24.0097 33.5292 25.9228ZM12.3894 71.5749C13.2558 68.2706 14.1221 65.401 14.8152 62.5315C15.1618 61.0532 15.7683 59.7489 16.6347 58.6184C18.1075 56.7923 19.5804 54.9663 21.1399 53.0532C22.6994 51.1402 24.3455 49.2271 25.7317 47.2271C27.8977 44.0967 29.1973 40.5315 29.5439 36.7054C30.237 30.1836 29.6305 23.7489 27.5512 17.488C26.5981 14.6184 25.3852 11.8358 23.739 9.31408C22.4395 7.31408 20.88 5.57495 18.8873 4.18364C17.5011 3.14016 15.9416 2.53147 14.2088 2.61842C11.3497 2.70538 8.66389 3.57495 6.15137 5.14016C4.76514 6.00973 3.72548 7.22712 3.20565 8.87929C2.85909 10.0097 2.51253 11.0532 2.25262 12.1836C1.12631 18.4445 1.29959 24.6184 2.77245 30.7923C3.5522 33.9228 4.50523 37.0532 5.37162 40.1836C6.41128 43.8358 7.27767 47.5749 7.36431 51.401C7.36431 52.7923 7.36431 54.1836 7.36431 55.5749C7.36431 57.401 7.62423 59.3141 8.05742 61.0532C8.92381 64.2706 10.1368 67.401 11.6096 70.4445C11.8695 70.7054 12.0428 70.9662 12.3894 71.5749Z" fill="#277D2A"/>
<path d="M42.5397 72.4445C43.0595 72.8793 43.1461 73.488 43.2328 74.1837C43.4927 75.6619 43.666 77.1402 43.9259 78.6184C44.0125 78.9663 44.0992 79.2271 44.1858 79.488C44.7056 79.6619 44.7923 79.4011 44.9656 79.1402C47.0449 76.4445 49.6441 74.3576 52.5031 72.5315C56.0553 70.2706 59.3476 67.7489 62.4666 64.9663C64.0261 63.575 65.7589 62.2706 67.4917 60.9663C67.9248 60.6184 68.2714 60.2706 68.9645 60.6184C68.7046 60.9663 68.5313 61.2271 68.2714 61.401C66.0188 63.488 63.6795 65.6619 61.3403 67.7489C59.3476 69.488 57.2683 71.2271 55.2756 72.8793C53.6294 74.2706 51.9833 75.6619 50.6837 77.3141C50.3372 77.7489 49.9906 78.2706 49.5574 78.8793C49.9906 78.9663 50.2505 79.0532 50.5104 79.0532C53.6294 78.7924 56.7484 78.4445 59.7808 78.0967C60.3873 78.0097 60.9071 77.9228 61.4269 77.8358C61.6869 78.2706 61.5136 78.5315 61.2537 78.6184C60.8205 78.8793 60.3006 79.0532 59.7808 79.2271C56.3152 80.0967 52.7631 80.6184 49.1242 80.6184C48.8643 80.6184 48.691 80.6184 48.3445 80.7054C46.6983 83.401 45.6587 86.3576 44.7923 89.575C46.3518 89.6619 47.738 89.6619 49.1242 89.7489C51.6367 89.7489 54.2359 89.8358 56.7484 89.8358C57.1816 89.8358 57.7015 89.9228 58.1347 90.0097C58.4812 90.0967 58.5678 90.6184 58.2213 90.8793C57.8747 91.1402 57.5282 91.3141 57.1816 91.401C56.6618 91.575 56.0553 91.575 55.4489 91.6619C51.81 91.8358 48.1712 92.0967 44.5324 91.575C44.4457 91.575 44.2724 91.575 44.0992 91.6619C43.9259 92.0967 43.666 92.5315 43.4927 92.9663C40.4603 99.9228 35.5219 104.966 28.7641 108.184C28.3309 108.445 27.8111 108.618 27.2912 108.705C26.0783 108.966 25.2119 108.01 25.6451 106.879C25.905 106.271 26.2516 105.749 26.6848 105.314C27.3779 104.618 28.1576 104.01 28.8507 103.314C30.4102 101.923 31.9697 100.531 33.4426 99.1402C35.6952 96.8793 37.428 94.1837 38.6409 91.2271C39.1608 89.9228 39.594 88.6184 40.2004 87.3141C40.8069 85.8358 41.5 84.3576 42.1931 82.8793C42.5397 82.1837 42.6263 81.6619 42.453 80.8793C42.1065 79.1402 41.8466 77.488 41.6733 75.7489C41.5866 74.8793 41.6733 74.0097 41.6733 73.1402C41.9332 73.0532 42.0198 72.9663 42.5397 72.4445Z" fill="#277D2A"/>
<path d="M71.0438 69.8358C70.9572 70.0097 70.9572 70.2706 70.8706 70.4445C70.6106 70.7054 70.3507 70.8793 70.0042 70.9662C69.0511 71.3141 68.0981 71.6619 67.0584 71.8358C66.6253 71.9228 66.0188 71.8358 65.5856 71.7489C65.4123 71.7489 65.3257 71.401 65.239 71.2271C65.239 71.1402 65.3257 70.8793 65.4989 70.7923C65.5856 70.7054 65.7589 70.6184 65.9321 70.5315C67.4916 70.2706 69.0511 70.0097 70.6973 69.7488C70.6973 69.7488 70.7839 69.8358 71.0438 69.8358Z" fill="#277D2A"/>
<path d="M64.8925 86.8793C64.1127 86.8793 63.4196 86.9663 62.7265 86.9663C62.38 86.9663 62.1201 86.7923 61.7735 86.6184C61.5136 86.5315 61.6002 86.0097 61.8601 85.8358C62.0334 85.7489 62.2067 85.6619 62.38 85.6619C63.6795 85.6619 64.9791 85.575 66.3654 85.575C66.452 85.575 66.452 85.5749 66.5386 85.6619C66.7119 85.8358 66.8852 86.0097 66.8852 86.1836C66.8852 86.3576 66.7119 86.6184 66.5386 86.7054C66.1921 86.8793 65.8455 86.8793 65.499 86.9663C65.239 86.8793 64.9791 86.8793 64.8925 86.8793Z" fill="#277D2A"/>
<path d="M34.9155 88.1836C34.5689 88.0097 34.2224 87.8358 33.9624 87.6619C33.1827 86.7054 32.6629 85.6619 32.2297 84.5315C32.2297 84.4445 32.2297 84.2706 32.2297 84.1836C32.3163 84.0097 32.4029 83.8358 32.4896 83.8358C32.5762 83.7489 32.8361 83.8358 32.9228 83.9228C33.096 84.0097 33.1827 84.1836 33.1827 84.3576C33.7025 85.401 34.2224 86.5315 34.6555 87.5749C34.9155 87.6619 34.9155 87.8358 34.9155 88.1836Z" fill="#277D2A"/>
<path d="M11.6096 57.9228C11.4363 57.5749 11.2631 57.3141 11.2631 57.1402C11.1764 56.3576 11.0898 55.6619 11.0898 54.8793C11.2631 50.0967 12.1295 45.3141 13.2558 40.6184C13.6023 39.3141 14.0355 38.0967 14.642 36.8793C15.8549 34.5315 15.9416 32.0967 15.4217 29.5749C12.1294 27.8358 10.0501 24.9662 8.31734 21.7489C7.53759 20.3575 6.84448 18.8793 6.06473 17.401C5.97809 17.0532 6.06473 16.7054 6.6712 16.4445C7.19104 16.9662 7.36431 17.8358 7.79751 18.4445C8.2307 19.0532 8.57726 19.7489 8.92381 20.3575C9.35701 21.0532 9.7902 21.7489 10.2234 22.3575C10.6566 23.0532 11.1764 23.6619 11.6963 24.2706C12.1294 24.8793 12.6493 25.401 13.1691 26.0097C13.6889 26.5315 14.2088 27.2271 15.1618 27.5749C15.1618 27.0532 15.1618 26.7054 15.0752 26.4445C14.9019 25.2271 14.642 24.0097 14.5553 22.8793C14.4687 22.1836 14.4687 21.488 14.4687 20.7923C14.4687 20.5315 14.5553 20.1836 14.642 19.9228C14.8153 19.3141 15.595 19.1402 16.0282 19.6619C16.3748 20.0967 16.6347 20.5315 16.8946 20.9662C17.1545 21.401 17.4144 21.8358 17.761 22.5315C18.0209 21.7489 18.2808 21.2271 18.4541 20.7054C19.2338 18.7054 19.9269 16.7054 20.7067 14.7054C20.88 14.2706 21.1399 13.9228 21.4864 13.5749C21.5731 13.488 21.9196 13.401 22.0929 13.488C22.2662 13.5749 22.3528 13.8358 22.4395 14.0097C22.5261 14.1836 22.4395 14.3575 22.4395 14.5315C21.833 16.8793 21.3998 19.3141 20.4468 21.5749C19.9269 22.7054 19.3205 23.8358 18.6274 25.2271C18.714 25.7489 18.9739 26.4445 19.1472 27.1402C19.4071 28.4445 19.7537 29.7489 20.0136 31.0532C20.1869 32.2706 20.2735 33.488 20.1002 34.7054C20.0136 34.9662 20.1002 35.2271 20.0136 35.7489C20.4468 35.401 20.7933 35.2271 21.0532 35.0532C21.833 34.4445 22.6127 33.8358 23.3925 33.2271C23.7391 32.9662 24.1722 32.7054 24.6054 32.5315C24.952 32.3575 25.3852 32.2706 25.7317 32.6184C25.9917 32.8793 25.905 33.401 25.4718 33.8358C23.8257 35.401 22.1796 36.8793 20.5334 38.4445C20.1002 38.7923 19.5804 39.1402 19.0606 39.3141C18.4541 39.488 18.1075 39.8358 17.8476 40.4445C17.3278 41.5749 16.8946 42.7054 16.4614 43.8358C15.7683 45.6619 15.0752 47.5749 14.2954 49.3141C13.2558 51.488 12.8226 53.8358 12.5626 56.1836C12.2161 56.6184 12.3027 57.2271 11.6096 57.9228Z" fill="#277D2A"/>
<path d="M13.1691 13.9227C12.8225 13.7488 12.476 13.7488 12.3027 13.5749C11.4363 12.6184 10.5699 11.6619 9.79019 10.7054C9.61691 10.5314 9.61691 10.1836 9.53027 9.92275C9.53027 9.57492 9.96347 9.31405 10.2234 9.40101C10.31 9.40101 10.4833 9.48797 10.5699 9.57492C11.6096 10.7054 12.5626 11.8358 13.1691 13.2271C13.2557 13.3141 13.1691 13.5749 13.1691 13.9227Z" fill="#277D2A"/>
<path d="M6.15136 31.0532C7.27767 31.1402 8.23069 31.3141 9.01044 31.9228C9.09708 32.0097 9.18372 32.2706 9.18372 32.3576C9.18372 32.5315 8.92381 32.7054 8.83717 32.7054C7.7975 32.5315 6.93111 32.4445 5.97809 32.3576C5.71817 32.2706 5.45825 32.0097 5.63153 31.6619C5.71817 31.401 5.97809 31.2271 6.15136 31.0532Z" fill="#277D2A"/>
<path d="M25.3852 23.7489C25.4718 24.1837 25.5585 24.4446 25.4718 24.6185C25.2985 25.4011 24.7787 26.0098 24.1722 26.6185C23.9123 26.8793 23.5658 26.8793 23.2192 26.6185C22.8727 26.3576 22.786 26.0098 23.0459 25.7489C23.5658 24.9663 24.2589 24.2706 25.3852 23.7489Z" fill="#277D2A"/>
<path d="M16.1148 13.1402C15.9416 12.9663 15.6816 12.7923 15.6816 12.6184C15.5084 11.6619 15.5084 10.7923 15.8549 9.92278C15.8549 9.83582 15.9416 9.83582 15.9416 9.74886C16.1148 9.66191 16.2881 9.57495 16.3747 9.57495C16.548 9.57495 16.7213 9.74886 16.8079 9.83582C16.8946 10.0097 16.9812 10.2706 16.8946 10.5315C16.8079 11.401 16.9812 12.4445 16.1148 13.1402Z" fill="#277D2A"/>
<path d="M23.4791 45.8358C22.9593 46.4445 22.6127 46.7923 22.1795 47.2271C22.0929 47.3141 21.833 47.3141 21.7464 47.2271C21.6597 47.1401 21.4864 46.9662 21.4864 46.7923C21.4864 46.6184 21.4864 46.4445 21.5731 46.2706C21.9196 45.7488 22.2662 45.6619 23.4791 45.8358Z" fill="#277D2A"/>
<path d="M58.4812 21.2271C57.4415 17.488 58.4812 11.5749 63.2463 8.44448C63.8528 8.00969 64.4593 7.66187 65.0658 7.31404C67.0584 6.27056 69.2244 5.92274 71.477 6.44448C74.1628 7.05317 76.5021 8.27056 78.4948 10.0967C80.7474 12.1836 81.7004 14.7923 81.6138 17.8358C81.6138 18.4445 81.6138 19.0532 81.8737 19.7488C82.2202 20.8793 82.1336 22.1836 81.2672 23.1401C80.4008 24.1836 79.6211 25.1401 78.6681 26.0097C76.6754 27.8358 74.2495 29.0532 71.5637 29.6619C66.6253 30.8793 62.38 28.1836 60.214 25.0532C59.4342 23.9227 58.8278 22.6184 58.4812 21.2271ZM80.1409 16.7923C79.5344 14.2706 78.4948 12.5314 76.762 11.314C75.7223 10.6184 74.6827 9.92274 73.5564 9.401C70.4374 8.09665 67.5783 8.27056 64.8925 10.5314C64.8058 10.5314 64.8058 10.6184 64.7192 10.6184C61.5136 13.1401 60.3873 16.5314 61.0804 20.4445C61.9468 25.2271 67.405 29.314 73.2098 26.3575C75.809 25.0532 77.8883 23.1401 79.6211 20.7923C80.2276 19.9227 80.4875 18.9662 80.4008 17.9227C80.2276 17.401 80.1409 16.8793 80.1409 16.7923Z" fill="#277D2A"/>
<path d="M73.3831 17.6618C72.69 18.1836 72.1701 18.5314 71.6503 18.8792C71.0438 19.2271 70.4374 19.314 69.8309 18.8792C69.2244 18.4445 69.1378 17.7488 69.3111 17.1401C69.4843 16.5314 69.8309 16.0097 70.1775 15.314C69.6576 14.8792 69.1378 14.5314 68.6179 14.0966C67.7516 13.401 67.405 12.5314 67.6649 11.7488C67.9248 10.9662 68.8779 10.4445 70.0042 10.4445C70.6973 10.5314 71.3038 10.6184 71.8236 11.0532C72.3434 11.4879 72.8633 11.5749 73.4697 11.5749C74.7693 11.5749 75.7223 12.0097 76.3288 13.314C76.4154 13.5749 76.8486 13.8358 77.0219 14.0966C77.3685 14.5314 77.715 14.8792 78.0616 15.314C78.928 16.7053 78.6681 18.2705 77.3685 19.314C76.5021 20.0966 75.4624 20.0097 74.6827 19.1401C74.5094 18.9662 74.3361 18.6184 74.1628 18.4445C73.9896 18.1836 73.7296 18.0097 73.3831 17.6618ZM71.3904 15.0532C71.3038 15.4879 71.2171 15.9227 71.0438 16.2705C70.8706 16.7053 70.6106 17.0532 70.3507 17.4879C70.2641 17.5749 70.3507 17.8358 70.524 17.9227C70.6106 18.0097 70.8706 18.0097 71.0438 18.0097C71.477 17.7488 71.9102 17.401 72.3434 17.0532C73.4697 16.2705 74.2495 16.4445 75.0292 17.6618C75.2025 17.9227 75.3758 18.2705 75.5491 18.6184C75.809 18.9662 76.2422 19.0532 76.6754 18.7923C77.715 18.0966 77.8883 16.8792 77.1086 15.8358C76.8486 15.4879 76.5021 15.2271 76.2422 14.9662C75.8956 14.6184 75.4624 14.2705 75.3758 13.8358C75.0292 12.8792 74.4228 12.6184 73.5564 12.7053C72.69 12.7923 71.9102 12.6184 71.2171 12.0966C70.6973 11.7488 70.0908 11.6618 69.4843 11.7488C68.9645 11.8358 68.7046 12.4445 69.1378 12.7923C69.571 13.2271 70.0042 13.5749 70.4374 13.9227C70.6973 14.2705 71.0438 14.6184 71.3904 15.0532Z" fill="#277D2A"/>
<path d="M73.9896 15.1402C73.4697 15.3141 72.69 15.0532 72.4301 14.5315C72.3434 14.3576 72.5167 14.0097 72.69 13.9228C73.2098 13.5749 74.0762 14.0097 74.1628 14.7054C74.1628 14.7923 73.9896 14.9662 73.9896 15.1402Z" fill="#277D2A"/>
</g>
<defs>
<clipPath id="clip0">
<rect width="83" height="122" fill="white" transform="translate(0 0.531433)"/>
</clipPath>
</defs>
</svg>
